solid 海豹與北極熊-3
facet normal 1.1278752698494039e-14 -1.7621429518007747e-14 1.0
  outer loop
    vertex 64.86563057174142 -84.29632752224596 -10.641165919443623
    vertex 64.79791974503796 -78.8725529393761 -10.6411659194436
    vertex 64.79791974503796 -83.26325993937611 -10.641165919443594
  endloop
endfacet
facet normal 1.1278752698494039e-14 -1.7621429518007747e-14 1.0
  outer loop
    vertex 64.79791974503796 -78.8725529393761 -10.6411659194436
    vertex 64.86563057174142 -84.29632752224596 -10.641165919443623
    vertex 64.8656305717414 -77.83948535650627 -10.641165919443571
  endloop
endfacet
facet normal 1.1278752698494039e-14 -1.7621429518007747e-14 1.0
  outer loop
    vertex 64.8656305717414 -77.83948535650627 -10.641165919443571
    vertex 64.86563057174142 -84.29632752224596 -10.641165919443623
    vertex 65.0676045008339 -76.82409384639978 -10.64116591944355
  endloop
endfacet
facet normal 1.1278752698494039e-14 -1.7621429518007747e-14 1.0
  outer loop
    vertex 65.0676045008339 -76.82409384639978 -10.64116591944355
    vertex 64.86563057174142 -84.29632752224596 -10.641165919443623
    vertex 65.06760450083391 -85.31171903235244 -10.641165919443655
  endloop
endfacet
facet normal 1.1278752698494039e-14 -1.7621429518007747e-14 1.0
  outer loop
    vertex 65.0676045008339 -76.82409384639978 -10.64116591944355
    vertex 65.06760450083391 -85.31171903235244 -10.641165919443655
    vertex 65.40038570239089 -75.84375203931427 -10.641165919443523
  endloop
endfacet
facet normal 1.1278752698494039e-14 -1.7621429518007747e-14 1.0
  outer loop
    vertex 65.40038570239089 -75.84375203931427 -10.641165919443523
    vertex 65.06760450083391 -85.31171903235244 -10.641165919443655
    vertex 65.4003857023909 -86.29206083943795 -10.641165919443683
  endloop
endfacet
facet normal 1.1278752698494039e-14 -1.7621429518007747e-14 1.0
  outer loop
    vertex 65.40038570239089 -75.84375203931427 -10.641165919443523
    vertex 65.4003857023909 -86.29206083943795 -10.641165919443683
    vertex 65.85828019778936 -74.91523385537107 -10.641165919443505
  endloop
endfacet
facet normal 1.1278752698494039e-14 -1.7621429518007747e-14 1.0
  outer loop
    vertex 65.85828019778936 -74.91523385537107 -10.641165919443505
    vertex 65.4003857023909 -86.29206083943795 -10.641165919443683
    vertex 65.85828019778938 -87.22057902338115 -10.641165919443715
  endloop
endfacet
facet normal 1.1278752698494039e-14 -1.7621429518007747e-14 1.0
  outer loop
    vertex 65.85828019778936 -74.91523385537107 -10.641165919443505
    vertex 65.85828019778938 -87.22057902338115 -10.641165919443715
    vertex 66.43345328526073 -74.05442649813132 -10.641165919443484
  endloop
endfacet
facet normal 1.1278752698494039e-14 -1.7621429518007747e-14 1.0
  outer loop
    vertex 66.43345328526073 -74.05442649813132 -10.641165919443484
    vertex 65.85828019778938 -87.22057902338115 -10.641165919443715
    vertex 66.43345328526074 -88.0813863806209 -10.641165919443743
  endloop
endfacet
facet normal 1.1278752698494039e-14 -1.7621429518007747e-14 1.0
  outer loop
    vertex 66.43345328526073 -74.05442649813132 -10.641165919443484
    vertex 66.43345328526074 -88.0813863806209 -10.641165919443743
    vertex 67.11606359381021 -73.2760586201383 -10.641165919443473
  endloop
endfacet
facet normal 1.1278752698494039e-14 -1.7621429518007747e-14 1.0
  outer loop
    vertex 67.11606359381021 -73.2760586201383 -10.641165919443473
    vertex 66.43345328526074 -88.0813863806209 -10.641165919443743
    vertex 67.11606359381025 -88.8597542586139 -10.641165919443777
  endloop
endfacet
facet normal 1.1278752698494039e-14 -1.7621429518007747e-14 1.0
  outer loop
    vertex 67.11606359381021 -73.2760586201383 -10.641165919443473
    vertex 67.11606359381025 -88.8597542586139 -10.641165919443777
    vertex 67.89443147180323 -72.59344831158882 -10.641165919443463
  endloop
endfacet
facet normal 1.1278752698494039e-14 -1.7621429518007747e-14 1.0
  outer loop
    vertex 67.89443147180323 -72.59344831158882 -10.641165919443463
    vertex 67.11606359381025 -88.8597542586139 -10.641165919443777
    vertex 67.89443147180327 -89.5423645671634 -10.641165919443798
  endloop
endfacet
facet normal 1.1278752698494039e-14 -1.7621429518007747e-14 1.0
  outer loop
    vertex 67.89443147180323 -72.59344831158882 -10.641165919443463
    vertex 67.89443147180327 -89.5423645671634 -10.641165919443798
    vertex 69.51328333519692 -78.45136045073413 -10.641165919443639
  endloop
endfacet
facet normal 1.1278752698494039e-14 -1.7621429518007747e-14 1.0
  outer loop
    vertex 67.89443147180323 -72.59344831158882 -10.641165919443463
    vertex 69.51328333519692 -78.45136045073413 -10.641165919443639
    vertex 69.5956302244478 -78.03737468234945 -10.641165919443633
  endloop
endfacet
facet normal 1.1278752698494039e-14 -1.7621429518007747e-14 1.0
  outer loop
    vertex 67.89443147180323 -72.59344831158882 -10.641165919443463
    vertex 69.5956302244478 -78.03737468234945 -10.641165919443633
    vertex 69.73130861062624 -77.63767904549765 -10.64116591944362
  endloop
endfacet
facet normal 1.1278752698494039e-14 -1.7621429518007747e-14 1.0
  outer loop
    vertex 67.89443147180323 -72.59344831158882 -10.641165919443463
    vertex 69.73130861062624 -77.63767904549765 -10.64116591944362
    vertex 69.91799699892759 -77.25911244334185 -10.641165919443612
  endloop
endfacet
facet normal 1.1278752698494039e-14 -1.7621429518007747e-14 1.0
  outer loop
    vertex 67.89443147180323 -72.59344831158882 -10.641165919443463
    vertex 69.91799699892759 -77.25911244334185 -10.641165919443612
    vertex 70.1525010992682 -76.90815225540341 -10.641165919443607
  endloop
endfacet
facet normal 1.1278752698494039e-14 -1.7621429518007747e-14 1.0
  outer loop
    vertex 69.51328333519692 -78.45136045073413 -10.641165919443639
    vertex 67.89443147180327 -89.5423645671634 -10.641165919443798
    vertex 69.48567692097954 -78.87255293937609 -10.64116591944365
  endloop
endfacet
facet normal 1.1278752698494039e-14 -1.7621429518007747e-14 1.0
  outer loop
    vertex 69.48567692097954 -78.87255293937609 -10.64116591944365
    vertex 67.89443147180327 -89.5423645671634 -10.641165919443798
    vertex 68.75523882904301 -90.11753765463477 -10.641165919443827
  endloop
endfacet
facet normal 1.1278752698494039e-14 -1.7621429518007747e-14 1.0
  outer loop
    vertex 69.6837570129862 -90.57543215003324 -10.641165919443848
    vertex 69.48567692097954 -78.87255293937609 -10.64116591944365
    vertex 68.75523882904301 -90.11753765463477 -10.641165919443827
  endloop
endfacet
facet normal 1.1278752698494039e-14 -1.7621429518007747e-14 1.0
  outer loop
    vertex 69.48567692097954 -78.87255293937609 -10.64116591944365
    vertex 69.6837570129862 -90.57543215003324 -10.641165919443848
    vertex 69.51328333519692 -79.29374542801806 -10.641165919443667
  endloop
endfacet
facet normal 1.1278752698494039e-14 -1.7621429518007747e-14 1.0
  outer loop
    vertex 69.51328333519692 -79.29374542801806 -10.641165919443667
    vertex 69.6837570129862 -90.57543215003324 -10.641165919443848
    vertex 69.5956302244478 -79.70773119640273 -10.641165919443676
  endloop
endfacet
facet normal 1.1278752698494039e-14 -1.7621429518007747e-14 1.0
  outer loop
    vertex 69.5956302244478 -79.70773119640273 -10.641165919443676
    vertex 69.6837570129862 -90.57543215003324 -10.641165919443848
    vertex 69.73130861062624 -80.10742683325452 -10.641165919443688
  endloop
endfacet
facet normal 1.1278752698494039e-14 -1.7621429518007747e-14 1.0
  outer loop
    vertex 69.73130861062624 -80.10742683325452 -10.641165919443688
    vertex 69.6837570129862 -90.57543215003324 -10.641165919443848
    vertex 70.66409882007171 -90.90821335159023 -10.641165919443871
  endloop
endfacet
facet normal 1.1278752698494039e-14 -1.7621429518007747e-14 1.0
  outer loop
    vertex 69.73130861062624 -80.10742683325452 -10.641165919443688
    vertex 70.66409882007171 -90.90821335159023 -10.641165919443871
    vertex 69.9179969989276 -80.48599343541034 -10.641165919443699
  endloop
endfacet
facet normal 1.1278752698494039e-14 -1.7621429518007747e-14 1.0
  outer loop
    vertex 69.9179969989276 -80.48599343541034 -10.641165919443699
    vertex 70.66409882007171 -90.90821335159023 -10.641165919443871
    vertex 70.1525010992682 -80.83695362334878 -10.641165919443715
  endloop
endfacet
facet normal 1.1278752698494039e-14 -1.7621429518007747e-14 1.0
  outer loop
    vertex 70.1525010992682 -80.83695362334878 -10.641165919443715
    vertex 70.66409882007171 -90.90821335159023 -10.641165919443871
    vertex 70.43080848147444 -81.15430237094971 -10.641165919443726
  endloop
endfacet
facet normal 1.1278752698494039e-14 -1.7621429518007747e-14 1.0
  outer loop
    vertex 70.43080848147444 -81.15430237094971 -10.641165919443726
    vertex 70.66409882007171 -90.90821335159023 -10.641165919443871
    vertex 70.74815722907535 -81.43260975315593 -10.641165919443736
  endloop
endfacet
facet normal 1.1278752698494039e-14 -1.7621429518007747e-14 1.0
  outer loop
    vertex 70.74815722907535 -81.43260975315593 -10.641165919443736
    vertex 70.66409882007171 -90.90821335159023 -10.641165919443871
    vertex 71.67949033017821 -91.11018728068272 -10.641165919443887
  endloop
endfacet
facet normal 1.1278752698494039e-14 -1.7621429518007747e-14 1.0
  outer loop
    vertex 70.74815722907535 -81.43260975315593 -10.641165919443736
    vertex 71.67949033017821 -91.11018728068272 -10.641165919443887
    vertex 71.0991174170138 -81.66711385349655 -10.641165919443749
  endloop
endfacet
facet normal 1.1278752698494039e-14 -1.7621429518007747e-14 1.0
  outer loop
    vertex 71.0991174170138 -81.66711385349655 -10.641165919443749
    vertex 71.67949033017821 -91.11018728068272 -10.641165919443887
    vertex 71.4776840191696 -81.8538022417979 -10.641165919443754
  endloop
endfacet
facet normal 1.1278752698494039e-14 -1.7621429518007747e-14 1.0
  outer loop
    vertex 71.4776840191696 -81.8538022417979 -10.641165919443754
    vertex 71.67949033017821 -91.11018728068272 -10.641165919443887
    vertex 71.8773796560214 -81.98948062797633 -10.641165919443765
  endloop
endfacet
facet normal 1.1278752698494039e-14 -1.7621429518007747e-14 1.0
  outer loop
    vertex 71.8773796560214 -81.98948062797633 -10.641165919443765
    vertex 71.67949033017821 -91.11018728068272 -10.641165919443887
    vertex 72.29136542440608 -87.68736851722723 -10.641165919443766
  endloop
endfacet
facet normal 1.1278752698494039e-14 -1.7621429518007747e-14 1.0
  outer loop
    vertex 72.29136542440608 -87.68736851722723 -10.641165919443766
    vertex 71.67949033017821 -91.11018728068272 -10.641165919443887
    vertex 72.71255791304806 -91.17789810738617 -10.6411659194439
  endloop
endfacet
facet normal 1.1278752698494039e-14 -1.7621429518007747e-14 1.0
  outer loop
    vertex 72.29136542440608 -87.68736851722723 -10.641165919443766
    vertex 72.71255791304806 -91.17789810738617 -10.6411659194439
    vertex 73.13375040169001 -87.68736851722723 -10.641165919443777
  endloop
endfacet
facet normal 1.1278752698494039e-14 -1.7621429518007747e-14 1.0
  outer loop
    vertex 73.13375040169001 -87.68736851722723 -10.641165919443777
    vertex 72.71255791304806 -91.17789810738617 -10.6411659194439
    vertex 73.74562549591789 -91.11018728068272 -10.64116591944391
  endloop
endfacet
facet normal 1.1278752698494039e-14 -1.7621429518007747e-14 1.0
  outer loop
    vertex 73.13375040169001 -87.68736851722723 -10.641165919443777
    vertex 73.74562549591789 -91.11018728068272 -10.64116591944391
    vertex 73.13375040169001 -82.07182751722722 -10.641165919443782
  endloop
endfacet
facet normal 1.1278752698494039e-14 -1.7621429518007747e-14 1.0
  outer loop
    vertex 73.13375040169001 -82.07182751722722 -10.641165919443782
    vertex 73.74562549591789 -91.11018728068272 -10.64116591944391
    vertex 73.54773617007469 -81.98948062797633 -10.641165919443782
  endloop
endfacet
facet normal 1.1278752698494039e-14 -1.7621429518007747e-14 1.0
  outer loop
    vertex 73.54773617007469 -81.98948062797633 -10.641165919443782
    vertex 73.74562549591789 -91.11018728068272 -10.64116591944391
    vertex 73.94743180692647 -81.8538022417979 -10.641165919443782
  endloop
endfacet
facet normal 1.1278752698494039e-14 -1.7621429518007747e-14 1.0
  outer loop
    vertex 73.94743180692647 -81.8538022417979 -10.641165919443782
    vertex 73.74562549591789 -91.11018728068272 -10.64116591944391
    vertex 74.76101700602439 -90.90821335159023 -10.641165919443916
  endloop
endfacet
facet normal 1.1278752698494039e-14 -1.7621429518007747e-14 1.0
  outer loop
    vertex 73.94743180692647 -81.8538022417979 -10.641165919443782
    vertex 74.76101700602439 -90.90821335159023 -10.641165919443916
    vertex 74.32599840908229 -81.66711385349655 -10.641165919443782
  endloop
endfacet
facet normal 1.1278752698494039e-14 -1.7621429518007747e-14 1.0
  outer loop
    vertex 74.32599840908229 -81.66711385349655 -10.641165919443782
    vertex 74.76101700602439 -90.90821335159023 -10.641165919443916
    vertex 74.67695859702074 -81.43260975315593 -10.641165919443782
  endloop
endfacet
facet normal 1.1278752698494039e-14 -1.7621429518007747e-14 1.0
  outer loop
    vertex 74.67695859702074 -81.43260975315593 -10.641165919443782
    vertex 74.76101700602439 -90.90821335159023 -10.641165919443916
    vertex 74.99430734462165 -81.1543023709497 -10.641165919443777
  endloop
endfacet
facet normal 1.1278752698494039e-14 -1.7621429518007747e-14 1.0
  outer loop
    vertex 74.99430734462165 -81.1543023709497 -10.641165919443777
    vertex 74.76101700602439 -90.90821335159023 -10.641165919443916
    vertex 75.7413588131099 -90.57543215003324 -10.641165919443916
  endloop
endfacet
facet normal 1.1278752698494039e-14 -1.7621429518007747e-14 1.0
  outer loop
    vertex 74.99430734462165 -81.1543023709497 -10.641165919443777
    vertex 75.7413588131099 -90.57543215003324 -10.641165919443916
    vertex 75.27261472682787 -80.83695362334878 -10.641165919443772
  endloop
endfacet
facet normal 1.1278752698494039e-14 -1.7621429518007747e-14 1.0
  outer loop
    vertex 75.27261472682787 -80.83695362334878 -10.641165919443772
    vertex 75.7413588131099 -90.57543215003324 -10.641165919443916
    vertex 75.5071188271685 -80.48599343541034 -10.641165919443766
  endloop
endfacet
facet normal 1.1278752698494039e-14 -1.7621429518007747e-14 1.0
  outer loop
    vertex 75.5071188271685 -80.48599343541034 -10.641165919443766
    vertex 75.7413588131099 -90.57543215003324 -10.641165919443916
    vertex 75.69380721546985 -80.10742683325452 -10.641165919443756
  endloop
endfacet
facet normal 1.1278752698494039e-14 -1.7621429518007747e-14 1.0
  outer loop
    vertex 75.69380721546985 -80.10742683325452 -10.641165919443756
    vertex 75.7413588131099 -90.57543215003324 -10.641165919443916
    vertex 75.82948560164829 -79.70773119640273 -10.641165919443743
  endloop
endfacet
facet normal 1.1278752698494039e-14 -1.7621429518007747e-14 1.0
  outer loop
    vertex 75.82948560164829 -79.70773119640273 -10.641165919443743
    vertex 75.7413588131099 -90.57543215003324 -10.641165919443916
    vertex 76.6698769970531 -90.11753765463476 -10.641165919443917
  endloop
endfacet
facet normal 1.1278752698494039e-14 -1.7621429518007747e-14 1.0
  outer loop
    vertex 75.82948560164829 -79.70773119640273 -10.641165919443743
    vertex 76.6698769970531 -90.11753765463476 -10.641165919443917
    vertex 75.91183249089917 -79.29374542801806 -10.64116591944374
  endloop
endfacet
facet normal 1.1278752698494039e-14 -1.7621429518007747e-14 1.0
  outer loop
    vertex 75.91183249089917 -79.29374542801806 -10.64116591944374
    vertex 76.6698769970531 -90.11753765463476 -10.641165919443917
    vertex 75.93943890511653 -78.87255293937609 -10.64116591944373
  endloop
endfacet
facet normal 1.1278752698494039e-14 -1.7621429518007747e-14 1.0
  outer loop
    vertex 75.50711882716848 -77.25911244334183 -10.64116591944368
    vertex 77.10028067567296 -72.3058617678531 -10.641165919443559
    vertex 75.27261472682787 -76.9081522554034 -10.641165919443662
  endloop
endfacet
facet normal 1.1278752698494039e-14 -1.7621429518007747e-14 1.0
  outer loop
    vertex 77.10028067567296 -72.3058617678531 -10.641165919443559
    vertex 75.50711882716848 -77.25911244334183 -10.64116591944368
    vertex 75.69380721546985 -77.63767904549765 -10.641165919443688
  endloop
endfacet
facet normal 1.1278752698494039e-14 -1.7621429518007747e-14 1.0
  outer loop
    vertex 77.10028067567296 -72.3058617678531 -10.641165919443559
    vertex 75.69380721546985 -77.63767904549765 -10.641165919443688
    vertex 75.82948560164829 -78.03737468234945 -10.6411659194437
  endloop
endfacet
facet normal 1.1278752698494039e-14 -1.7621429518007747e-14 1.0
  outer loop
    vertex 77.10028067567296 -72.3058617678531 -10.641165919443559
    vertex 75.82948560164829 -78.03737468234945 -10.6411659194437
    vertex 75.91183249089917 -78.45136045073413 -10.641165919443711
  endloop
endfacet
facet normal 1.1278752698494039e-14 -1.7621429518007747e-14 1.0
  outer loop
    vertex 77.10028067567296 -72.3058617678531 -10.641165919443559
    vertex 75.91183249089917 -78.45136045073413 -10.641165919443711
    vertex 75.93943890511653 -78.87255293937609 -10.64116591944373
  endloop
endfacet
facet normal 1.1278752698494039e-14 -1.7621429518007747e-14 1.0
  outer loop
    vertex 77.10028067567296 -72.3058617678531 -10.641165919443559
    vertex 75.93943890511653 -78.87255293937609 -10.64116591944373
    vertex 76.6698769970531 -90.11753765463476 -10.641165919443917
  endloop
endfacet
facet normal 1.1278752698494039e-14 -1.7621429518007747e-14 1.0
  outer loop
    vertex 77.10028067567296 -72.3058617678531 -10.641165919443559
    vertex 76.6698769970531 -90.11753765463476 -10.641165919443917
    vertex 77.53068435429283 -89.5423645671634 -10.641165919443912
  endloop
endfacet
facet normal 1.1278752698494039e-14 -1.7621429518007747e-14 1.0
  outer loop
    vertex 77.10028067567296 -72.3058617678531 -10.641165919443559
    vertex 77.53068435429283 -89.5423645671634 -10.641165919443912
    vertex 77.53068435429283 -72.59344831158879 -10.641165919443575
  endloop
endfacet
facet normal 1.1278752698494039e-14 -1.7621429518007747e-14 1.0
  outer loop
    vertex 77.53068435429283 -72.59344831158879 -10.641165919443575
    vertex 77.53068435429283 -89.5423645671634 -10.641165919443912
    vertex 78.30905223228585 -88.85975425861389 -10.6411659194439
  endloop
endfacet
facet normal 1.1278752698494039e-14 -1.7621429518007747e-14 1.0
  outer loop
    vertex 77.53068435429283 -72.59344831158879 -10.641165919443575
    vertex 78.30905223228585 -88.85975425861389 -10.6411659194439
    vertex 78.30905223228585 -73.27605862013829 -10.641165919443598
  endloop
endfacet
facet normal 1.1278752698494039e-14 -1.7621429518007747e-14 1.0
  outer loop
    vertex 78.30905223228585 -73.27605862013829 -10.641165919443598
    vertex 78.30905223228585 -88.85975425861389 -10.6411659194439
    vertex 78.99166254083535 -88.08138638062087 -10.64116591944389
  endloop
endfacet
facet normal 1.1278752698494039e-14 -1.7621429518007747e-14 1.0
  outer loop
    vertex 78.30905223228585 -73.27605862013829 -10.641165919443598
    vertex 78.99166254083535 -88.08138638062087 -10.64116591944389
    vertex 78.99166254083535 -74.0544264981313 -10.64116591944363
  endloop
endfacet
facet normal 1.1278752698494039e-14 -1.7621429518007747e-14 1.0
  outer loop
    vertex 78.99166254083535 -74.0544264981313 -10.64116591944363
    vertex 78.99166254083535 -88.08138638062087 -10.64116591944389
    vertex 79.56683562830672 -74.91523385537104 -10.641165919443658
  endloop
endfacet
facet normal 1.1278752698494039e-14 -1.7621429518007747e-14 1.0
  outer loop
    vertex 79.56683562830672 -74.91523385537104 -10.641165919443658
    vertex 78.99166254083535 -88.08138638062087 -10.64116591944389
    vertex 79.56683562830672 -87.22057902338115 -10.641165919443873
  endloop
endfacet
facet normal 1.1278752698494039e-14 -1.7621429518007747e-14 1.0
  outer loop
    vertex 79.56683562830672 -74.91523385537104 -10.641165919443658
    vertex 79.56683562830672 -87.22057902338115 -10.641165919443873
    vertex 80.0247301237052 -86.29206083943794 -10.641165919443852
  endloop
endfacet
facet normal 1.1278752698494039e-14 -1.7621429518007747e-14 1.0
  outer loop
    vertex 79.56683562830672 -74.91523385537104 -10.641165919443658
    vertex 80.0247301237052 -86.29206083943794 -10.641165919443852
    vertex 80.0247301237052 -75.84375203931424 -10.641165919443692
  endloop
endfacet
facet normal 1.1278752698494039e-14 -1.7621429518007747e-14 1.0
  outer loop
    vertex 80.0247301237052 -75.84375203931424 -10.641165919443692
    vertex 80.0247301237052 -86.29206083943794 -10.641165919443852
    vertex 80.3575113252622 -85.31171903235244 -10.641165919443825
  endloop
endfacet
facet normal 1.1278752698494039e-14 -1.7621429518007747e-14 1.0
  outer loop
    vertex 80.0247301237052 -75.84375203931424 -10.641165919443692
    vertex 80.3575113252622 -85.31171903235244 -10.641165919443825
    vertex 80.3575113252622 -76.82409384639976 -10.641165919443718
  endloop
endfacet
facet normal 1.1278752698494039e-14 -1.7621429518007747e-14 1.0
  outer loop
    vertex 80.3575113252622 -76.82409384639976 -10.641165919443718
    vertex 80.3575113252622 -85.31171903235244 -10.641165919443825
    vertex 80.55948525435467 -84.29632752224593 -10.641165919443804
  endloop
endfacet
facet normal 1.1278752698494039e-14 -1.7621429518007747e-14 1.0
  outer loop
    vertex 80.3575113252622 -76.82409384639976 -10.641165919443718
    vertex 80.55948525435467 -84.29632752224593 -10.641165919443804
    vertex 80.55948525435467 -77.83948535650624 -10.64116591944375
  endloop
endfacet
facet normal 1.1278752698494039e-14 -1.7621429518007747e-14 1.0
  outer loop
    vertex 80.55948525435467 -77.83948535650624 -10.64116591944375
    vertex 80.55948525435467 -84.29632752224593 -10.641165919443804
    vertex 80.62719608105813 -83.2632599393761 -10.641165919443775
  endloop
endfacet
facet normal 1.1278752698494039e-14 -1.7621429518007747e-14 1.0
  outer loop
    vertex 80.55948525435467 -77.83948535650624 -10.64116591944375
    vertex 80.62719608105813 -83.2632599393761 -10.641165919443775
    vertex 80.62719608105813 -78.87255293937609 -10.641165919443779
  endloop
endfacet
facet normal 1.1278752698494039e-14 -1.7621429518007747e-14 1.0
  outer loop
    vertex 72.29136542440608 -82.07182751722722 -10.64116591944377
    vertex 71.8773796560214 -81.98948062797633 -10.641165919443765
    vertex 72.29136542440608 -87.68736851722723 -10.641165919443766
  endloop
endfacet
facet normal -1.1278752698494039e-14 1.7621429518007747e-14 -1.0
  outer loop
    vertex 64.86563057174138 -77.83948535650623 -12.441165919443574
    vertex 64.79791974503793 -83.26325993937608 -12.441165919443597
    vertex 64.79791974503793 -78.87255293937608 -12.441165919443602
  endloop
endfacet
facet normal -1.1278752698494039e-14 1.7621429518007747e-14 -1.0
  outer loop
    vertex 64.79791974503793 -83.26325993937608 -12.441165919443597
    vertex 64.86563057174138 -77.83948535650623 -12.441165919443574
    vertex 64.86563057174139 -84.29632752224593 -12.441165919443625
  endloop
endfacet
facet normal -1.1278752698494039e-14 1.7621429518007747e-14 -1.0
  outer loop
    vertex 64.86563057174139 -84.29632752224593 -12.441165919443625
    vertex 64.86563057174138 -77.83948535650623 -12.441165919443574
    vertex 65.06760450083388 -76.82409384639975 -12.441165919443552
  endloop
endfacet
facet normal -1.1278752698494039e-14 1.7621429518007747e-14 -1.0
  outer loop
    vertex 64.86563057174139 -84.29632752224593 -12.441165919443625
    vertex 65.06760450083388 -76.82409384639975 -12.441165919443552
    vertex 65.06760450083388 -85.31171903235241 -12.441165919443657
  endloop
endfacet
facet normal -1.1278752698494039e-14 1.7621429518007747e-14 -1.0
  outer loop
    vertex 65.06760450083388 -85.31171903235241 -12.441165919443657
    vertex 65.06760450083388 -76.82409384639975 -12.441165919443552
    vertex 65.40038570239086 -75.84375203931424 -12.441165919443526
  endloop
endfacet
facet normal -1.1278752698494039e-14 1.7621429518007747e-14 -1.0
  outer loop
    vertex 65.06760450083388 -85.31171903235241 -12.441165919443657
    vertex 65.40038570239086 -75.84375203931424 -12.441165919443526
    vertex 65.40038570239088 -86.29206083943792 -12.441165919443685
  endloop
endfacet
facet normal -1.1278752698494039e-14 1.7621429518007747e-14 -1.0
  outer loop
    vertex 65.40038570239088 -86.29206083943792 -12.441165919443685
    vertex 65.40038570239086 -75.84375203931424 -12.441165919443526
    vertex 65.85828019778934 -74.91523385537104 -12.441165919443508
  endloop
endfacet
facet normal -1.1278752698494039e-14 1.7621429518007747e-14 -1.0
  outer loop
    vertex 65.40038570239088 -86.29206083943792 -12.441165919443685
    vertex 65.85828019778934 -74.91523385537104 -12.441165919443508
    vertex 65.85828019778936 -87.22057902338112 -12.441165919443717
  endloop
endfacet
facet normal -1.1278752698494039e-14 1.7621429518007747e-14 -1.0
  outer loop
    vertex 65.85828019778936 -87.22057902338112 -12.441165919443717
    vertex 65.85828019778934 -74.91523385537104 -12.441165919443508
    vertex 66.4334532852607 -74.0544264981313 -12.441165919443485
  endloop
endfacet
facet normal -1.1278752698494039e-14 1.7621429518007747e-14 -1.0
  outer loop
    vertex 65.85828019778936 -87.22057902338112 -12.441165919443717
    vertex 66.4334532852607 -74.0544264981313 -12.441165919443485
    vertex 66.43345328526073 -88.08138638062086 -12.441165919443746
  endloop
endfacet
facet normal -1.1278752698494039e-14 1.7621429518007747e-14 -1.0
  outer loop
    vertex 66.43345328526073 -88.08138638062086 -12.441165919443746
    vertex 66.4334532852607 -74.0544264981313 -12.441165919443485
    vertex 67.1160635938102 -73.27605862013827 -12.441165919443476
  endloop
endfacet
facet normal -1.1278752698494039e-14 1.7621429518007747e-14 -1.0
  outer loop
    vertex 66.43345328526073 -88.08138638062086 -12.441165919443746
    vertex 67.1160635938102 -73.27605862013827 -12.441165919443476
    vertex 67.11606359381022 -88.85975425861388 -12.44116591944378
  endloop
endfacet
facet normal -1.1278752698494039e-14 1.7621429518007747e-14 -1.0
  outer loop
    vertex 67.11606359381022 -88.85975425861388 -12.44116591944378
    vertex 67.1160635938102 -73.27605862013827 -12.441165919443476
    vertex 67.89443147180322 -72.59344831158877 -12.441165919443465
  endloop
endfacet
facet normal -1.1278752698494039e-14 1.7621429518007747e-14 -1.0
  outer loop
    vertex 67.11606359381022 -88.85975425861388 -12.44116591944378
    vertex 67.89443147180322 -72.59344831158877 -12.441165919443465
    vertex 67.89443147180324 -89.54236456716337 -12.441165919443801
  endloop
endfacet
facet normal -1.1278752698494039e-14 1.7621429518007747e-14 -1.0
  outer loop
    vertex 67.89443147180324 -89.54236456716337 -12.441165919443801
    vertex 67.89443147180322 -72.59344831158877 -12.441165919443465
    vertex 69.51328333519689 -78.4513604507341 -12.441165919443641
  endloop
endfacet
facet normal -1.1278752698494039e-14 1.7621429518007747e-14 -1.0
  outer loop
    vertex 69.51328333519689 -78.4513604507341 -12.441165919443641
    vertex 67.89443147180322 -72.59344831158877 -12.441165919443465
    vertex 69.59563022444777 -78.03737468234942 -12.441165919443636
  endloop
endfacet
facet normal -1.1278752698494039e-14 1.7621429518007747e-14 -1.0
  outer loop
    vertex 69.59563022444777 -78.03737468234942 -12.441165919443636
    vertex 67.89443147180322 -72.59344831158877 -12.441165919443465
    vertex 69.73130861062621 -77.63767904549763 -12.441165919443623
  endloop
endfacet
facet normal -1.1278752698494039e-14 1.7621429518007747e-14 -1.0
  outer loop
    vertex 69.73130861062621 -77.63767904549763 -12.441165919443623
    vertex 67.89443147180322 -72.59344831158877 -12.441165919443465
    vertex 69.91799699892756 -77.25911244334182 -12.441165919443614
  endloop
endfacet
facet normal -1.1278752698494039e-14 1.7621429518007747e-14 -1.0
  outer loop
    vertex 69.91799699892756 -77.25911244334182 -12.441165919443614
    vertex 67.89443147180322 -72.59344831158877 -12.441165919443465
    vertex 70.15250109926819 -76.90815225540337 -12.441165919443607
  endloop
endfacet
facet normal -1.1278752698494039e-14 1.7621429518007747e-14 -1.0
  outer loop
    vertex 67.89443147180324 -89.54236456716337 -12.441165919443801
    vertex 69.51328333519689 -78.4513604507341 -12.441165919443641
    vertex 69.48567692097953 -78.87255293937605 -12.441165919443652
  endloop
endfacet
facet normal -1.1278752698494039e-14 1.7621429518007747e-14 -1.0
  outer loop
    vertex 67.89443147180324 -89.54236456716337 -12.441165919443801
    vertex 69.48567692097953 -78.87255293937605 -12.441165919443652
    vertex 68.75523882904298 -90.11753765463473 -12.44116591944383
  endloop
endfacet
facet normal -1.1278752698494039e-14 1.7621429518007747e-14 -1.0
  outer loop
    vertex 73.54773617007466 -81.9894806279763 -12.441165919443785
    vertex 73.13375040169 -87.68736851722718 -12.44116591944378
    vertex 73.13375040169 -82.07182751722719 -12.441165919443785
  endloop
endfacet
facet normal -1.1278752698494039e-14 1.7621429518007747e-14 -1.0
  outer loop
    vertex 77.10028067567293 -72.30586176785307 -12.441165919443561
    vertex 75.50711882716847 -77.2591124433418 -12.441165919443682
    vertex 75.27261472682785 -76.90815225540337 -12.441165919443664
  endloop
endfacet
facet normal -1.1278752698494039e-14 1.7621429518007747e-14 -1.0
  outer loop
    vertex 75.50711882716847 -77.2591124433418 -12.441165919443682
    vertex 77.10028067567293 -72.30586176785307 -12.441165919443561
    vertex 75.69380721546982 -77.63767904549763 -12.44116591944369
  endloop
endfacet
facet normal -1.1278752698494039e-14 1.7621429518007747e-14 -1.0
  outer loop
    vertex 75.69380721546982 -77.63767904549763 -12.44116591944369
    vertex 77.10028067567293 -72.30586176785307 -12.441165919443561
    vertex 75.82948560164827 -78.03737468234942 -12.441165919443703
  endloop
endfacet
facet normal -1.1278752698494039e-14 1.7621429518007747e-14 -1.0
  outer loop
    vertex 75.82948560164827 -78.03737468234942 -12.441165919443703
    vertex 77.10028067567293 -72.30586176785307 -12.441165919443561
    vertex 75.91183249089916 -78.4513604507341 -12.441165919443714
  endloop
endfacet
facet normal -1.1278752698494039e-14 1.7621429518007747e-14 -1.0
  outer loop
    vertex 75.91183249089916 -78.4513604507341 -12.441165919443714
    vertex 77.10028067567293 -72.30586176785307 -12.441165919443561
    vertex 75.93943890511652 -78.87255293937605 -12.441165919443732
  endloop
endfacet
facet normal -1.1278752698494039e-14 1.7621429518007747e-14 -1.0
  outer loop
    vertex 75.93943890511652 -78.87255293937605 -12.441165919443732
    vertex 77.10028067567293 -72.30586176785307 -12.441165919443561
    vertex 76.66987699705307 -90.11753765463472 -12.44116591944392
  endloop
endfacet
facet normal -1.1278752698494039e-14 1.7621429518007747e-14 -1.0
  outer loop
    vertex 76.66987699705307 -90.11753765463472 -12.44116591944392
    vertex 77.10028067567293 -72.30586176785307 -12.441165919443561
    vertex 77.5306843542928 -89.54236456716336 -12.441165919443915
  endloop
endfacet
facet normal -1.1278752698494039e-14 1.7621429518007747e-14 -1.0
  outer loop
    vertex 77.5306843542928 -89.54236456716336 -12.441165919443915
    vertex 77.10028067567293 -72.30586176785307 -12.441165919443561
    vertex 77.5306843542928 -72.59344831158876 -12.441165919443577
  endloop
endfacet
facet normal -1.1278752698494039e-14 1.7621429518007747e-14 -1.0
  outer loop
    vertex 77.5306843542928 -89.54236456716336 -12.441165919443915
    vertex 77.5306843542928 -72.59344831158876 -12.441165919443577
    vertex 78.30905223228582 -73.27605862013824 -12.4411659194436
  endloop
endfacet
facet normal -1.1278752698494039e-14 1.7621429518007747e-14 -1.0
  outer loop
    vertex 77.5306843542928 -89.54236456716336 -12.441165919443915
    vertex 78.30905223228582 -73.27605862013824 -12.4411659194436
    vertex 78.30905223228582 -88.85975425861386 -12.441165919443902
  endloop
endfacet
facet normal -1.1278752698494039e-14 1.7621429518007747e-14 -1.0
  outer loop
    vertex 78.30905223228582 -88.85975425861386 -12.441165919443902
    vertex 78.30905223228582 -73.27605862013824 -12.4411659194436
    vertex 78.99166254083532 -74.05442649813126 -12.441165919443632
  endloop
endfacet
facet normal -1.1278752698494039e-14 1.7621429518007747e-14 -1.0
  outer loop
    vertex 78.30905223228582 -88.85975425861386 -12.441165919443902
    vertex 78.99166254083532 -74.05442649813126 -12.441165919443632
    vertex 78.99166254083534 -88.08138638062084 -12.441165919443893
  endloop
endfacet
facet normal -1.1278752698494039e-14 1.7621429518007747e-14 -1.0
  outer loop
    vertex 78.99166254083534 -88.08138638062084 -12.441165919443893
    vertex 78.99166254083532 -74.05442649813126 -12.441165919443632
    vertex 79.56683562830669 -74.91523385537101 -12.44116591944366
  endloop
endfacet
facet normal -1.1278752698494039e-14 1.7621429518007747e-14 -1.0
  outer loop
    vertex 78.99166254083534 -88.08138638062084 -12.441165919443893
    vertex 79.56683562830669 -74.91523385537101 -12.44116591944366
    vertex 79.56683562830669 -87.2205790233811 -12.441165919443876
  endloop
endfacet
facet normal -1.1278752698494039e-14 1.7621429518007747e-14 -1.0
  outer loop
    vertex 79.56683562830669 -87.2205790233811 -12.441165919443876
    vertex 79.56683562830669 -74.91523385537101 -12.44116591944366
    vertex 80.02473012370517 -75.84375203931421 -12.441165919443694
  endloop
endfacet
facet normal -1.1278752698494039e-14 1.7621429518007747e-14 -1.0
  outer loop
    vertex 79.56683562830669 -87.2205790233811 -12.441165919443876
    vertex 80.02473012370517 -75.84375203931421 -12.441165919443694
    vertex 80.02473012370517 -86.29206083943791 -12.441165919443854
  endloop
endfacet
facet normal -1.1278752698494039e-14 1.7621429518007747e-14 -1.0
  outer loop
    vertex 80.02473012370517 -86.29206083943791 -12.441165919443854
    vertex 80.02473012370517 -75.84375203931421 -12.441165919443694
    vertex 80.35751132526217 -76.82409384639972 -12.441165919443721
  endloop
endfacet
facet normal -1.1278752698494039e-14 1.7621429518007747e-14 -1.0
  outer loop
    vertex 80.02473012370517 -86.29206083943791 -12.441165919443854
    vertex 80.35751132526217 -76.82409384639972 -12.441165919443721
    vertex 80.35751132526217 -85.3117190323524 -12.441165919443828
  endloop
endfacet
facet normal -1.1278752698494039e-14 1.7621429518007747e-14 -1.0
  outer loop
    vertex 80.35751132526217 -85.3117190323524 -12.441165919443828
    vertex 80.35751132526217 -76.82409384639972 -12.441165919443721
    vertex 80.55948525435464 -77.83948535650622 -12.441165919443753
  endloop
endfacet
facet normal -1.1278752698494039e-14 1.7621429518007747e-14 -1.0
  outer loop
    vertex 80.35751132526217 -85.3117190323524 -12.441165919443828
    vertex 80.55948525435464 -77.83948535650622 -12.441165919443753
    vertex 80.55948525435464 -84.2963275222459 -12.441165919443806
  endloop
endfacet
facet normal -1.1278752698494039e-14 1.7621429518007747e-14 -1.0
  outer loop
    vertex 80.55948525435464 -84.2963275222459 -12.441165919443806
    vertex 80.55948525435464 -77.83948535650622 -12.441165919443753
    vertex 80.62719608105812 -78.87255293937605 -12.441165919443781
  endloop
endfacet
facet normal -1.1278752698494039e-14 1.7621429518007747e-14 -1.0
  outer loop
    vertex 80.55948525435464 -84.2963275222459 -12.441165919443806
    vertex 80.62719608105812 -78.87255293937605 -12.441165919443781
    vertex 80.62719608105812 -83.26325993937607 -12.441165919443778
  endloop
endfacet
facet normal -1.1278752698494039e-14 1.7621429518007747e-14 -1.0
  outer loop
    vertex 69.48567692097953 -78.87255293937605 -12.441165919443652
    vertex 69.68375701298619 -90.57543215003321 -12.44116591944385
    vertex 68.75523882904298 -90.11753765463473 -12.44116591944383
  endloop
endfacet
facet normal -1.1278752698494039e-14 1.7621429518007747e-14 -1.0
  outer loop
    vertex 69.68375701298619 -90.57543215003321 -12.44116591944385
    vertex 69.48567692097953 -78.87255293937605 -12.441165919443652
    vertex 69.51328333519689 -79.29374542801803 -12.44116591944367
  endloop
endfacet
facet normal -1.1278752698494039e-14 1.7621429518007747e-14 -1.0
  outer loop
    vertex 69.68375701298619 -90.57543215003321 -12.44116591944385
    vertex 69.51328333519689 -79.29374542801803 -12.44116591944367
    vertex 69.59563022444777 -79.7077311964027 -12.441165919443678
  endloop
endfacet
facet normal -1.1278752698494039e-14 1.7621429518007747e-14 -1.0
  outer loop
    vertex 69.68375701298619 -90.57543215003321 -12.44116591944385
    vertex 69.59563022444777 -79.7077311964027 -12.441165919443678
    vertex 69.73130861062621 -80.10742683325451 -12.44116591944369
  endloop
endfacet
facet normal -1.1278752698494039e-14 1.7621429518007747e-14 -1.0
  outer loop
    vertex 69.68375701298619 -90.57543215003321 -12.44116591944385
    vertex 69.73130861062621 -80.10742683325451 -12.44116591944369
    vertex 70.66409882007169 -90.9082133515902 -12.441165919443874
  endloop
endfacet
facet normal -1.1278752698494039e-14 1.7621429518007747e-14 -1.0
  outer loop
    vertex 70.66409882007169 -90.9082133515902 -12.441165919443874
    vertex 69.73130861062621 -80.10742683325451 -12.44116591944369
    vertex 69.91799699892758 -80.48599343541031 -12.441165919443701
  endloop
endfacet
facet normal -1.1278752698494039e-14 1.7621429518007747e-14 -1.0
  outer loop
    vertex 70.66409882007169 -90.9082133515902 -12.441165919443874
    vertex 69.91799699892758 -80.48599343541031 -12.441165919443701
    vertex 70.15250109926819 -80.83695362334875 -12.441165919443717
  endloop
endfacet
facet normal -1.1278752698494039e-14 1.7621429518007747e-14 -1.0
  outer loop
    vertex 70.66409882007169 -90.9082133515902 -12.441165919443874
    vertex 70.15250109926819 -80.83695362334875 -12.441165919443717
    vertex 70.43080848147441 -81.15430237094967 -12.441165919443728
  endloop
endfacet
facet normal -1.1278752698494039e-14 1.7621429518007747e-14 -1.0
  outer loop
    vertex 70.66409882007169 -90.9082133515902 -12.441165919443874
    vertex 70.43080848147441 -81.15430237094967 -12.441165919443728
    vertex 70.74815722907533 -81.4326097531559 -12.441165919443739
  endloop
endfacet
facet normal -1.1278752698494039e-14 1.7621429518007747e-14 -1.0
  outer loop
    vertex 70.66409882007169 -90.9082133515902 -12.441165919443874
    vertex 70.74815722907533 -81.4326097531559 -12.441165919443739
    vertex 71.6794903301782 -91.1101872806827 -12.44116591944389
  endloop
endfacet
facet normal -1.1278752698494039e-14 1.7621429518007747e-14 -1.0
  outer loop
    vertex 71.6794903301782 -91.1101872806827 -12.44116591944389
    vertex 70.74815722907533 -81.4326097531559 -12.441165919443739
    vertex 71.09911741701377 -81.6671138534965 -12.441165919443751
  endloop
endfacet
facet normal -1.1278752698494039e-14 1.7621429518007747e-14 -1.0
  outer loop
    vertex 71.6794903301782 -91.1101872806827 -12.44116591944389
    vertex 71.09911741701377 -81.6671138534965 -12.441165919443751
    vertex 71.47768401916959 -81.85380224179785 -12.441165919443756
  endloop
endfacet
facet normal -1.1278752698494039e-14 1.7621429518007747e-14 -1.0
  outer loop
    vertex 71.6794903301782 -91.1101872806827 -12.44116591944389
    vertex 71.47768401916959 -81.85380224179785 -12.441165919443756
    vertex 71.87737965602138 -81.9894806279763 -12.441165919443767
  endloop
endfacet
facet normal -1.1278752698494039e-14 1.7621429518007747e-14 -1.0
  outer loop
    vertex 71.6794903301782 -91.1101872806827 -12.44116591944389
    vertex 71.87737965602138 -81.9894806279763 -12.441165919443767
    vertex 72.29136542440607 -87.68736851722718 -12.441165919443769
  endloop
endfacet
facet normal -1.1278752698494039e-14 1.7621429518007747e-14 -1.0
  outer loop
    vertex 71.6794903301782 -91.1101872806827 -12.44116591944389
    vertex 72.29136542440607 -87.68736851722718 -12.441165919443769
    vertex 72.71255791304803 -91.17789810738614 -12.441165919443902
  endloop
endfacet
facet normal -1.1278752698494039e-14 1.7621429518007747e-14 -1.0
  outer loop
    vertex 72.29136542440607 -87.68736851722718 -12.441165919443769
    vertex 71.87737965602138 -81.9894806279763 -12.441165919443767
    vertex 72.29136542440607 -82.07182751722719 -12.441165919443772
  endloop
endfacet
facet normal -1.1278752698494039e-14 1.7621429518007747e-14 -1.0
  outer loop
    vertex 72.71255791304803 -91.17789810738614 -12.441165919443902
    vertex 72.29136542440607 -87.68736851722718 -12.441165919443769
    vertex 73.13375040169 -87.68736851722718 -12.44116591944378
  endloop
endfacet
facet normal -1.1278752698494039e-14 1.7621429518007747e-14 -1.0
  outer loop
    vertex 72.71255791304803 -91.17789810738614 -12.441165919443902
    vertex 73.13375040169 -87.68736851722718 -12.44116591944378
    vertex 73.74562549591788 -91.1101872806827 -12.441165919443913
  endloop
endfacet
facet normal -1.1278752698494039e-14 1.7621429518007747e-14 -1.0
  outer loop
    vertex 73.74562549591788 -91.1101872806827 -12.441165919443913
    vertex 73.13375040169 -87.68736851722718 -12.44116591944378
    vertex 73.54773617007466 -81.9894806279763 -12.441165919443785
  endloop
endfacet
facet normal -1.1278752698494039e-14 1.7621429518007747e-14 -1.0
  outer loop
    vertex 73.74562549591788 -91.1101872806827 -12.441165919443913
    vertex 73.54773617007466 -81.9894806279763 -12.441165919443785
    vertex 73.94743180692646 -81.85380224179785 -12.441165919443785
  endloop
endfacet
facet normal -1.1278752698494039e-14 1.7621429518007747e-14 -1.0
  outer loop
    vertex 73.74562549591788 -91.1101872806827 -12.441165919443913
    vertex 73.94743180692646 -81.85380224179785 -12.441165919443785
    vertex 74.76101700602436 -90.9082133515902 -12.441165919443918
  endloop
endfacet
facet normal -1.1278752698494039e-14 1.7621429518007747e-14 -1.0
  outer loop
    vertex 74.76101700602436 -90.9082133515902 -12.441165919443918
    vertex 73.94743180692646 -81.85380224179785 -12.441165919443785
    vertex 74.32599840908227 -81.6671138534965 -12.441165919443785
  endloop
endfacet
facet normal -1.1278752698494039e-14 1.7621429518007747e-14 -1.0
  outer loop
    vertex 74.76101700602436 -90.9082133515902 -12.441165919443918
    vertex 74.32599840908227 -81.6671138534965 -12.441165919443785
    vertex 74.67695859702071 -81.4326097531559 -12.441165919443785
  endloop
endfacet
facet normal -1.1278752698494039e-14 1.7621429518007747e-14 -1.0
  outer loop
    vertex 74.76101700602436 -90.9082133515902 -12.441165919443918
    vertex 74.67695859702071 -81.4326097531559 -12.441165919443785
    vertex 74.99430734462163 -81.15430237094967 -12.44116591944378
  endloop
endfacet
facet normal -1.1278752698494039e-14 1.7621429518007747e-14 -1.0
  outer loop
    vertex 74.76101700602436 -90.9082133515902 -12.441165919443918
    vertex 74.99430734462163 -81.15430237094967 -12.44116591944378
    vertex 75.74135881310987 -90.57543215003321 -12.441165919443918
  endloop
endfacet
facet normal -1.1278752698494039e-14 1.7621429518007747e-14 -1.0
  outer loop
    vertex 75.74135881310987 -90.57543215003321 -12.441165919443918
    vertex 74.99430734462163 -81.15430237094967 -12.44116591944378
    vertex 75.27261472682785 -80.83695362334875 -12.441165919443774
  endloop
endfacet
facet normal -1.1278752698494039e-14 1.7621429518007747e-14 -1.0
  outer loop
    vertex 75.74135881310987 -90.57543215003321 -12.441165919443918
    vertex 75.27261472682785 -80.83695362334875 -12.441165919443774
    vertex 75.50711882716847 -80.48599343541031 -12.441165919443769
  endloop
endfacet
facet normal -1.1278752698494039e-14 1.7621429518007747e-14 -1.0
  outer loop
    vertex 75.74135881310987 -90.57543215003321 -12.441165919443918
    vertex 75.50711882716847 -80.48599343541031 -12.441165919443769
    vertex 75.69380721546982 -80.10742683325451 -12.441165919443758
  endloop
endfacet
facet normal -1.1278752698494039e-14 1.7621429518007747e-14 -1.0
  outer loop
    vertex 75.74135881310987 -90.57543215003321 -12.441165919443918
    vertex 75.69380721546982 -80.10742683325451 -12.441165919443758
    vertex 75.82948560164827 -79.70773119640269 -12.441165919443746
  endloop
endfacet
facet normal -1.1278752698494039e-14 1.7621429518007747e-14 -1.0
  outer loop
    vertex 75.74135881310987 -90.57543215003321 -12.441165919443918
    vertex 75.82948560164827 -79.70773119640269 -12.441165919443746
    vertex 76.66987699705307 -90.11753765463472 -12.44116591944392
  endloop
endfacet
facet normal -1.1278752698494039e-14 1.7621429518007747e-14 -1.0
  outer loop
    vertex 76.66987699705307 -90.11753765463472 -12.44116591944392
    vertex 75.82948560164827 -79.70773119640269 -12.441165919443746
    vertex 75.91183249089916 -79.29374542801803 -12.441165919443742
  endloop
endfacet
facet normal -1.1278752698494039e-14 1.7621429518007747e-14 -1.0
  outer loop
    vertex 76.66987699705307 -90.11753765463472 -12.44116591944392
    vertex 75.91183249089916 -79.29374542801803 -12.441165919443742
    vertex 75.93943890511652 -78.87255293937605 -12.441165919443732
  endloop
endfacet
facet normal 0.19509032201612242 0.9807852804032317 1.5082463195035596e-14
  outer loop
    vertex 71.87737965602138 -81.9894806279763 -12.441165919443767
    vertex 72.29136542440608 -82.07182751722722 -10.64116591944377
    vertex 72.29136542440607 -82.07182751722719 -12.441165919443772
  endloop
endfacet
facet normal 0.19509032201612242 0.9807852804032317 1.5082463195035596e-14
  outer loop
    vertex 72.29136542440608 -82.07182751722722 -10.64116591944377
    vertex 71.87737965602138 -81.9894806279763 -12.441165919443767
    vertex 71.8773796560214 -81.98948062797633 -10.641165919443765
  endloop
endfacet
facet normal 1.0 -8.921875791131353e-30 -1.1278752698494039e-14
  outer loop
    vertex 72.29136542440607 -87.68736851722718 -12.441165919443769
    vertex 72.29136542440608 -82.07182751722722 -10.64116591944377
    vertex 72.29136542440608 -87.68736851722723 -10.641165919443766
  endloop
endfacet
facet normal 1.0 -8.921875791131353e-30 -1.1278752698494039e-14
  outer loop
    vertex 72.29136542440608 -82.07182751722722 -10.64116591944377
    vertex 72.29136542440607 -87.68736851722718 -12.441165919443769
    vertex 72.29136542440607 -82.07182751722719 -12.441165919443772
  endloop
endfacet
facet normal 2.4655012192435466e-28 1.0 1.762142951800775e-14
  outer loop
    vertex 72.29136542440607 -87.68736851722718 -12.441165919443769
    vertex 73.13375040169001 -87.68736851722723 -10.641165919443777
    vertex 73.13375040169 -87.68736851722718 -12.44116591944378
  endloop
endfacet
facet normal 2.4655012192435466e-28 1.0 1.762142951800775e-14
  outer loop
    vertex 73.13375040169001 -87.68736851722723 -10.641165919443777
    vertex 72.29136542440607 -87.68736851722718 -12.441165919443769
    vertex 72.29136542440608 -87.68736851722723 -10.641165919443766
  endloop
endfacet
facet normal -1.0 8.921875791131353e-30 1.1278752698494039e-14
  outer loop
    vertex 73.13375040169001 -82.07182751722722 -10.641165919443782
    vertex 73.13375040169 -87.68736851722718 -12.44116591944378
    vertex 73.13375040169001 -87.68736851722723 -10.641165919443777
  endloop
endfacet
facet normal -1.0 8.921875791131353e-30 1.1278752698494039e-14
  outer loop
    vertex 73.13375040169 -87.68736851722718 -12.44116591944378
    vertex 73.13375040169001 -82.07182751722722 -10.641165919443782
    vertex 73.13375040169 -82.07182751722719 -12.441165919443785
  endloop
endfacet
facet normal -0.19509032201613077 0.9807852804032301 1.9483214186814488e-14
  outer loop
    vertex 73.13375040169001 -82.07182751722722 -10.641165919443782
    vertex 73.54773617007466 -81.9894806279763 -12.441165919443785
    vertex 73.13375040169 -82.07182751722719 -12.441165919443785
  endloop
endfacet
facet normal -0.19509032201613077 0.9807852804032301 1.9483214186814488e-14
  outer loop
    vertex 73.54773617007466 -81.9894806279763 -12.441165919443785
    vertex 73.13375040169001 -82.07182751722722 -10.641165919443782
    vertex 73.54773617007469 -81.98948062797633 -10.641165919443782
  endloop
endfacet
facet normal -0.32143946530316303 0.9469301294951052 2.0311698772066477e-14
  outer loop
    vertex 73.54773617007469 -81.98948062797633 -10.641165919443782
    vertex 73.94743180692646 -81.85380224179785 -12.441165919443785
    vertex 73.54773617007466 -81.9894806279763 -12.441165919443785
  endloop
endfacet
facet normal -0.32143946530316303 0.9469301294951052 2.0311698772066477e-14
  outer loop
    vertex 73.94743180692646 -81.85380224179785 -12.441165919443785
    vertex 73.54773617007469 -81.98948062797633 -10.641165919443782
    vertex 73.94743180692647 -81.8538022417979 -10.641165919443782
  endloop
endfacet
facet normal -0.4422886902189991 0.8968727415326895 2.0792644559861595e-14
  outer loop
    vertex 73.94743180692647 -81.8538022417979 -10.641165919443782
    vertex 74.32599840908227 -81.6671138534965 -12.441165919443785
    vertex 73.94743180692646 -81.85380224179785 -12.441165919443785
  endloop
endfacet
facet normal -0.4422886902189991 0.8968727415326895 2.0792644559861595e-14
  outer loop
    vertex 74.32599840908227 -81.6671138534965 -12.441165919443785
    vertex 73.94743180692647 -81.8538022417979 -10.641165919443782
    vertex 74.32599840908229 -81.66711385349655 -10.641165919443782
  endloop
endfacet
facet normal -0.5555702330196018 0.8314696123025455 2.0917822434427327e-14
  outer loop
    vertex 74.32599840908229 -81.66711385349655 -10.641165919443782
    vertex 74.67695859702071 -81.4326097531559 -12.441165919443785
    vertex 74.32599840908227 -81.6671138534965 -12.441165919443785
  endloop
endfacet
facet normal -0.5555702330196018 0.8314696123025455 2.0917822434427327e-14
  outer loop
    vertex 74.67695859702071 -81.4326097531559 -12.441165919443785
    vertex 74.32599840908229 -81.66711385349655 -10.641165919443782
    vertex 74.67695859702074 -81.43260975315593 -10.641165919443782
  endloop
endfacet
facet normal -0.6593458151000715 0.7518398074789753 2.068509056762396e-14
  outer loop
    vertex 74.67695859702074 -81.43260975315593 -10.641165919443782
    vertex 74.99430734462163 -81.15430237094967 -12.44116591944378
    vertex 74.67695859702071 -81.4326097531559 -12.441165919443785
  endloop
endfacet
facet normal -0.6593458151000715 0.7518398074789753 2.068509056762396e-14
  outer loop
    vertex 74.99430734462163 -81.15430237094967 -12.44116591944378
    vertex 74.67695859702074 -81.43260975315593 -10.641165919443782
    vertex 74.99430734462165 -81.1543023709497 -10.641165919443777
  endloop
endfacet
facet normal -0.7518398074789797 0.6593458151000662 2.0098431066217965e-14
  outer loop
    vertex 75.27261472682787 -80.83695362334878 -10.641165919443772
    vertex 74.99430734462163 -81.15430237094967 -12.44116591944378
    vertex 74.99430734462165 -81.1543023709497 -10.641165919443777
  endloop
endfacet
facet normal -0.7518398074789797 0.6593458151000662 2.0098431066217965e-14
  outer loop
    vertex 74.99430734462163 -81.15430237094967 -12.44116591944378
    vertex 75.27261472682787 -80.83695362334878 -10.641165919443772
    vertex 75.27261472682785 -80.83695362334875 -12.441165919443774
  endloop
endfacet
facet normal -0.8314696123025354 0.5555702330196174 1.9167881836931345e-14
  outer loop
    vertex 75.5071188271685 -80.48599343541034 -10.641165919443766
    vertex 75.27261472682785 -80.83695362334875 -12.441165919443774
    vertex 75.27261472682787 -80.83695362334878 -10.641165919443772
  endloop
endfacet
facet normal -0.8314696123025354 0.5555702330196174 1.9167881836931345e-14
  outer loop
    vertex 75.27261472682785 -80.83695362334875 -12.441165919443774
    vertex 75.5071188271685 -80.48599343541034 -10.641165919443766
    vertex 75.50711882716847 -80.48599343541031 -12.441165919443769
  endloop
endfacet
facet normal -0.896872741532692 0.4422886902189937 1.7909364835073558e-14
  outer loop
    vertex 75.69380721546985 -80.10742683325452 -10.641165919443756
    vertex 75.50711882716847 -80.48599343541031 -12.441165919443769
    vertex 75.5071188271685 -80.48599343541034 -10.641165919443766
  endloop
endfacet
facet normal -0.896872741532692 0.4422886902189937 1.7909364835073558e-14
  outer loop
    vertex 75.50711882716847 -80.48599343541031 -12.441165919443769
    vertex 75.69380721546985 -80.10742683325452 -10.641165919443756
    vertex 75.69380721546982 -80.10742683325451 -12.441165919443758
  endloop
endfacet
facet normal -0.946930129495108 0.321439465303155 1.6344413635473898e-14
  outer loop
    vertex 75.82948560164829 -79.70773119640273 -10.641165919443743
    vertex 75.69380721546982 -80.10742683325451 -12.441165919443758
    vertex 75.69380721546985 -80.10742683325452 -10.641165919443756
  endloop
endfacet
facet normal -0.946930129495108 0.321439465303155 1.6344413635473898e-14
  outer loop
    vertex 75.69380721546982 -80.10742683325451 -12.441165919443758
    vertex 75.82948560164829 -79.70773119640273 -10.641165919443743
    vertex 75.82948560164827 -79.70773119640269 -12.441165919443746
  endloop
endfacet
facet normal -0.9807852804032302 0.19509032201612947 1.4499804987043826e-14
  outer loop
    vertex 75.91183249089917 -79.29374542801806 -10.64116591944374
    vertex 75.82948560164827 -79.70773119640269 -12.441165919443746
    vertex 75.82948560164829 -79.70773119640273 -10.641165919443743
  endloop
endfacet
facet normal -0.9807852804032302 0.19509032201612947 1.4499804987043826e-14
  outer loop
    vertex 75.82948560164827 -79.70773119640269 -12.441165919443746
    vertex 75.91183249089917 -79.29374542801806 -10.64116591944374
    vertex 75.91183249089916 -79.29374542801803 -12.441165919443742
  endloop
endfacet
facet normal -0.9978589232386035 0.06540312923014352 1.2407100655179879e-14
  outer loop
    vertex 75.93943890511653 -78.87255293937609 -10.64116591944373
    vertex 75.91183249089916 -79.29374542801803 -12.441165919443742
    vertex 75.91183249089917 -79.29374542801806 -10.64116591944374
  endloop
endfacet
facet normal -0.9978589232386035 0.06540312923014352 1.2407100655179879e-14
  outer loop
    vertex 75.91183249089916 -79.29374542801803 -12.441165919443742
    vertex 75.93943890511653 -78.87255293937609 -10.64116591944373
    vertex 75.93943890511652 -78.87255293937605 -12.441165919443732
  endloop
endfacet
facet normal -0.9978589232386035 -0.06540312923014352 1.0102107391207628e-14
  outer loop
    vertex 75.91183249089917 -78.45136045073413 -10.641165919443711
    vertex 75.93943890511652 -78.87255293937605 -12.441165919443732
    vertex 75.93943890511653 -78.87255293937609 -10.64116591944373
  endloop
endfacet
facet normal -0.9978589232386035 -0.06540312923014352 1.0102107391207628e-14
  outer loop
    vertex 75.93943890511652 -78.87255293937605 -12.441165919443732
    vertex 75.91183249089917 -78.45136045073413 -10.641165919443711
    vertex 75.91183249089916 -78.4513604507341 -12.441165919443714
  endloop
endfacet
facet normal -0.9807852804032305 -0.19509032201612822 7.624264268938531e-15
  outer loop
    vertex 75.82948560164829 -78.03737468234945 -10.6411659194437
    vertex 75.91183249089916 -78.4513604507341 -12.441165919443714
    vertex 75.91183249089917 -78.45136045073413 -10.641165919443711
  endloop
endfacet
facet normal -0.9807852804032305 -0.19509032201612822 7.624264268938531e-15
  outer loop
    vertex 75.91183249089916 -78.4513604507341 -12.441165919443714
    vertex 75.82948560164829 -78.03737468234945 -10.6411659194437
    vertex 75.82948560164827 -78.03737468234942 -12.441165919443703
  endloop
endfacet
facet normal -0.9469301294951072 -0.32143946530315703 5.015967871182572e-15
  outer loop
    vertex 75.69380721546985 -77.63767904549765 -10.641165919443688
    vertex 75.82948560164827 -78.03737468234942 -12.441165919443703
    vertex 75.82948560164829 -78.03737468234945 -10.6411659194437
  endloop
endfacet
facet normal -0.9469301294951072 -0.32143946530315703 5.015967871182572e-15
  outer loop
    vertex 75.82948560164827 -78.03737468234942 -12.441165919443703
    vertex 75.69380721546985 -77.63767904549765 -10.641165919443688
    vertex 75.69380721546982 -77.63767904549763 -12.44116591944369
  endloop
endfacet
facet normal -0.8968727415326815 -0.4422886902190152 2.3218468724611397e-15
  outer loop
    vertex 75.50711882716848 -77.25911244334183 -10.64116591944368
    vertex 75.69380721546982 -77.63767904549763 -12.44116591944369
    vertex 75.69380721546985 -77.63767904549765 -10.641165919443688
  endloop
endfacet
facet normal -0.8968727415326815 -0.4422886902190152 2.3218468724611397e-15
  outer loop
    vertex 75.69380721546982 -77.63767904549763 -12.44116591944369
    vertex 75.50711882716848 -77.25911244334183 -10.64116591944368
    vertex 75.50711882716847 -77.2591124433418 -12.441165919443682
  endloop
endfacet
facet normal -0.8314696123025487 -0.5555702330195973 -4.1200156998481246e-16
  outer loop
    vertex 75.27261472682787 -76.9081522554034 -10.641165919443662
    vertex 75.50711882716847 -77.2591124433418 -12.441165919443682
    vertex 75.50711882716848 -77.25911244334183 -10.64116591944368
  endloop
endfacet
facet normal -0.8314696123025487 -0.5555702330195973 -4.1200156998481246e-16
  outer loop
    vertex 75.50711882716847 -77.2591124433418 -12.441165919443682
    vertex 75.27261472682787 -76.9081522554034 -10.641165919443662
    vertex 75.27261472682785 -76.90815225540337 -12.441165919443664
  endloop
endfacet
facet normal -0.9293965094181497 0.36908282035521417 1.6986200293767817e-14
  outer loop
    vertex 77.10028067567296 -72.3058617678531 -10.641165919443559
    vertex 75.27261472682785 -76.90815225540337 -12.441165919443664
    vertex 75.27261472682787 -76.9081522554034 -10.641165919443662
  endloop
endfacet
facet normal -0.9293965094181497 0.36908282035521417 1.6986200293767817e-14
  outer loop
    vertex 75.27261472682785 -76.90815225540337 -12.441165919443664
    vertex 77.10028067567296 -72.3058617678531 -10.641165919443559
    vertex 77.10028067567293 -72.30586176785307 -12.441165919443561
  endloop
endfacet
facet normal 0.5555702330196107 0.8314696123025397 8.385543904681532e-15
  outer loop
    vertex 77.10028067567293 -72.30586176785307 -12.441165919443561
    vertex 77.53068435429283 -72.59344831158879 -10.641165919443575
    vertex 77.5306843542928 -72.59344831158876 -12.441165919443577
  endloop
endfacet
facet normal 0.5555702330196107 0.8314696123025397 8.385543904681532e-15
  outer loop
    vertex 77.53068435429283 -72.59344831158879 -10.641165919443575
    vertex 77.10028067567293 -72.30586176785307 -12.441165919443561
    vertex 77.10028067567296 -72.3058617678531 -10.641165919443559
  endloop
endfacet
facet normal 0.659345815100068 0.7518398074789782 5.811893785022685e-15
  outer loop
    vertex 77.5306843542928 -72.59344831158876 -12.441165919443577
    vertex 78.30905223228585 -73.27605862013829 -10.641165919443598
    vertex 78.30905223228582 -73.27605862013824 -12.4411659194436
  endloop
endfacet
facet normal 0.659345815100068 0.7518398074789782 5.811893785022685e-15
  outer loop
    vertex 78.30905223228585 -73.27605862013829 -10.641165919443598
    vertex 77.5306843542928 -72.59344831158876 -12.441165919443577
    vertex 77.53068435429283 -72.59344831158879 -10.641165919443575
  endloop
endfacet
facet normal 0.7518398074789796 0.6593458151000663 3.1388005513404068e-15
  outer loop
    vertex 78.99166254083532 -74.05442649813126 -12.441165919443632
    vertex 78.30905223228585 -73.27605862013829 -10.641165919443598
    vertex 78.99166254083535 -74.0544264981313 -10.64116591944363
  endloop
endfacet
facet normal 0.7518398074789796 0.6593458151000663 3.1388005513404068e-15
  outer loop
    vertex 78.30905223228585 -73.27605862013829 -10.641165919443598
    vertex 78.99166254083532 -74.05442649813126 -12.441165919443632
    vertex 78.30905223228582 -73.27605862013824 -12.4411659194436
  endloop
endfacet
facet normal 0.8314696123025412 0.5555702330196082 4.120015699850872e-16
  outer loop
    vertex 79.56683562830669 -74.91523385537101 -12.44116591944366
    vertex 78.99166254083535 -74.0544264981313 -10.64116591944363
    vertex 79.56683562830672 -74.91523385537104 -10.641165919443658
  endloop
endfacet
facet normal 0.8314696123025412 0.5555702330196082 4.120015699850872e-16
  outer loop
    vertex 78.99166254083535 -74.0544264981313 -10.64116591944363
    vertex 79.56683562830669 -74.91523385537101 -12.44116591944366
    vertex 78.99166254083532 -74.05442649813126 -12.441165919443632
  endloop
endfacet
facet normal 0.8968727415326883 0.4422886902190015 -2.3218468724614553e-15
  outer loop
    vertex 80.02473012370517 -75.84375203931421 -12.441165919443694
    vertex 79.56683562830672 -74.91523385537104 -10.641165919443658
    vertex 80.0247301237052 -75.84375203931424 -10.641165919443692
  endloop
endfacet
facet normal 0.8968727415326883 0.4422886902190015 -2.3218468724614553e-15
  outer loop
    vertex 79.56683562830672 -74.91523385537104 -10.641165919443658
    vertex 80.02473012370517 -75.84375203931421 -12.441165919443694
    vertex 79.56683562830669 -74.91523385537101 -12.44116591944366
  endloop
endfacet
facet normal 0.9469301294951056 0.321439465303162 -5.015967871182466e-15
  outer loop
    vertex 80.35751132526217 -76.82409384639972 -12.441165919443721
    vertex 80.0247301237052 -75.84375203931424 -10.641165919443692
    vertex 80.3575113252622 -76.82409384639976 -10.641165919443718
  endloop
endfacet
facet normal 0.9469301294951056 0.321439465303162 -5.015967871182466e-15
  outer loop
    vertex 80.0247301237052 -75.84375203931424 -10.641165919443692
    vertex 80.35751132526217 -76.82409384639972 -12.441165919443721
    vertex 80.02473012370517 -75.84375203931421 -12.441165919443694
  endloop
endfacet
facet normal 0.9807852804032324 0.19509032201611906 -7.624264268938713e-15
  outer loop
    vertex 80.55948525435464 -77.83948535650622 -12.441165919443753
    vertex 80.3575113252622 -76.82409384639976 -10.641165919443718
    vertex 80.55948525435467 -77.83948535650624 -10.64116591944375
  endloop
endfacet
facet normal 0.9807852804032324 0.19509032201611906 -7.624264268938713e-15
  outer loop
    vertex 80.3575113252622 -76.82409384639976 -10.641165919443718
    vertex 80.55948525435464 -77.83948535650622 -12.441165919443753
    vertex 80.35751132526217 -76.82409384639972 -12.441165919443721
  endloop
endfacet
facet normal 0.997858923238603 0.06540312923015011 -1.0102107391207506e-14
  outer loop
    vertex 80.62719608105812 -78.87255293937605 -12.441165919443781
    vertex 80.55948525435467 -77.83948535650624 -10.64116591944375
    vertex 80.62719608105813 -78.87255293937609 -10.641165919443779
  endloop
endfacet
facet normal 0.997858923238603 0.06540312923015011 -1.0102107391207506e-14
  outer loop
    vertex 80.55948525435467 -77.83948535650624 -10.64116591944375
    vertex 80.62719608105812 -78.87255293937605 -12.441165919443781
    vertex 80.55948525435464 -77.83948535650622 -12.441165919443753
  endloop
endfacet
facet normal 1.0 -8.921875791131356e-30 -1.1278752698494042e-14
  outer loop
    vertex 80.62719608105812 -83.26325993937607 -12.441165919443778
    vertex 80.62719608105813 -78.87255293937609 -10.641165919443779
    vertex 80.62719608105813 -83.2632599393761 -10.641165919443775
  endloop
endfacet
facet normal 1.0 -8.921875791131356e-30 -1.1278752698494042e-14
  outer loop
    vertex 80.62719608105813 -78.87255293937609 -10.641165919443779
    vertex 80.62719608105812 -83.26325993937607 -12.441165919443778
    vertex 80.62719608105812 -78.87255293937605 -12.441165919443781
  endloop
endfacet
facet normal 0.997858923238603 -0.06540312923014993 -1.240710065517999e-14
  outer loop
    vertex 80.55948525435464 -84.2963275222459 -12.441165919443806
    vertex 80.62719608105813 -83.2632599393761 -10.641165919443775
    vertex 80.55948525435467 -84.29632752224593 -10.641165919443804
  endloop
endfacet
facet normal 0.997858923238603 -0.06540312923014993 -1.240710065517999e-14
  outer loop
    vertex 80.62719608105813 -83.2632599393761 -10.641165919443775
    vertex 80.55948525435464 -84.2963275222459 -12.441165919443806
    vertex 80.62719608105812 -83.26325993937607 -12.441165919443778
  endloop
endfacet
facet normal 0.9807852804032324 -0.19509032201611906 -1.4499804987043668e-14
  outer loop
    vertex 80.35751132526217 -85.3117190323524 -12.441165919443828
    vertex 80.55948525435467 -84.29632752224593 -10.641165919443804
    vertex 80.3575113252622 -85.31171903235244 -10.641165919443825
  endloop
endfacet
facet normal 0.9807852804032324 -0.19509032201611906 -1.4499804987043668e-14
  outer loop
    vertex 80.55948525435467 -84.29632752224593 -10.641165919443804
    vertex 80.35751132526217 -85.3117190323524 -12.441165919443828
    vertex 80.55948525435464 -84.2963275222459 -12.441165919443806
  endloop
endfacet
facet normal 0.9469301294951051 -0.3214394653031632 -1.6344413635474012e-14
  outer loop
    vertex 80.02473012370517 -86.29206083943791 -12.441165919443854
    vertex 80.3575113252622 -85.31171903235244 -10.641165919443825
    vertex 80.0247301237052 -86.29206083943794 -10.641165919443852
  endloop
endfacet
facet normal 0.9469301294951051 -0.3214394653031632 -1.6344413635474012e-14
  outer loop
    vertex 80.3575113252622 -85.31171903235244 -10.641165919443825
    vertex 80.02473012370517 -86.29206083943791 -12.441165919443854
    vertex 80.35751132526217 -85.3117190323524 -12.441165919443828
  endloop
endfacet
facet normal 0.8968727415326877 -0.44228869021900263 -1.7909364835073668e-14
  outer loop
    vertex 79.56683562830669 -87.2205790233811 -12.441165919443876
    vertex 80.0247301237052 -86.29206083943794 -10.641165919443852
    vertex 79.56683562830672 -87.22057902338115 -10.641165919443873
  endloop
endfacet
facet normal 0.8968727415326877 -0.44228869021900263 -1.7909364835073668e-14
  outer loop
    vertex 80.0247301237052 -86.29206083943794 -10.641165919443852
    vertex 79.56683562830669 -87.2205790233811 -12.441165919443876
    vertex 80.02473012370517 -86.29206083943791 -12.441165919443854
  endloop
endfacet
facet normal 0.8314696123025455 -0.5555702330196018 -1.9167881836931184e-14
  outer loop
    vertex 78.99166254083534 -88.08138638062084 -12.441165919443893
    vertex 79.56683562830672 -87.22057902338115 -10.641165919443873
    vertex 78.99166254083535 -88.08138638062087 -10.64116591944389
  endloop
endfacet
facet normal 0.8314696123025455 -0.5555702330196018 -1.9167881836931184e-14
  outer loop
    vertex 79.56683562830672 -87.22057902338115 -10.641165919443873
    vertex 78.99166254083534 -88.08138638062084 -12.441165919443893
    vertex 79.56683562830669 -87.2205790233811 -12.441165919443876
  endloop
endfacet
facet normal 0.7518398074789749 -0.6593458151000718 -2.009843106621801e-14
  outer loop
    vertex 78.30905223228582 -88.85975425861386 -12.441165919443902
    vertex 78.99166254083535 -88.08138638062087 -10.64116591944389
    vertex 78.30905223228585 -88.85975425861389 -10.6411659194439
  endloop
endfacet
facet normal 0.7518398074789749 -0.6593458151000718 -2.009843106621801e-14
  outer loop
    vertex 78.99166254083535 -88.08138638062087 -10.64116591944389
    vertex 78.30905223228582 -88.85975425861386 -12.441165919443902
    vertex 78.99166254083534 -88.08138638062084 -12.441165919443893
  endloop
endfacet
facet normal 0.6593458151000687 -0.7518398074789775 -2.0685090567623967e-14
  outer loop
    vertex 78.30905223228582 -88.85975425861386 -12.441165919443902
    vertex 77.53068435429283 -89.5423645671634 -10.641165919443912
    vertex 77.5306843542928 -89.54236456716336 -12.441165919443915
  endloop
endfacet
facet normal 0.6593458151000687 -0.7518398074789775 -2.0685090567623967e-14
  outer loop
    vertex 77.53068435429283 -89.5423645671634 -10.641165919443912
    vertex 78.30905223228582 -88.85975425861386 -12.441165919443902
    vertex 78.30905223228585 -88.85975425861389 -10.6411659194439
  endloop
endfacet
facet normal 0.5555702330196021 -0.8314696123025453 -2.0917822434427324e-14
  outer loop
    vertex 77.5306843542928 -89.54236456716336 -12.441165919443915
    vertex 76.6698769970531 -90.11753765463476 -10.641165919443917
    vertex 76.66987699705307 -90.11753765463472 -12.44116591944392
  endloop
endfacet
facet normal 0.5555702330196021 -0.8314696123025453 -2.0917822434427324e-14
  outer loop
    vertex 76.6698769970531 -90.11753765463476 -10.641165919443917
    vertex 77.5306843542928 -89.54236456716336 -12.441165919443915
    vertex 77.53068435429283 -89.5423645671634 -10.641165919443912
  endloop
endfacet
facet normal 0.44228869021900374 -0.8968727415326871 -2.0792644559861605e-14
  outer loop
    vertex 76.6698769970531 -90.11753765463476 -10.641165919443917
    vertex 75.74135881310987 -90.57543215003321 -12.441165919443918
    vertex 76.66987699705307 -90.11753765463472 -12.44116591944392
  endloop
endfacet
facet normal 0.44228869021900374 -0.8968727415326871 -2.0792644559861605e-14
  outer loop
    vertex 75.74135881310987 -90.57543215003321 -12.441165919443918
    vertex 76.6698769970531 -90.11753765463476 -10.641165919443917
    vertex 75.7413588131099 -90.57543215003324 -10.641165919443916
  endloop
endfacet
facet normal 0.32143946530316136 -0.9469301294951059 -2.0311698772066468e-14
  outer loop
    vertex 75.7413588131099 -90.57543215003324 -10.641165919443916
    vertex 74.76101700602436 -90.9082133515902 -12.441165919443918
    vertex 75.74135881310987 -90.57543215003321 -12.441165919443918
  endloop
endfacet
facet normal 0.32143946530316136 -0.9469301294951059 -2.0311698772066468e-14
  outer loop
    vertex 74.76101700602436 -90.9082133515902 -12.441165919443918
    vertex 75.7413588131099 -90.57543215003324 -10.641165919443916
    vertex 74.76101700602439 -90.90821335159023 -10.641165919443916
  endloop
endfacet
facet normal 0.19509032201612925 -0.9807852804032303 -1.948321418681448e-14
  outer loop
    vertex 74.76101700602439 -90.90821335159023 -10.641165919443916
    vertex 73.74562549591788 -91.1101872806827 -12.441165919443913
    vertex 74.76101700602436 -90.9082133515902 -12.441165919443918
  endloop
endfacet
facet normal 0.19509032201612925 -0.9807852804032303 -1.948321418681448e-14
  outer loop
    vertex 73.74562549591788 -91.1101872806827 -12.441165919443913
    vertex 74.76101700602439 -90.90821335159023 -10.641165919443916
    vertex 73.74562549591789 -91.11018728068272 -10.64116591944391
  endloop
endfacet
facet normal 0.06540312923014503 -0.9978589232386034 -1.8321366405058606e-14
  outer loop
    vertex 73.74562549591789 -91.11018728068272 -10.64116591944391
    vertex 72.71255791304803 -91.17789810738614 -12.441165919443902
    vertex 73.74562549591788 -91.1101872806827 -12.441165919443913
  endloop
endfacet
facet normal 0.06540312923014503 -0.9978589232386034 -1.8321366405058606e-14
  outer loop
    vertex 72.71255791304803 -91.17789810738614 -12.441165919443902
    vertex 73.74562549591789 -91.11018728068272 -10.64116591944391
    vertex 72.71255791304806 -91.17789810738617 -10.6411659194439
  endloop
endfacet
facet normal -0.06540312923014233 -0.9978589232386037 -1.6846034964469736e-14
  outer loop
    vertex 72.71255791304806 -91.17789810738617 -10.6411659194439
    vertex 71.6794903301782 -91.1101872806827 -12.44116591944389
    vertex 72.71255791304803 -91.17789810738614 -12.441165919443902
  endloop
endfacet
facet normal -0.06540312923014233 -0.9978589232386037 -1.6846034964469736e-14
  outer loop
    vertex 71.6794903301782 -91.1101872806827 -12.44116591944389
    vertex 72.71255791304806 -91.17789810738617 -10.6411659194439
    vertex 71.67949033017821 -91.11018728068272 -10.641165919443887
  endloop
endfacet
facet normal -0.19509032201612586 -0.980785280403231 -1.508246319503555e-14
  outer loop
    vertex 71.67949033017821 -91.11018728068272 -10.641165919443887
    vertex 70.66409882007169 -90.9082133515902 -12.441165919443874
    vertex 71.6794903301782 -91.1101872806827 -12.44116591944389
  endloop
endfacet
facet normal -0.19509032201612586 -0.980785280403231 -1.508246319503555e-14
  outer loop
    vertex 70.66409882007169 -90.9082133515902 -12.441165919443874
    vertex 71.67949033017821 -91.11018728068272 -10.641165919443887
    vertex 70.66409882007171 -90.90821335159023 -10.641165919443871
  endloop
endfacet
facet normal -0.3214394653031635 -0.946930129495105 -1.3060826298685407e-14
  outer loop
    vertex 70.66409882007171 -90.90821335159023 -10.641165919443871
    vertex 69.68375701298619 -90.57543215003321 -12.44116591944385
    vertex 70.66409882007169 -90.9082133515902 -12.441165919443874
  endloop
endfacet
facet normal -0.3214394653031635 -0.946930129495105 -1.3060826298685407e-14
  outer loop
    vertex 69.68375701298619 -90.57543215003321 -12.44116591944385
    vertex 70.66409882007171 -90.90821335159023 -10.641165919443871
    vertex 69.6837570129862 -90.57543215003324 -10.641165919443848
  endloop
endfacet
facet normal -0.44228869021899714 -0.8968727415326903 -1.0815715043219774e-14
  outer loop
    vertex 69.6837570129862 -90.57543215003324 -10.641165919443848
    vertex 68.75523882904298 -90.11753765463473 -12.44116591944383
    vertex 69.68375701298619 -90.57543215003321 -12.44116591944385
  endloop
endfacet
facet normal -0.44228869021899714 -0.8968727415326903 -1.0815715043219774e-14
  outer loop
    vertex 68.75523882904298 -90.11753765463473 -12.44116591944383
    vertex 69.6837570129862 -90.57543215003324 -10.641165919443848
    vertex 68.75523882904301 -90.11753765463477 -10.641165919443827
  endloop
endfacet
facet normal -0.5555702330196021 -0.8314696123025453 -8.38554390468173e-15
  outer loop
    vertex 68.75523882904301 -90.11753765463477 -10.641165919443827
    vertex 67.89443147180324 -89.54236456716337 -12.441165919443801
    vertex 68.75523882904298 -90.11753765463473 -12.44116591944383
  endloop
endfacet
facet normal -0.5555702330196021 -0.8314696123025453 -8.38554390468173e-15
  outer loop
    vertex 67.89443147180324 -89.54236456716337 -12.441165919443801
    vertex 68.75523882904301 -90.11753765463477 -10.641165919443827
    vertex 67.89443147180327 -89.5423645671634 -10.641165919443798
  endloop
endfacet
facet normal -0.6593458151000664 -0.7518398074789795 -5.811893785022725e-15
  outer loop
    vertex 67.89443147180327 -89.5423645671634 -10.641165919443798
    vertex 67.11606359381022 -88.85975425861388 -12.44116591944378
    vertex 67.89443147180324 -89.54236456716337 -12.441165919443801
  endloop
endfacet
facet normal -0.6593458151000664 -0.7518398074789795 -5.811893785022725e-15
  outer loop
    vertex 67.11606359381022 -88.85975425861388 -12.44116591944378
    vertex 67.89443147180327 -89.5423645671634 -10.641165919443798
    vertex 67.11606359381025 -88.8597542586139 -10.641165919443777
  endloop
endfacet
facet normal -0.7518398074789744 -0.6593458151000725 -3.1388005513405768e-15
  outer loop
    vertex 66.43345328526074 -88.0813863806209 -10.641165919443743
    vertex 67.11606359381022 -88.85975425861388 -12.44116591944378
    vertex 67.11606359381025 -88.8597542586139 -10.641165919443777
  endloop
endfacet
facet normal -0.7518398074789744 -0.6593458151000725 -3.1388005513405768e-15
  outer loop
    vertex 67.11606359381022 -88.85975425861388 -12.44116591944378
    vertex 66.43345328526074 -88.0813863806209 -10.641165919443743
    vertex 66.43345328526073 -88.08138638062086 -12.441165919443746
  endloop
endfacet
facet normal -0.8314696123025455 -0.5555702330196018 -4.1200156998492867e-16
  outer loop
    vertex 65.85828019778938 -87.22057902338115 -10.641165919443715
    vertex 66.43345328526073 -88.08138638062086 -12.441165919443746
    vertex 66.43345328526074 -88.0813863806209 -10.641165919443743
  endloop
endfacet
facet normal -0.8314696123025455 -0.5555702330196018 -4.1200156998492867e-16
  outer loop
    vertex 66.43345328526073 -88.08138638062086 -12.441165919443746
    vertex 65.85828019778938 -87.22057902338115 -10.641165919443715
    vertex 65.85828019778936 -87.22057902338112 -12.441165919443717
  endloop
endfacet
facet normal -0.8968727415326877 -0.44228869021900263 2.321846872461431e-15
  outer loop
    vertex 65.4003857023909 -86.29206083943795 -10.641165919443683
    vertex 65.85828019778936 -87.22057902338112 -12.441165919443717
    vertex 65.85828019778938 -87.22057902338115 -10.641165919443715
  endloop
endfacet
facet normal -0.8968727415326877 -0.44228869021900263 2.321846872461431e-15
  outer loop
    vertex 65.85828019778936 -87.22057902338112 -12.441165919443717
    vertex 65.4003857023909 -86.29206083943795 -10.641165919443683
    vertex 65.40038570239088 -86.29206083943792 -12.441165919443685
  endloop
endfacet
facet normal -0.9469301294951049 -0.32143946530316403 5.015967871182422e-15
  outer loop
    vertex 65.06760450083391 -85.31171903235244 -10.641165919443655
    vertex 65.40038570239088 -86.29206083943792 -12.441165919443685
    vertex 65.4003857023909 -86.29206083943795 -10.641165919443683
  endloop
endfacet
facet normal -0.9469301294951049 -0.32143946530316403 5.015967871182422e-15
  outer loop
    vertex 65.40038570239088 -86.29206083943792 -12.441165919443685
    vertex 65.06760450083391 -85.31171903235244 -10.641165919443655
    vertex 65.06760450083388 -85.31171903235241 -12.441165919443657
  endloop
endfacet
facet normal -0.9807852804032302 -0.19509032201613005 7.624264268938494e-15
  outer loop
    vertex 64.86563057174142 -84.29632752224596 -10.641165919443623
    vertex 65.06760450083388 -85.31171903235241 -12.441165919443657
    vertex 65.06760450083391 -85.31171903235244 -10.641165919443655
  endloop
endfacet
facet normal -0.9807852804032302 -0.19509032201613005 7.624264268938494e-15
  outer loop
    vertex 65.06760450083388 -85.31171903235241 -12.441165919443657
    vertex 64.86563057174142 -84.29632752224596 -10.641165919443623
    vertex 64.86563057174139 -84.29632752224593 -12.441165919443625
  endloop
endfacet
facet normal -0.997858923238603 -0.06540312923015011 1.0102107391207506e-14
  outer loop
    vertex 64.79791974503796 -83.26325993937611 -10.641165919443594
    vertex 64.86563057174139 -84.29632752224593 -12.441165919443625
    vertex 64.86563057174142 -84.29632752224596 -10.641165919443623
  endloop
endfacet
facet normal -0.997858923238603 -0.06540312923015011 1.0102107391207506e-14
  outer loop
    vertex 64.86563057174139 -84.29632752224593 -12.441165919443625
    vertex 64.79791974503796 -83.26325993937611 -10.641165919443594
    vertex 64.79791974503793 -83.26325993937608 -12.441165919443597
  endloop
endfacet
facet normal -1.0 8.921875791131356e-30 1.1278752698494042e-14
  outer loop
    vertex 64.79791974503796 -78.8725529393761 -10.6411659194436
    vertex 64.79791974503793 -83.26325993937608 -12.441165919443597
    vertex 64.79791974503796 -83.26325993937611 -10.641165919443594
  endloop
endfacet
facet normal -1.0 8.921875791131356e-30 1.1278752698494042e-14
  outer loop
    vertex 64.79791974503793 -83.26325993937608 -12.441165919443597
    vertex 64.79791974503796 -78.8725529393761 -10.6411659194436
    vertex 64.79791974503793 -78.87255293937608 -12.441165919443602
  endloop
endfacet
facet normal -0.9978589232386038 0.06540312923013926 1.240710065517981e-14
  outer loop
    vertex 64.8656305717414 -77.83948535650627 -10.641165919443571
    vertex 64.79791974503793 -78.87255293937608 -12.441165919443602
    vertex 64.79791974503796 -78.8725529393761 -10.6411659194436
  endloop
endfacet
facet normal -0.9978589232386038 0.06540312923013926 1.240710065517981e-14
  outer loop
    vertex 64.79791974503793 -78.87255293937608 -12.441165919443602
    vertex 64.8656305717414 -77.83948535650627 -10.641165919443571
    vertex 64.86563057174138 -77.83948535650623 -12.441165919443574
  endloop
endfacet
facet normal -0.9807852804032302 0.19509032201612952 1.4499804987043826e-14
  outer loop
    vertex 65.0676045008339 -76.82409384639978 -10.64116591944355
    vertex 64.86563057174138 -77.83948535650623 -12.441165919443574
    vertex 64.8656305717414 -77.83948535650627 -10.641165919443571
  endloop
endfacet
facet normal -0.9807852804032302 0.19509032201612952 1.4499804987043826e-14
  outer loop
    vertex 64.86563057174138 -77.83948535650623 -12.441165919443574
    vertex 65.0676045008339 -76.82409384639978 -10.64116591944355
    vertex 65.06760450083388 -76.82409384639975 -12.441165919443552
  endloop
endfacet
facet normal -0.9469301294951052 0.3214394653031628 1.6344413635474012e-14
  outer loop
    vertex 65.40038570239089 -75.84375203931427 -10.641165919443523
    vertex 65.06760450083388 -76.82409384639975 -12.441165919443552
    vertex 65.0676045008339 -76.82409384639978 -10.64116591944355
  endloop
endfacet
facet normal -0.9469301294951052 0.3214394653031628 1.6344413635474012e-14
  outer loop
    vertex 65.06760450083388 -76.82409384639975 -12.441165919443552
    vertex 65.40038570239089 -75.84375203931427 -10.641165919443523
    vertex 65.40038570239086 -75.84375203931424 -12.441165919443526
  endloop
endfacet
facet normal -0.8968727415326925 0.44228869021899275 1.7909364835073545e-14
  outer loop
    vertex 65.85828019778936 -74.91523385537107 -10.641165919443505
    vertex 65.40038570239086 -75.84375203931424 -12.441165919443526
    vertex 65.40038570239089 -75.84375203931427 -10.641165919443523
  endloop
endfacet
facet normal -0.8968727415326925 0.44228869021899275 1.7909364835073545e-14
  outer loop
    vertex 65.40038570239086 -75.84375203931424 -12.441165919443526
    vertex 65.85828019778936 -74.91523385537107 -10.641165919443505
    vertex 65.85828019778934 -74.91523385537104 -12.441165919443508
  endloop
endfacet
facet normal -0.8314696123025463 0.5555702330196006 1.916788183693117e-14
  outer loop
    vertex 66.43345328526073 -74.05442649813132 -10.641165919443484
    vertex 65.85828019778934 -74.91523385537104 -12.441165919443508
    vertex 65.85828019778936 -74.91523385537107 -10.641165919443505
  endloop
endfacet
facet normal -0.8314696123025463 0.5555702330196006 1.916788183693117e-14
  outer loop
    vertex 65.85828019778934 -74.91523385537104 -12.441165919443508
    vertex 66.43345328526073 -74.05442649813132 -10.641165919443484
    vertex 66.4334532852607 -74.0544264981313 -12.441165919443485
  endloop
endfacet
facet normal -0.7518398074789808 0.659345815100065 2.009843106621796e-14
  outer loop
    vertex 67.11606359381021 -73.2760586201383 -10.641165919443473
    vertex 66.4334532852607 -74.0544264981313 -12.441165919443485
    vertex 66.43345328526073 -74.05442649813132 -10.641165919443484
  endloop
endfacet
facet normal -0.7518398074789808 0.659345815100065 2.009843106621796e-14
  outer loop
    vertex 66.4334532852607 -74.0544264981313 -12.441165919443485
    vertex 67.11606359381021 -73.2760586201383 -10.641165919443473
    vertex 67.1160635938102 -73.27605862013827 -12.441165919443476
  endloop
endfacet
facet normal -0.6593458151000695 0.7518398074789767 2.068509056762396e-14
  outer loop
    vertex 67.11606359381021 -73.2760586201383 -10.641165919443473
    vertex 67.89443147180322 -72.59344831158877 -12.441165919443465
    vertex 67.1160635938102 -73.27605862013827 -12.441165919443476
  endloop
endfacet
facet normal -0.6593458151000695 0.7518398074789767 2.068509056762396e-14
  outer loop
    vertex 67.89443147180322 -72.59344831158877 -12.441165919443465
    vertex 67.11606359381021 -73.2760586201383 -10.641165919443473
    vertex 67.89443147180323 -72.59344831158882 -10.641165919443463
  endloop
endfacet
facet normal 0.8860014125562391 0.4636825389728936 -1.8222416434964866e-15
  outer loop
    vertex 70.15250109926819 -76.90815225540337 -12.441165919443607
    vertex 67.89443147180323 -72.59344831158882 -10.641165919443463
    vertex 70.1525010992682 -76.90815225540341 -10.641165919443607
  endloop
endfacet
facet normal 0.8860014125562391 0.4636825389728936 -1.8222416434964866e-15
  outer loop
    vertex 67.89443147180323 -72.59344831158882 -10.641165919443463
    vertex 70.15250109926819 -76.90815225540337 -12.441165919443607
    vertex 67.89443147180322 -72.59344831158877 -12.441165919443465
  endloop
endfacet
facet normal 0.8314696123025362 -0.5555702330196157 -1.916788183693132e-14
  outer loop
    vertex 69.91799699892756 -77.25911244334182 -12.441165919443614
    vertex 70.1525010992682 -76.90815225540341 -10.641165919443607
    vertex 69.91799699892759 -77.25911244334185 -10.641165919443612
  endloop
endfacet
facet normal 0.8314696123025362 -0.5555702330196157 -1.916788183693132e-14
  outer loop
    vertex 70.1525010992682 -76.90815225540341 -10.641165919443607
    vertex 69.91799699892756 -77.25911244334182 -12.441165919443614
    vertex 70.15250109926819 -76.90815225540337 -12.441165919443607
  endloop
endfacet
facet normal 0.8968727415326907 -0.4422886902189963 -1.790936483507359e-14
  outer loop
    vertex 69.73130861062621 -77.63767904549763 -12.441165919443623
    vertex 69.91799699892759 -77.25911244334185 -10.641165919443612
    vertex 69.73130861062624 -77.63767904549765 -10.64116591944362
  endloop
endfacet
facet normal 0.8968727415326907 -0.4422886902189963 -1.790936483507359e-14
  outer loop
    vertex 69.91799699892759 -77.25911244334185 -10.641165919443612
    vertex 69.73130861062621 -77.63767904549763 -12.441165919443623
    vertex 69.91799699892756 -77.25911244334182 -12.441165919443614
  endloop
endfacet
facet normal 0.946930129495108 -0.321439465303155 -1.6344413635473898e-14
  outer loop
    vertex 69.59563022444777 -78.03737468234942 -12.441165919443636
    vertex 69.73130861062624 -77.63767904549765 -10.64116591944362
    vertex 69.5956302244478 -78.03737468234945 -10.641165919443633
  endloop
endfacet
facet normal 0.946930129495108 -0.321439465303155 -1.6344413635473898e-14
  outer loop
    vertex 69.73130861062624 -77.63767904549765 -10.64116591944362
    vertex 69.59563022444777 -78.03737468234942 -12.441165919443636
    vertex 69.73130861062621 -77.63767904549763 -12.441165919443623
  endloop
endfacet
facet normal 0.9807852804032302 -0.19509032201612947 -1.4499804987043826e-14
  outer loop
    vertex 69.51328333519689 -78.4513604507341 -12.441165919443641
    vertex 69.5956302244478 -78.03737468234945 -10.641165919443633
    vertex 69.51328333519692 -78.45136045073413 -10.641165919443639
  endloop
endfacet
facet normal 0.9807852804032302 -0.19509032201612947 -1.4499804987043826e-14
  outer loop
    vertex 69.5956302244478 -78.03737468234945 -10.641165919443633
    vertex 69.51328333519689 -78.4513604507341 -12.441165919443641
    vertex 69.59563022444777 -78.03737468234942 -12.441165919443636
  endloop
endfacet
facet normal 0.9978589232386035 -0.06540312923014352 -1.2407100655179879e-14
  outer loop
    vertex 69.48567692097953 -78.87255293937605 -12.441165919443652
    vertex 69.51328333519692 -78.45136045073413 -10.641165919443639
    vertex 69.48567692097954 -78.87255293937609 -10.64116591944365
  endloop
endfacet
facet normal 0.9978589232386035 -0.06540312923014352 -1.2407100655179879e-14
  outer loop
    vertex 69.51328333519692 -78.45136045073413 -10.641165919443639
    vertex 69.48567692097953 -78.87255293937605 -12.441165919443652
    vertex 69.51328333519689 -78.4513604507341 -12.441165919443641
  endloop
endfacet
facet normal 0.9978589232386035 0.06540312923014309 -1.0102107391207636e-14
  outer loop
    vertex 69.51328333519689 -79.29374542801803 -12.44116591944367
    vertex 69.48567692097954 -78.87255293937609 -10.64116591944365
    vertex 69.51328333519692 -79.29374542801806 -10.641165919443667
  endloop
endfacet
facet normal 0.9978589232386035 0.06540312923014309 -1.0102107391207636e-14
  outer loop
    vertex 69.48567692097954 -78.87255293937609 -10.64116591944365
    vertex 69.51328333519689 -79.29374542801803 -12.44116591944367
    vertex 69.48567692097953 -78.87255293937605 -12.441165919443652
  endloop
endfacet
facet normal 0.9807852804032305 0.19509032201612822 -7.624264268938531e-15
  outer loop
    vertex 69.59563022444777 -79.7077311964027 -12.441165919443678
    vertex 69.51328333519692 -79.29374542801806 -10.641165919443667
    vertex 69.5956302244478 -79.70773119640273 -10.641165919443676
  endloop
endfacet
facet normal 0.9807852804032305 0.19509032201612822 -7.624264268938531e-15
  outer loop
    vertex 69.51328333519692 -79.29374542801806 -10.641165919443667
    vertex 69.59563022444777 -79.7077311964027 -12.441165919443678
    vertex 69.51328333519689 -79.29374542801803 -12.44116591944367
  endloop
endfacet
facet normal 0.9469301294951072 0.32143946530315703 -5.015967871182572e-15
  outer loop
    vertex 69.73130861062621 -80.10742683325451 -12.44116591944369
    vertex 69.5956302244478 -79.70773119640273 -10.641165919443676
    vertex 69.73130861062624 -80.10742683325452 -10.641165919443688
  endloop
endfacet
facet normal 0.9469301294951072 0.32143946530315703 -5.015967871182572e-15
  outer loop
    vertex 69.5956302244478 -79.70773119640273 -10.641165919443676
    vertex 69.73130861062621 -80.10742683325451 -12.44116591944369
    vertex 69.59563022444777 -79.7077311964027 -12.441165919443678
  endloop
endfacet
facet normal 0.8968727415326809 0.4422886902190165 -2.321846872461108e-15
  outer loop
    vertex 69.91799699892758 -80.48599343541031 -12.441165919443701
    vertex 69.73130861062624 -80.10742683325452 -10.641165919443688
    vertex 69.9179969989276 -80.48599343541034 -10.641165919443699
  endloop
endfacet
facet normal 0.8968727415326809 0.4422886902190165 -2.321846872461108e-15
  outer loop
    vertex 69.73130861062624 -80.10742683325452 -10.641165919443688
    vertex 69.91799699892758 -80.48599343541031 -12.441165919443701
    vertex 69.73130861062621 -80.10742683325451 -12.44116591944369
  endloop
endfacet
facet normal 0.8314696123025476 0.5555702330195988 4.1200156998485057e-16
  outer loop
    vertex 70.15250109926819 -80.83695362334875 -12.441165919443717
    vertex 69.9179969989276 -80.48599343541034 -10.641165919443699
    vertex 70.1525010992682 -80.83695362334878 -10.641165919443715
  endloop
endfacet
facet normal 0.8314696123025476 0.5555702330195988 4.1200156998485057e-16
  outer loop
    vertex 69.9179969989276 -80.48599343541034 -10.641165919443699
    vertex 70.15250109926819 -80.83695362334875 -12.441165919443717
    vertex 69.91799699892758 -80.48599343541031 -12.441165919443701
  endloop
endfacet
facet normal 0.7518398074789797 0.6593458151000662 3.1388005513404036e-15
  outer loop
    vertex 70.43080848147441 -81.15430237094967 -12.441165919443728
    vertex 70.1525010992682 -80.83695362334878 -10.641165919443715
    vertex 70.43080848147444 -81.15430237094971 -10.641165919443726
  endloop
endfacet
facet normal 0.7518398074789797 0.6593458151000662 3.1388005513404036e-15
  outer loop
    vertex 70.1525010992682 -80.83695362334878 -10.641165919443715
    vertex 70.43080848147441 -81.15430237094967 -12.441165919443728
    vertex 70.15250109926819 -80.83695362334875 -12.441165919443717
  endloop
endfacet
facet normal 0.6593458151000695 0.7518398074789768 5.811893785022645e-15
  outer loop
    vertex 70.43080848147441 -81.15430237094967 -12.441165919443728
    vertex 70.74815722907535 -81.43260975315593 -10.641165919443736
    vertex 70.74815722907533 -81.4326097531559 -12.441165919443739
  endloop
endfacet
facet normal 0.6593458151000695 0.7518398074789768 5.811893785022645e-15
  outer loop
    vertex 70.74815722907535 -81.43260975315593 -10.641165919443736
    vertex 70.43080848147441 -81.15430237094967 -12.441165919443728
    vertex 70.43080848147444 -81.15430237094971 -10.641165919443726
  endloop
endfacet
facet normal 0.5555702330196018 0.8314696123025455 8.385543904681735e-15
  outer loop
    vertex 70.74815722907533 -81.4326097531559 -12.441165919443739
    vertex 71.0991174170138 -81.66711385349655 -10.641165919443749
    vertex 71.09911741701377 -81.6671138534965 -12.441165919443751
  endloop
endfacet
facet normal 0.5555702330196018 0.8314696123025455 8.385543904681735e-15
  outer loop
    vertex 71.0991174170138 -81.66711385349655 -10.641165919443749
    vertex 70.74815722907533 -81.4326097531559 -12.441165919443739
    vertex 70.74815722907535 -81.43260975315593 -10.641165919443736
  endloop
endfacet
facet normal 0.4422886902190017 0.896872741532688 1.0815715043219682e-14
  outer loop
    vertex 71.09911741701377 -81.6671138534965 -12.441165919443751
    vertex 71.4776840191696 -81.8538022417979 -10.641165919443754
    vertex 71.47768401916959 -81.85380224179785 -12.441165919443756
  endloop
endfacet
facet normal 0.4422886902190017 0.896872741532688 1.0815715043219682e-14
  outer loop
    vertex 71.4776840191696 -81.8538022417979 -10.641165919443754
    vertex 71.09911741701377 -81.6671138534965 -12.441165919443751
    vertex 71.0991174170138 -81.66711385349655 -10.641165919443749
  endloop
endfacet
facet normal 0.32143946530316303 0.9469301294951052 1.3060826298685415e-14
  outer loop
    vertex 71.47768401916959 -81.85380224179785 -12.441165919443756
    vertex 71.8773796560214 -81.98948062797633 -10.641165919443765
    vertex 71.87737965602138 -81.9894806279763 -12.441165919443767
  endloop
endfacet
facet normal 0.32143946530316303 0.9469301294951052 1.3060826298685415e-14
  outer loop
    vertex 71.8773796560214 -81.98948062797633 -10.641165919443765
    vertex 71.47768401916959 -81.85380224179785 -12.441165919443756
    vertex 71.4776840191696 -81.8538022417979 -10.641165919443754
  endloop
endfacet
endsolid 海豹與北極熊-3
