solid 海豹與北極熊-3
facet normal -2.7742223553703515e-07 -0.9999999999998541 -4.63585762114414e-07
  outer loop
    vertex 16.097790924606986 -34.283873165066126 -20.51116468461624
    vertex 13.591069193838083 -34.28387139579779 -23.31144234065812
    vertex 14.59106919383808 -34.28387139579779 -23.31144234065812
  endloop
endfacet
facet normal -2.7742223553703515e-07 -0.9999999999998541 -4.63585762114414e-07
  outer loop
    vertex 13.591069193838083 -34.28387139579779 -23.31144234065812
    vertex 16.097790924606986 -34.283873165066126 -20.51116468461624
    vertex 12.084348326018278 -34.283872327925366 -20.511167367784466
  endloop
endfacet
facet normal 2.0570160314305882e-07 -0.9999999999998725 -4.61106308498321e-07
  outer loop
    vertex 13.37584572643678 -29.981870963322855 -22.911440215206294
    vertex 1.9896629935138097 -29.98187422951801 -20.511169923076558
    vertex 1.9896676664243254 -29.981872626953695 -22.911450415377367
  endloop
endfacet
facet normal 2.0570160314305882e-07 -0.9999999999998725 -4.61106308498321e-07
  outer loop
    vertex 1.9896629935138097 -29.98187422951801 -20.511169923076558
    vertex 13.37584572643678 -29.981870963322855 -22.911440215206294
    vertex 12.084349567021846 -29.98187195662253 -20.51116317432189
  endloop
endfacet
facet normal 1.4398217023613578e-05 2.5529721885080462e-12 0.9999999998963458
  outer loop
    vertex 16.097790924606986 -34.283873165066126 -20.51116468461624
    vertex 12.084349567021846 -29.98187195662253 -20.51116317432189
    vertex 12.084348326018278 -34.283872327925366 -20.511167367784466
  endloop
endfacet
facet normal 1.4398217023613578e-05 2.5529721885080462e-12 0.9999999998963458
  outer loop
    vertex 12.084349567021846 -29.98187195662253 -20.51116317432189
    vertex 16.097790924606986 -34.283873165066126 -20.51116468461624
    vertex 12.084349567021846 4.748375345128186 -20.51116317432189
  endloop
endfacet
facet normal 1.4398217023613578e-05 2.5529721885080462e-12 0.9999999998963458
  outer loop
    vertex 12.084349567021846 4.748375345128186 -20.51116317432189
    vertex 16.097790924606986 9.050376553571779 -20.51116468461624
    vertex 12.084348326018278 9.050375716431018 -20.511167367784466
  endloop
endfacet
facet normal 1.4398217023613578e-05 2.5529721885080462e-12 0.9999999998963458
  outer loop
    vertex 16.097790924606986 9.050376553571779 -20.51116468461624
    vertex 12.084349567021846 4.748375345128186 -20.51116317432189
    vertex 16.097790924606986 -34.283873165066126 -20.51116468461624
  endloop
endfacet
facet normal 1.4398217023613578e-05 2.5529721885080462e-12 0.9999999998963458
  outer loop
    vertex 16.097790924606986 9.050376553571779 -20.51116468461624
    vertex 16.097790924606986 -34.283873165066126 -20.51116468461624
    vertex 16.097792165610553 -29.98187279376329 -20.511160491153664
  endloop
endfacet
facet normal 1.4398217023613578e-05 2.5529721885080462e-12 0.9999999998963458
  outer loop
    vertex 16.097790924606986 9.050376553571779 -20.51116468461624
    vertex 16.097792165610553 -29.98187279376329 -20.511160491153664
    vertex 16.097792165610553 4.748376182268946 -20.511160491153664
  endloop
endfacet
facet normal 1.4398217023613578e-05 2.5529721885080462e-12 0.9999999998963458
  outer loop
    vertex 12.084349567021846 -29.98187195662253 -20.51116317432189
    vertex 1.9896629935138097 4.748377618023663 -20.511169923076558
    vertex 1.9896629935138097 -29.98187422951801 -20.511169923076558
  endloop
endfacet
facet normal 1.4398217023613578e-05 2.5529721885080462e-12 0.9999999998963458
  outer loop
    vertex 1.9896629935138097 4.748377618023663 -20.511169923076558
    vertex 12.084349567021846 -29.98187195662253 -20.51116317432189
    vertex 12.084349567021846 4.748375345128186 -20.51116317432189
  endloop
endfacet
facet normal 0.880618014211513 2.896185396654203e-07 -0.4738268808817075
  outer loop
    vertex 14.59106919383808 -34.28387139579779 -23.31144234065812
    vertex 16.097792165610553 -29.98187279376329 -20.511160491153664
    vertex 16.097790924606986 -34.283873165066126 -20.51116468461624
  endloop
endfacet
facet normal 0.880618014211513 2.896185396654203e-07 -0.4738268808817075
  outer loop
    vertex 16.097792165610553 -29.98187279376329 -20.511160491153664
    vertex 14.59106919383808 -34.28387139579779 -23.31144234065812
    vertex 14.80629473182008 -29.981871072544163 -22.911439900495647
  endloop
endfacet
facet normal 0.880618014211513 2.896185396654203e-07 -0.4738268808817075
  outer loop
    vertex 14.80629473182008 -29.981871072544163 -22.911439900495647
    vertex 14.59106919383808 -34.28387139579779 -23.31144234065812
    vertex 14.59107008344059 -29.58187081002976 -23.31143267764793
  endloop
endfacet
facet normal -9.159355826363522e-06 -0.8480001276052612 -0.5299960221525885
  outer loop
    vertex 1.9897265845706433 -15.116749981887377 -21.710607539127764
    vertex -0.9103263711149794 -14.366730435298452 -22.910596558881394
    vertex 1.9896676777011344 -14.366745632645548 -22.910616477793653
  endloop
endfacet
facet normal -9.159355826363522e-06 -0.8480001276052612 -0.5299960221525885
  outer loop
    vertex -0.9103263711149794 -14.366730435298452 -22.910596558881394
    vertex 1.9897265845706433 -15.116749981887377 -21.710607539127764
    vertex -0.01027341529085588 -15.11673362857037 -21.7105906109498
  endloop
endfacet
facet normal 8.464088986415224e-06 1.2198831624263676e-15 0.9999999999641798
  outer loop
    vertex 1.9897265845706433 -15.116749981887377 -21.710607539127764
    vertex -0.01027341529085588 -10.116762982923976 -21.7105906109498
    vertex -0.01027341529085588 -15.11673362857037 -21.7105906109498
  endloop
endfacet
facet normal 8.464088986415224e-06 1.2198831624263676e-15 0.9999999999641798
  outer loop
    vertex -0.01027341529085588 -10.116762982923976 -21.7105906109498
    vertex 1.9897265845706433 -15.116749981887377 -21.710607539127764
    vertex 1.9897265845706433 -10.116746629606968 -21.710607539127764
  endloop
endfacet
facet normal -0.7999887414587706 5.830768338967464e-11 0.6000150110948996
  outer loop
    vertex -0.01027341529085588 -10.116762982923976 -21.7105906109498
    vertex -0.9103263711149794 -14.366730435298452 -22.910596558881394
    vertex -0.01027341529085588 -15.11673362857037 -21.7105906109498
  endloop
endfacet
facet normal -0.7999887414587706 5.830768338967464e-11 0.6000150110948996
  outer loop
    vertex -0.9103263711149794 -14.366730435298452 -22.910596558881394
    vertex -0.01027341529085588 -10.116762982923976 -21.7105906109498
    vertex -1.2103179032562885 -13.645040774808201 -23.310586273385482
  endloop
endfacet
facet normal -0.7999887414587706 5.830768338967464e-11 0.6000150110948996
  outer loop
    vertex -1.2103179032562885 -13.645040774808201 -23.310586273385482
    vertex -0.01027341529085588 -10.116762982923976 -21.7105906109498
    vertex -1.2103179032562885 -11.588455836686144 -23.310586273385482
  endloop
endfacet
facet normal -0.7999887414587706 5.830768338967464e-11 0.6000150110948996
  outer loop
    vertex -1.2103179032562885 -11.588455836686144 -23.310586273385482
    vertex -0.01027341529085588 -10.116762982923976 -21.7105906109498
    vertex -0.9103263711149794 -10.866766176195894 -22.910596558881394
  endloop
endfacet
facet normal -1.5737418622313453e-07 -0.9999999999997682 -6.624019641434888e-07
  outer loop
    vertex 16.097792165610553 -29.98187279376329 -20.511160491153664
    vertex 14.80629473182008 -29.981871072544163 -22.911439900495647
    vertex 16.097791090876537 -29.981871207256052 -22.91144098370448
  endloop
endfacet
facet normal -0.999999999919885 2.9101468419996734e-12 1.2658212618918524e-05
  outer loop
    vertex 1.9896629935138097 -29.98187422951801 -20.511169923076558
    vertex 1.9897265845706433 -15.116749981887377 -21.710607539127764
    vertex 1.9896676664243254 -29.981872626953695 -22.911450415377367
  endloop
endfacet
facet normal -0.999999999919885 2.9101468419996734e-12 1.2658212618918524e-05
  outer loop
    vertex 1.9897265845706433 -15.116749981887377 -21.710607539127764
    vertex 1.9896629935138097 -29.98187422951801 -20.511169923076558
    vertex 1.9896629935138097 4.748377618023663 -20.511169923076558
  endloop
endfacet
facet normal -0.999999999919885 2.9101468419996734e-12 1.2658212618918524e-05
  outer loop
    vertex 1.9897265845706433 -15.116749981887377 -21.710607539127764
    vertex 1.9896629935138097 4.748377618023663 -20.511169923076558
    vertex 1.9897265845706433 -10.116746629606968 -21.710607539127764
  endloop
endfacet
facet normal -0.999999999919885 2.9101468419996734e-12 1.2658212618918524e-05
  outer loop
    vertex 1.9897265845706433 -10.116746629606968 -21.710607539127764
    vertex 1.9896629935138097 4.748377618023663 -20.511169923076558
    vertex 1.9896676664243254 4.74837601545935 -22.911450415377367
  endloop
endfacet
facet normal -0.999999999919885 2.9101468419996734e-12 1.2658212618918524e-05
  outer loop
    vertex 1.9896676664243254 4.74837601545935 -22.911450415377367
    vertex 1.9896676777011344 -10.866750978848797 -22.910616477793653
    vertex 1.9897265845706433 -10.116746629606968 -21.710607539127764
  endloop
endfacet
facet normal -0.999999999919885 2.9101468419996734e-12 1.2658212618918524e-05
  outer loop
    vertex 1.9896676777011344 -14.366745632645548 -22.910616477793653
    vertex 1.9896676664243254 -29.981872626953695 -22.911450415377367
    vertex 1.9897265845706433 -15.116749981887377 -21.710607539127764
  endloop
endfacet
facet normal 7.159184650722432e-07 -0.7070998766051533 -0.70711368570016
  outer loop
    vertex 2.38966167829258 -29.581872296951495 -23.3114421902875
    vertex 13.37584572643678 -29.981870963322855 -22.911440215206294
    vertex 1.9896676664243254 -29.981872626953695 -22.911450415377367
  endloop
endfacet
facet normal 7.159184650722432e-07 -0.7070998766051533 -0.70711368570016
  outer loop
    vertex 13.37584572643678 -29.981870963322855 -22.911440215206294
    vertex 2.38966167829258 -29.581872296951495 -23.3114421902875
    vertex 13.591070093712862 -29.581870810029756 -23.31143267764824
  endloop
endfacet
facet normal -0.8806180090811315 7.372104526978847e-07 -0.473826890416153
  outer loop
    vertex 12.084349567021846 -29.98187195662253 -20.51116317432189
    vertex 13.591069193838083 -34.28387139579779 -23.31144234065812
    vertex 12.084348326018278 -34.283872327925366 -20.511167367784466
  endloop
endfacet
facet normal -0.8806180090811315 7.372104526978847e-07 -0.473826890416153
  outer loop
    vertex 13.591069193838083 -34.28387139579779 -23.31144234065812
    vertex 12.084349567021846 -29.98187195662253 -20.51116317432189
    vertex 13.37584572643678 -29.981870963322855 -22.911440215206294
  endloop
endfacet
facet normal -0.8806180090811315 7.372104526978847e-07 -0.473826890416153
  outer loop
    vertex 13.591069193838083 -34.28387139579779 -23.31144234065812
    vertex 13.37584572643678 -29.981870963322855 -22.911440215206294
    vertex 13.591070093712862 -29.581870810029756 -23.31143267764824
  endloop
endfacet
facet normal -0.7071266264786856 3.7606745357925e-05 -0.7070869343373601
  outer loop
    vertex 1.9896676777011344 -14.366745632645548 -22.910616477793653
    vertex 2.38966167829258 -29.581872296951495 -23.3114421902875
    vertex 1.9896676664243254 -29.981872626953695 -22.911450415377367
  endloop
endfacet
facet normal -0.7071266264786856 3.7606745357925e-05 -0.7070869343373601
  outer loop
    vertex 2.38966167829258 -29.581872296951495 -23.3114421902875
    vertex 1.9896676777011344 -14.366745632645548 -22.910616477793653
    vertex 2.3896616897619256 -13.64505917234513 -23.310597976443763
  endloop
endfacet
facet normal -6.590781984501861e-06 -0.4847604889017776 -0.8746469392596484
  outer loop
    vertex 2.3896616897619256 -13.64505917234513 -23.310597976443763
    vertex -0.9103263711149794 -14.366730435298452 -22.910596558881394
    vertex -1.2103179032562885 -13.645040774808201 -23.310586273385482
  endloop
endfacet
facet normal -6.590781984501861e-06 -0.4847604889017776 -0.8746469392596484
  outer loop
    vertex -0.9103263711149794 -14.366730435298452 -22.910596558881394
    vertex 2.3896616897619256 -13.64505917234513 -23.310597976443763
    vertex 1.9896676777011344 -14.366745632645548 -22.910616477793653
  endloop
endfacet
facet normal -1.5622888137756967e-06 -0.7071019276025662 -0.7071116347354883
  outer loop
    vertex 16.09779085050381 -29.58187091191109 -23.311437306595106
    vertex 14.80629473182008 -29.981871072544163 -22.911439900495647
    vertex 14.59107008344059 -29.58187081002976 -23.31143267764793
  endloop
endfacet
facet normal -1.5622888137756967e-06 -0.7071019276025662 -0.7071116347354883
  outer loop
    vertex 14.80629473182008 -29.981871072544163 -22.911439900495647
    vertex 16.09779085050381 -29.58187091191109 -23.311437306595106
    vertex 16.097791090876537 -29.981871207256052 -22.91144098370448
  endloop
endfacet
facet normal -4.531666306044233e-05 -1.222800866497987e-07 -0.9999999989731927
  outer loop
    vertex 13.591070093712862 4.348374198535409 -23.31143267764824
    vertex 2.3896616897619256 -11.588437439149216 -23.310597976443763
    vertex 2.38966167829258 4.34837568545715 -23.3114421902875
  endloop
endfacet
facet normal -4.531666306044233e-05 -1.222800866497987e-07 -0.9999999989731927
  outer loop
    vertex 2.3896616897619256 -11.588437439149216 -23.310597976443763
    vertex 13.591070093712862 4.348374198535409 -23.31143267764824
    vertex 2.3896616897619256 -13.64505917234513 -23.310597976443763
  endloop
endfacet
facet normal -4.531666306044233e-05 -1.222800866497987e-07 -0.9999999989731927
  outer loop
    vertex 14.59106919383808 9.050374784303443 -23.31144234065812
    vertex 13.591070093712862 4.348374198535409 -23.31143267764824
    vertex 13.591069193838083 9.050374784303443 -23.31144234065812
  endloop
endfacet
facet normal -4.531666306044233e-05 -1.222800866497987e-07 -0.9999999989731927
  outer loop
    vertex 13.591070093712862 4.348374198535409 -23.31143267764824
    vertex 14.59106919383808 9.050374784303443 -23.31144234065812
    vertex 13.591070093712862 -29.581870810029756 -23.31143267764824
  endloop
endfacet
facet normal -4.531666306044233e-05 -1.222800866497987e-07 -0.9999999989731927
  outer loop
    vertex 13.591070093712862 -29.581870810029756 -23.31143267764824
    vertex 14.59106919383808 -34.28387139579779 -23.31144234065812
    vertex 13.591069193838083 -34.28387139579779 -23.31144234065812
  endloop
endfacet
facet normal -4.531666306044233e-05 -1.222800866497987e-07 -0.9999999989731927
  outer loop
    vertex 14.59106919383808 -34.28387139579779 -23.31144234065812
    vertex 13.591070093712862 -29.581870810029756 -23.31143267764824
    vertex 14.59106919383808 9.050374784303443 -23.31144234065812
  endloop
endfacet
facet normal -4.531666306044233e-05 -1.222800866497987e-07 -0.9999999989731927
  outer loop
    vertex 14.59106919383808 -34.28387139579779 -23.31144234065812
    vertex 14.59106919383808 9.050374784303443 -23.31144234065812
    vertex 14.59107008344059 4.3483741985354145 -23.31143267764793
  endloop
endfacet
facet normal -4.531666306044233e-05 -1.222800866497987e-07 -0.9999999989731927
  outer loop
    vertex 14.59106919383808 -34.28387139579779 -23.31144234065812
    vertex 14.59107008344059 4.3483741985354145 -23.31143267764793
    vertex 14.59107008344059 -29.58187081002976 -23.31143267764793
  endloop
endfacet
facet normal -4.531666306044233e-05 -1.222800866497987e-07 -0.9999999989731927
  outer loop
    vertex 14.59107008344059 -29.58187081002976 -23.31143267764793
    vertex 14.59107008344059 4.3483741985354145 -23.31143267764793
    vertex 16.09779085050381 4.348374300416743 -23.311437306595106
  endloop
endfacet
facet normal -4.531666306044233e-05 -1.222800866497987e-07 -0.9999999989731927
  outer loop
    vertex 14.59107008344059 -29.58187081002976 -23.31143267764793
    vertex 16.09779085050381 4.348374300416743 -23.311437306595106
    vertex 16.09779085050381 -29.58187091191109 -23.311437306595106
  endloop
endfacet
facet normal -4.531666306044233e-05 -1.222800866497987e-07 -0.9999999989731927
  outer loop
    vertex 2.3896616897619256 -13.64505917234513 -23.310597976443763
    vertex 13.591070093712862 -29.581870810029756 -23.31143267764824
    vertex 2.38966167829258 -29.581872296951495 -23.3114421902875
  endloop
endfacet
facet normal -4.531666306044233e-05 -1.222800866497987e-07 -0.9999999989731927
  outer loop
    vertex 13.591070093712862 -29.581870810029756 -23.31143267764824
    vertex 2.3896616897619256 -13.64505917234513 -23.310597976443763
    vertex 13.591070093712862 4.348374198535409 -23.31143267764824
  endloop
endfacet
facet normal -4.531666306044233e-05 -1.222800866497987e-07 -0.9999999989731927
  outer loop
    vertex 2.3896616897619256 -11.588437439149216 -23.310597976443763
    vertex -1.2103179032562885 -13.645040774808201 -23.310586273385482
    vertex -1.2103179032562885 -11.588455836686144 -23.310586273385482
  endloop
endfacet
facet normal -4.531666306044233e-05 -1.222800866497987e-07 -0.9999999989731927
  outer loop
    vertex -1.2103179032562885 -13.645040774808201 -23.310586273385482
    vertex 2.3896616897619256 -11.588437439149216 -23.310597976443763
    vertex 2.3896616897619256 -13.64505917234513 -23.310597976443763
  endloop
endfacet
facet normal -9.159355826363522e-06 0.8480001276052612 -0.5299960221525885
  outer loop
    vertex -0.9103263711149794 -10.866766176195894 -22.910596558881394
    vertex 1.9897265845706433 -10.116746629606968 -21.710607539127764
    vertex 1.9896676777011344 -10.866750978848797 -22.910616477793653
  endloop
endfacet
facet normal -9.159355826363522e-06 0.8480001276052612 -0.5299960221525885
  outer loop
    vertex 1.9897265845706433 -10.116746629606968 -21.710607539127764
    vertex -0.9103263711149794 -10.866766176195894 -22.910596558881394
    vertex -0.01027341529085588 -10.116762982923976 -21.7105906109498
  endloop
endfacet
facet normal -1.573741862231347e-07 0.9999999999997682 -6.624019641434888e-07
  outer loop
    vertex 16.097792165610553 4.748376182268946 -20.511160491153664
    vertex 16.097791090876537 4.748374595761708 -22.91144098370448
    vertex 14.80629473182008 4.748374461049816 -22.911439900495647
  endloop
endfacet
facet normal -1.5622888137756967e-06 0.7071019276025662 -0.7071116347354883
  outer loop
    vertex 14.80629473182008 4.748374461049816 -22.911439900495647
    vertex 16.09779085050381 4.348374300416743 -23.311437306595106
    vertex 14.59107008344059 4.3483741985354145 -23.31143267764793
  endloop
endfacet
facet normal -1.5622888137756967e-06 0.7071019276025662 -0.7071116347354883
  outer loop
    vertex 16.09779085050381 4.348374300416743 -23.311437306595106
    vertex 14.80629473182008 4.748374461049816 -22.911439900495647
    vertex 16.097791090876537 4.748374595761708 -22.91144098370448
  endloop
endfacet
facet normal -6.590781984501861e-06 0.4847604889017776 -0.8746469392596484
  outer loop
    vertex -0.9103263711149794 -10.866766176195894 -22.910596558881394
    vertex 2.3896616897619256 -11.588437439149216 -23.310597976443763
    vertex -1.2103179032562885 -11.588455836686144 -23.310586273385482
  endloop
endfacet
facet normal -6.590781984501861e-06 0.4847604889017776 -0.8746469392596484
  outer loop
    vertex 2.3896616897619256 -11.588437439149216 -23.310597976443763
    vertex -0.9103263711149794 -10.866766176195894 -22.910596558881394
    vertex 1.9896676777011344 -10.866750978848797 -22.910616477793653
  endloop
endfacet
facet normal -0.7071266264786856 -3.7606745357925e-05 -0.7070869343373601
  outer loop
    vertex 1.9896676777011344 -10.866750978848797 -22.910616477793653
    vertex 2.38966167829258 4.34837568545715 -23.3114421902875
    vertex 2.3896616897619256 -11.588437439149216 -23.310597976443763
  endloop
endfacet
facet normal -0.7071266264786856 -3.7606745357925e-05 -0.7070869343373601
  outer loop
    vertex 2.38966167829258 4.34837568545715 -23.3114421902875
    vertex 1.9896676777011344 -10.866750978848797 -22.910616477793653
    vertex 1.9896676664243254 4.74837601545935 -22.911450415377367
  endloop
endfacet
facet normal 7.159184650722432e-07 0.7070998766051533 -0.70711368570016
  outer loop
    vertex 13.37584572643678 4.74837435182851 -22.911440215206294
    vertex 2.38966167829258 4.34837568545715 -23.3114421902875
    vertex 1.9896676664243254 4.74837601545935 -22.911450415377367
  endloop
endfacet
facet normal 7.159184650722432e-07 0.7070998766051533 -0.70711368570016
  outer loop
    vertex 2.38966167829258 4.34837568545715 -23.3114421902875
    vertex 13.37584572643678 4.74837435182851 -22.911440215206294
    vertex 13.591070093712862 4.348374198535409 -23.31143267764824
  endloop
endfacet
facet normal -0.8806180090811315 -7.372104526978844e-07 -0.4738268904161529
  outer loop
    vertex 13.37584572643678 4.74837435182851 -22.911440215206294
    vertex 13.591069193838083 9.050374784303443 -23.31144234065812
    vertex 13.591070093712862 4.348374198535409 -23.31143267764824
  endloop
endfacet
facet normal -0.8806180090811315 -7.372104526978844e-07 -0.4738268904161529
  outer loop
    vertex 13.591069193838083 9.050374784303443 -23.31144234065812
    vertex 13.37584572643678 4.74837435182851 -22.911440215206294
    vertex 12.084349567021846 4.748375345128186 -20.51116317432189
  endloop
endfacet
facet normal -0.8806180090811315 -7.372104526978844e-07 -0.4738268904161529
  outer loop
    vertex 13.591069193838083 9.050374784303443 -23.31144234065812
    vertex 12.084349567021846 4.748375345128186 -20.51116317432189
    vertex 12.084348326018278 9.050375716431018 -20.511167367784466
  endloop
endfacet
facet normal 0.8806180142115129 -2.8961853965656876e-07 -0.4738268808817076
  outer loop
    vertex 14.59106919383808 9.050374784303443 -23.31144234065812
    vertex 14.80629473182008 4.748374461049816 -22.911439900495647
    vertex 14.59107008344059 4.3483741985354145 -23.31143267764793
  endloop
endfacet
facet normal 0.8806180142115129 -2.8961853965656876e-07 -0.4738268808817076
  outer loop
    vertex 14.80629473182008 4.748374461049816 -22.911439900495647
    vertex 14.59106919383808 9.050374784303443 -23.31144234065812
    vertex 16.097792165610553 4.748376182268946 -20.511160491153664
  endloop
endfacet
facet normal 0.8806180142115129 -2.8961853965656876e-07 -0.4738268808817076
  outer loop
    vertex 16.097792165610553 4.748376182268946 -20.511160491153664
    vertex 14.59106919383808 9.050374784303443 -23.31144234065812
    vertex 16.097790924606986 9.050376553571779 -20.51116468461624
  endloop
endfacet
facet normal 0.9999999999395732 1.3987286197251868e-07 -1.0992469437011469e-05
  outer loop
    vertex 16.097791090876537 -29.981871207256052 -22.91144098370448
    vertex 16.097792165610553 4.748376182268946 -20.511160491153664
    vertex 16.097792165610553 -29.98187279376329 -20.511160491153664
  endloop
endfacet
facet normal 0.9999999999395732 1.3987286197251868e-07 -1.0992469437011469e-05
  outer loop
    vertex 16.097792165610553 4.748376182268946 -20.511160491153664
    vertex 16.097791090876537 -29.981871207256052 -22.91144098370448
    vertex 16.09779085050381 -29.58187091191109 -23.311437306595106
  endloop
endfacet
facet normal 0.9999999999395732 1.3987286197251868e-07 -1.0992469437011469e-05
  outer loop
    vertex 16.097792165610553 4.748376182268946 -20.511160491153664
    vertex 16.09779085050381 -29.58187091191109 -23.311437306595106
    vertex 16.09779085050381 4.348374300416743 -23.311437306595106
  endloop
endfacet
facet normal 0.9999999999395732 1.3987286197251868e-07 -1.0992469437011469e-05
  outer loop
    vertex 16.097792165610553 4.748376182268946 -20.511160491153664
    vertex 16.09779085050381 4.348374300416743 -23.311437306595106
    vertex 16.097791090876537 4.748374595761708 -22.91144098370448
  endloop
endfacet
facet normal 2.0570160314305882e-07 0.9999999999998725 -4.61106308498321e-07
  outer loop
    vertex 1.9896629935138097 4.748377618023663 -20.511169923076558
    vertex 13.37584572643678 4.74837435182851 -22.911440215206294
    vertex 1.9896676664243254 4.74837601545935 -22.911450415377367
  endloop
endfacet
facet normal 2.0570160314305882e-07 0.9999999999998725 -4.61106308498321e-07
  outer loop
    vertex 13.37584572643678 4.74837435182851 -22.911440215206294
    vertex 1.9896629935138097 4.748377618023663 -20.511169923076558
    vertex 12.084349567021846 4.748375345128186 -20.51116317432189
  endloop
endfacet
facet normal -2.7742223553703515e-07 0.9999999999998541 -4.63585762114414e-07
  outer loop
    vertex 13.591069193838083 9.050374784303443 -23.31144234065812
    vertex 16.097790924606986 9.050376553571779 -20.51116468461624
    vertex 14.59106919383808 9.050374784303443 -23.31144234065812
  endloop
endfacet
facet normal -2.7742223553703515e-07 0.9999999999998541 -4.63585762114414e-07
  outer loop
    vertex 16.097790924606986 9.050376553571779 -20.51116468461624
    vertex 13.591069193838083 9.050374784303443 -23.31144234065812
    vertex 12.084348326018278 9.050375716431018 -20.511167367784466
  endloop
endfacet
endsolid 海豹與北極熊-3
