solid 海豹與北極熊-3
facet normal 4.2317424606186257e-07 0.9999999999998871 -2.1639128056256752e-07
  outer loop
    vertex 129.261395001614 -139.31747788316065 -14.51359524760035
    vertex 130.06139511376745 -139.3174773457434 -10.465573269765185
    vertex 130.061395001614 -139.31747796046736 -14.513595269764933
  endloop
endfacet
facet normal 4.2317424606186257e-07 0.9999999999998871 -2.1639128056256752e-07
  outer loop
    vertex 130.06139511376745 -139.3174773457434 -10.465573269765185
    vertex 129.261395001614 -139.31747788316065 -14.51359524760035
    vertex 129.26139511376738 -139.31747674597133 -10.465573247600853
  endloop
endfacet
facet normal -0.9999999999999205 3.9777052373488773e-07 2.7705679485855806e-08
  outer loop
    vertex 130.06139511376745 -139.3174773457434 -10.465573269765185
    vertex 130.06139804543645 -131.06709028986876 -14.513596712331687
    vertex 130.061395001614 -139.31747796046736 -14.513595269764933
  endloop
endfacet
facet normal -0.9999999999999205 3.9777052373488773e-07 2.7705679485855806e-08
  outer loop
    vertex 130.06139804543645 -131.06709028986876 -14.513596712331687
    vertex 130.06139511376745 -139.3174773457434 -10.465573269765185
    vertex 130.0613981575899 -131.06708967514479 -10.465574712331934
  endloop
endfacet
facet normal 0.9999999999999356 -3.580843984358345e-07 -2.7705625223036156e-08
  outer loop
    vertex 129.26139782904878 -131.06709055164026 -14.513596851500562
    vertex 129.26139511376738 -139.31747674597133 -10.465573247600853
    vertex 129.261395001614 -139.31747788316065 -14.51359524760035
  endloop
endfacet
facet normal 0.9999999999999356 -3.580843984358345e-07 -2.7705625223036156e-08
  outer loop
    vertex 129.26139511376738 -139.31747674597133 -10.465573247600853
    vertex 129.26139782904878 -131.06709055164026 -14.513596851500562
    vertex 129.26139794120215 -131.067089414451 -10.465574851501065
  endloop
endfacet
facet normal 2.3711395590701425e-08 3.0067189375415297e-07 0.9999999999999547
  outer loop
    vertex 127.13738665060107 -133.31708944880873 -10.465574312752583
    vertex 126.83738676160348 -132.44821070330153 -10.465574537824299
    vertex 126.83738665058057 -133.1170894167644 -10.465574364602528
  endloop
endfacet
facet normal 2.3711395590701425e-08 3.0067189375415297e-07 0.9999999999999547
  outer loop
    vertex 126.83738676160348 -132.44821070330153 -10.465574537824299
    vertex 127.13738665060107 -133.31708944880873 -10.465574312752583
    vertex 128.19939244120215 -131.0670894316299 -10.465574822077455
  endloop
endfacet
facet normal 2.3711395590701425e-08 3.0067189375415297e-07 0.9999999999999547
  outer loop
    vertex 133.18540411227605 -156.46708987824007 -10.465566846701709
    vertex 126.13738550417557 -139.3174772147935 -10.465573422433128
    vertex 126.137382263655 -156.46708851536823 -10.465566651431939
  endloop
endfacet
facet normal 2.3711395590701425e-08 3.0067189375415297e-07 0.9999999999999547
  outer loop
    vertex 126.13738550417557 -139.3174772147935 -10.465573422433128
    vertex 133.18540411227605 -156.46708987824007 -10.465566846701709
    vertex 127.13738550417557 -139.3174774081629 -10.4655734501388
  endloop
endfacet
facet normal 2.3711395590701425e-08 3.0067189375415297e-07 0.9999999999999547
  outer loop
    vertex 127.13738550417557 -139.3174774081629 -10.4655734501388
    vertex 133.18540411227605 -156.46708987824007 -10.465566846701709
    vertex 127.13738665060107 -133.31708944880873 -10.465574312752583
  endloop
endfacet
facet normal 2.3711395590701425e-08 3.0067189375415297e-07 0.9999999999999547
  outer loop
    vertex 127.13738665060107 -133.31708944880873 -10.465574312752583
    vertex 133.18540411227605 -156.46708987824007 -10.465566846701709
    vertex 129.26139511376738 -139.31747674597133 -10.465573247600853
  endloop
endfacet
facet normal 2.3711395590701425e-08 3.0067189375415297e-07 0.9999999999999547
  outer loop
    vertex 127.13738665060107 -133.31708944880873 -10.465574312752583
    vertex 129.26139511376738 -139.31747674597133 -10.465573247600853
    vertex 128.19939244120215 -131.0670894316299 -10.465574822077455
  endloop
endfacet
facet normal 2.3711395590701425e-08 3.0067189375415297e-07 0.9999999999999547
  outer loop
    vertex 129.26139511376738 -139.31747674597133 -10.465573247600853
    vertex 133.18540411227605 -156.46708987824007 -10.465566846701709
    vertex 130.06139511376745 -139.3174773457434 -10.465573269765185
  endloop
endfacet
facet normal 2.3711395590701425e-08 3.0067189375415297e-07 0.9999999999999547
  outer loop
    vertex 130.06139511376745 -139.3174773457434 -10.465573269765185
    vertex 133.18540411227605 -156.46708987824007 -10.465566846701709
    vertex 130.0613981575899 -131.06708967514479 -10.465574712331934
  endloop
endfacet
facet normal 2.3711395590701425e-08 3.0067189375415297e-07 0.9999999999999547
  outer loop
    vertex 130.0613981575899 -131.06708967514479 -10.465574712331934
    vertex 133.18540411227605 -156.46708987824007 -10.465566846701709
    vertex 131.12340365758996 -131.0670898805042 -10.465574741755459
  endloop
endfacet
facet normal 2.3711395590701425e-08 3.0067189375415297e-07 0.9999999999999547
  outer loop
    vertex 131.12340365758996 -131.0670898805042 -10.465574741755459
    vertex 133.18540411227605 -156.46708987824007 -10.465566846701709
    vertex 132.18540750417577 -139.31747740764536 -10.465573589997545
  endloop
endfacet
facet normal 2.3711395590701425e-08 3.0067189375415297e-07 0.9999999999999547
  outer loop
    vertex 132.18540750417577 -139.31747740764536 -10.465573589997545
    vertex 133.18540411227605 -156.46708987824007 -10.465566846701709
    vertex 133.18540750417574 -139.31747760101473 -10.465573617703283
  endloop
endfacet
facet normal 2.3711395590701425e-08 3.0067189375415297e-07 0.9999999999999547
  outer loop
    vertex 131.12340365758996 -131.0670898805042 -10.465574741755459
    vertex 132.18540866358455 -133.3170904249436 -10.465574452611177
    vertex 132.48540883248194 -132.4482107768017 -10.465574641461439
  endloop
endfacet
facet normal 2.3711395590701425e-08 3.0067189375415297e-07 0.9999999999999547
  outer loop
    vertex 132.18540866358455 -133.3170904249436 -10.465574452611177
    vertex 131.12340365758996 -131.0670898805042 -10.465574741755459
    vertex 132.18540750417577 -139.31747740764536 -10.465573589997545
  endloop
endfacet
facet normal 2.3711395590701425e-08 3.0067189375415297e-07 0.9999999999999547
  outer loop
    vertex 132.48540883248194 -132.4482107768017 -10.465574641461439
    vertex 132.18540866358455 -133.3170904249436 -10.465574452611177
    vertex 132.48540866356404 -133.11709048295447 -10.465574521932432
  endloop
endfacet
facet normal 2.3711395590701425e-08 3.0067189375415297e-07 0.9999999999999547
  outer loop
    vertex 129.26139794120215 -131.067089414451 -10.465574851501065
    vertex 128.19939244120215 -131.0670894316299 -10.465574822077455
    vertex 129.26139511376738 -139.31747674597133 -10.465573247600853
  endloop
endfacet
facet normal -2.3711471721151676e-08 -3.048479302935192e-07 -0.9999999999999533
  outer loop
    vertex 126.83738664945021 -132.44821157925819 -14.51359653782371
    vertex 127.1373865384478 -133.3170900635327 -14.513596312752062
    vertex 126.8373865384273 -133.11709003148837 -14.513596364602009
  endloop
endfacet
facet normal -2.3711471721151676e-08 -3.048479302935192e-07 -0.9999999999999533
  outer loop
    vertex 127.1373865384478 -133.3170900635327 -14.513596312752062
    vertex 126.83738664945021 -132.44821157925819 -14.51359653782371
    vertex 128.19939232904886 -131.0670903075865 -14.513596822076872
  endloop
endfacet
facet normal -2.3711471721151676e-08 -3.048479302935192e-07 -0.9999999999999533
  outer loop
    vertex 129.26139782904878 -131.06709055164026 -14.513596851500562
    vertex 129.261395001614 -139.31747788316065 -14.51359524760035
    vertex 128.19939232904886 -131.0670903075865 -14.513596822076872
  endloop
endfacet
facet normal -2.3711471721151676e-08 -3.048479302935192e-07 -0.9999999999999533
  outer loop
    vertex 131.12340354543687 -131.06709049522814 -14.513596741755295
    vertex 132.18540855143092 -133.3170910396675 -14.513596452611132
    vertex 132.1854073920221 -139.31747898991114 -14.513595589997358
  endloop
endfacet
facet normal -2.3711471721151676e-08 -3.048479302935192e-07 -0.9999999999999533
  outer loop
    vertex 132.18540855143092 -133.3170910396675 -14.513596452611132
    vertex 131.12340354543687 -131.06709049522814 -14.513596741755295
    vertex 132.48540872032885 -132.44821139152566 -14.513596641461275
  endloop
endfacet
facet normal -2.3711471721151676e-08 -3.048479302935192e-07 -0.9999999999999533
  outer loop
    vertex 132.18540855143092 -133.3170910396675 -14.513596452611132
    vertex 132.48540872032885 -132.44821139152566 -14.513596641461275
    vertex 132.4854085514104 -133.1170910976784 -14.513596521932385
  endloop
endfacet
facet normal -2.3711471721151676e-08 -3.048479302935192e-07 -0.9999999999999533
  outer loop
    vertex 126.1373853920221 -139.3174787970593 -14.513595422432468
    vertex 133.18540428702522 -156.4670909767339 -14.513588725542101
    vertex 126.13738186459899 -156.467089613862 -14.513588530271846
  endloop
endfacet
facet normal -2.3711471721151676e-08 -3.048479302935192e-07 -0.9999999999999533
  outer loop
    vertex 133.18540428702522 -156.4670909767339 -14.513588725542101
    vertex 126.1373853920221 -139.3174787970593 -14.513595422432468
    vertex 127.1373853920221 -139.3174789904287 -14.513595450138133
  endloop
endfacet
facet normal -2.3711471721151676e-08 -3.048479302935192e-07 -0.9999999999999533
  outer loop
    vertex 133.18540428702522 -156.4670909767339 -14.513588725542101
    vertex 127.1373853920221 -139.3174789904287 -14.513595450138133
    vertex 127.1373865384478 -133.3170900635327 -14.513596312752062
  endloop
endfacet
facet normal -2.3711471721151676e-08 -3.048479302935192e-07 -0.9999999999999533
  outer loop
    vertex 133.18540428702522 -156.4670909767339 -14.513588725542101
    vertex 127.1373865384478 -133.3170900635327 -14.513596312752062
    vertex 129.261395001614 -139.31747788316065 -14.51359524760035
  endloop
endfacet
facet normal -2.3711471721151676e-08 -3.048479302935192e-07 -0.9999999999999533
  outer loop
    vertex 129.261395001614 -139.31747788316065 -14.51359524760035
    vertex 127.1373865384478 -133.3170900635327 -14.513596312752062
    vertex 128.19939232904886 -131.0670903075865 -14.513596822076872
  endloop
endfacet
facet normal -2.3711471721151676e-08 -3.048479302935192e-07 -0.9999999999999533
  outer loop
    vertex 133.18540428702522 -156.4670909767339 -14.513588725542101
    vertex 129.261395001614 -139.31747788316065 -14.51359524760035
    vertex 130.061395001614 -139.31747796046736 -14.513595269764933
  endloop
endfacet
facet normal -2.3711471721151676e-08 -3.048479302935192e-07 -0.9999999999999533
  outer loop
    vertex 133.18540428702522 -156.4670909767339 -14.513588725542101
    vertex 130.061395001614 -139.31747796046736 -14.513595269764933
    vertex 130.06139804543645 -131.06709028986876 -14.513596712331687
  endloop
endfacet
facet normal -2.3711471721151676e-08 -3.048479302935192e-07 -0.9999999999999533
  outer loop
    vertex 133.18540428702522 -156.4670909767339 -14.513588725542101
    vertex 130.06139804543645 -131.06709028986876 -14.513596712331687
    vertex 131.12340354543687 -131.06709049522814 -14.513596741755295
  endloop
endfacet
facet normal -2.3711471721151676e-08 -3.048479302935192e-07 -0.9999999999999533
  outer loop
    vertex 133.18540428702522 -156.4670909767339 -14.513588725542101
    vertex 131.12340354543687 -131.06709049522814 -14.513596741755295
    vertex 132.1854073920221 -139.31747898991114 -14.513595589997358
  endloop
endfacet
facet normal -2.3711471721151676e-08 -3.048479302935192e-07 -0.9999999999999533
  outer loop
    vertex 133.18540428702522 -156.4670909767339 -14.513588725542101
    vertex 132.1854073920221 -139.31747898991114 -14.513595589997358
    vertex 133.18540739202209 -139.31747918328054 -14.513595617703096
  endloop
endfacet
facet normal 1.0681435807492894e-07 0.999999999999971 -2.1639127179759677e-07
  outer loop
    vertex 128.19939232904886 -131.0670903075865 -14.513596822076872
    vertex 129.26139794120215 -131.067089414451 -10.465574851501065
    vertex 129.26139782904878 -131.06709055164026 -14.513596851500562
  endloop
endfacet
facet normal 1.0681435807492894e-07 0.999999999999971 -2.1639127179759677e-07
  outer loop
    vertex 129.26139794120215 -131.067089414451 -10.465574851501065
    vertex 128.19939232904886 -131.0670903075865 -14.513596822076872
    vertex 128.19939244120215 -131.0670894316299 -10.465574822077455
  endloop
endfacet
facet normal 1.9336941183536928e-07 0.9999999999999698 -1.5185786788247098e-07
  outer loop
    vertex 130.06139804543645 -131.06709028986876 -14.513596712331687
    vertex 131.12340365758996 -131.0670898805042 -10.465574741755459
    vertex 131.12340354543687 -131.06709049522814 -14.513596741755295
  endloop
endfacet
facet normal 1.9336941183536928e-07 0.9999999999999698 -1.5185786788247098e-07
  outer loop
    vertex 131.12340365758996 -131.0670898805042 -10.465574741755459
    vertex 130.06139804543645 -131.06709028986876 -14.513596712331687
    vertex 130.0613981575899 -131.06708967514479 -10.465574712331934
  endloop
endfacet
facet normal -0.7120169958770786 0.7021622302446657 -1.3221484562313452e-07
  outer loop
    vertex 126.83738676160348 -132.44821070330153 -10.465574537824299
    vertex 128.19939232904886 -131.0670903075865 -14.513596822076872
    vertex 126.83738664945021 -132.44821157925819 -14.51359653782371
  endloop
endfacet
facet normal -0.7120169958770786 0.7021622302446657 -1.3221484562313452e-07
  outer loop
    vertex 128.19939232904886 -131.0670903075865 -14.513596822076872
    vertex 126.83738676160348 -132.44821070330153 -10.465574537824299
    vertex 128.19939244120215 -131.0670894316299 -10.465574822077455
  endloop
endfacet
facet normal 0.7120170305506661 0.7021621950844377 -1.2635574714401324e-07
  outer loop
    vertex 131.12340354543687 -131.06709049522814 -14.513596741755295
    vertex 132.48540883248194 -132.4482107768017 -10.465574641461439
    vertex 132.48540872032885 -132.44821139152566 -14.513596641461275
  endloop
endfacet
facet normal 0.7120170305506661 0.7021621950844377 -1.2635574714401324e-07
  outer loop
    vertex 132.48540883248194 -132.4482107768017 -10.465574641461439
    vertex 131.12340354543687 -131.06709049522814 -14.513596741755295
    vertex 131.12340365758996 -131.0670898805042 -10.465574741755459
  endloop
endfacet
facet normal -0.999999999999986 1.6598369765154907e-07 2.7705669839098787e-08
  outer loop
    vertex 126.83738665058057 -133.1170894167644 -10.465574364602528
    vertex 126.83738664945021 -132.44821157925819 -14.51359653782371
    vertex 126.8373865384273 -133.11709003148837 -14.513596364602009
  endloop
endfacet
facet normal -0.999999999999986 1.6598369765154907e-07 2.7705669839098787e-08
  outer loop
    vertex 126.83738664945021 -132.44821157925819 -14.51359653782371
    vertex 126.83738665058057 -133.1170894167644 -10.465574364602528
    vertex 126.83738676160348 -132.44821070330153 -10.465574537824299
  endloop
endfacet
facet normal -0.5547002577277713 -0.8320502533361336 1.4172173136750942e-07
  outer loop
    vertex 127.1373865384478 -133.3170900635327 -14.513596312752062
    vertex 126.83738665058057 -133.1170894167644 -10.465574364602528
    vertex 126.8373865384273 -133.11709003148837 -14.513596364602009
  endloop
endfacet
facet normal -0.5547002577277713 -0.8320502533361336 1.4172173136750942e-07
  outer loop
    vertex 126.83738665058057 -133.1170894167644 -10.465574364602528
    vertex 127.1373865384478 -133.3170900635327 -14.513596312752062
    vertex 127.13738665060107 -133.31708944880873 -10.465574312752583
  endloop
endfacet
facet normal 0.9999999999999678 -2.525389726696255e-07 -2.7705684520315186e-08
  outer loop
    vertex 132.48540872032885 -132.44821139152566 -14.513596641461275
    vertex 132.48540866356404 -133.11709048295447 -10.465574521932432
    vertex 132.4854085514104 -133.1170910976784 -14.513596521932385
  endloop
endfacet
facet normal 0.9999999999999678 -2.525389726696255e-07 -2.7705684520315186e-08
  outer loop
    vertex 132.48540866356404 -133.11709048295447 -10.465574521932432
    vertex 132.48540872032885 -132.44821139152566 -14.513596641461275
    vertex 132.48540883248194 -132.4482107768017 -10.465574641461439
  endloop
endfacet
facet normal 0.5547000848637517 -0.8320503685788105 1.1098498414897301e-07
  outer loop
    vertex 132.48540866356404 -133.11709048295447 -10.465574521932432
    vertex 132.18540855143092 -133.3170910396675 -14.513596452611132
    vertex 132.4854085514104 -133.1170910976784 -14.513596521932385
  endloop
endfacet
facet normal 0.5547000848637517 -0.8320503685788105 1.1098498414897301e-07
  outer loop
    vertex 132.18540855143092 -133.3170910396675 -14.513596452611132
    vertex 132.48540866356404 -133.11709048295447 -10.465574521932432
    vertex 132.18540866358455 -133.3170904249436 -10.465574452611177
  endloop
endfacet
facet normal -0.9999999999999813 1.9105856943782134e-07 2.7705671185479425e-08
  outer loop
    vertex 127.13738550417557 -139.3174774081629 -10.4655734501388
    vertex 127.1373865384478 -133.3170900635327 -14.513596312752062
    vertex 127.1373853920221 -139.3174789904287 -14.513595450138133
  endloop
endfacet
facet normal -0.9999999999999813 1.9105856943782134e-07 2.7705671185479425e-08
  outer loop
    vertex 127.1373865384478 -133.3170900635327 -14.513596312752062
    vertex 127.13738550417557 -139.3174774081629 -10.4655734501388
    vertex 127.13738665060107 -133.31708944880873 -10.465574312752583
  endloop
endfacet
facet normal 1.9336940063263336e-07 0.9999999999999051 -3.9087381748146987e-07
  outer loop
    vertex 126.1373853920221 -139.3174787970593 -14.513595422432468
    vertex 127.13738550417557 -139.3174774081629 -10.4655734501388
    vertex 127.1373853920221 -139.3174789904287 -14.513595450138133
  endloop
endfacet
facet normal 1.9336940063263336e-07 0.9999999999999051 -3.9087381748146987e-07
  outer loop
    vertex 127.13738550417557 -139.3174774081629 -10.4655734501388
    vertex 126.1373853920221 -139.3174787970593 -14.513595422432468
    vertex 125.84706940013876 -139.31747863947155 -14.25404996135432
  endloop
endfacet
facet normal 1.9336940063263336e-07 0.9999999999999051 -3.9087381748146987e-07
  outer loop
    vertex 127.13738550417557 -139.3174774081629 -10.4655734501388
    vertex 125.84706940013876 -139.31747863947155 -14.25404996135432
    vertex 125.59968958019911 -139.31747847408062 -13.953300154710805
  endloop
endfacet
facet normal 1.9336940063263336e-07 0.9999999999999051 -3.9087381748146987e-07
  outer loop
    vertex 127.13738550417557 -139.3174774081629 -10.4655734501388
    vertex 125.59968958019911 -139.31747847408062 -13.953300154710805
    vertex 125.40102282249075 -139.31747830474882 -13.61836920527329
  endloop
endfacet
facet normal 1.9336940063263336e-07 0.9999999999999051 -3.9087381748146987e-07
  outer loop
    vertex 127.13738550417557 -139.3174774081629 -10.4655734501388
    vertex 125.40102282249075 -139.31747830474882 -13.61836920527329
    vertex 125.25570845476211 -139.31747813543038 -13.257078524461969
  endloop
endfacet
facet normal 1.9336940063263336e-07 0.9999999999999051 -3.9087381748146987e-07
  outer loop
    vertex 127.13738550417557 -139.3174774081629 -10.4655734501388
    vertex 125.25570845476211 -139.31747813543038 -13.257078524461969
    vertex 125.16713990320208 -139.3174779700793 -12.877865084320357
  endloop
endfacet
facet normal 1.9336940063263336e-07 0.9999999999999051 -3.9087381748146987e-07
  outer loop
    vertex 127.13738550417557 -139.3174774081629 -10.4655734501388
    vertex 125.16713990320208 -139.3174779700793 -12.877865084320357
    vertex 125.13738544809887 -139.31747781255697 -12.489584394727126
  endloop
endfacet
facet normal 1.9336940063263336e-07 0.9999999999999051 -3.9087381748146987e-07
  outer loop
    vertex 127.13738550417557 -139.3174774081629 -10.4655734501388
    vertex 125.13738544809887 -139.31747781255697 -12.489584394727126
    vertex 125.16713992471729 -139.31747766654183 -12.101303706782634
  endloop
endfacet
facet normal 1.9336940063263336e-07 0.9999999999999051 -3.9087381748146987e-07
  outer loop
    vertex 127.13738550417557 -139.3174774081629 -10.4655734501388
    vertex 125.16713992471729 -139.31747766654183 -12.101303706782634
    vertex 125.25570849729012 -139.3174775354437 -11.722090271548726
  endloop
endfacet
facet normal 1.9336940063263336e-07 0.9999999999999051 -3.9087381748146987e-07
  outer loop
    vertex 127.13738550417557 -139.3174774081629 -10.4655734501388
    vertex 125.25570849729012 -139.3174775354437 -11.722090271548726
    vertex 125.40102288503842 -139.317477422324 -11.36079959878947
  endloop
endfacet
facet normal 1.9336940063263336e-07 0.9999999999999051 -3.9087381748146987e-07
  outer loop
    vertex 127.13738550417557 -139.3174774081629 -10.4655734501388
    vertex 125.40102288503842 -139.317477422324 -11.36079959878947
    vertex 125.59968966130579 -139.31747732982433 -11.02586866036034
  endloop
endfacet
facet normal 1.9336940063263336e-07 0.9999999999999051 -3.9087381748146987e-07
  outer loop
    vertex 127.13738550417557 -139.3174774081629 -10.4655734501388
    vertex 125.59968966130579 -139.31747732982433 -11.02586866036034
    vertex 125.84706949791043 -139.31747726010477 -10.725118867424474
  endloop
endfacet
facet normal 1.9336940063263336e-07 0.9999999999999051 -3.9087381748146987e-07
  outer loop
    vertex 127.13738550417557 -139.3174774081629 -10.4655734501388
    vertex 125.84706949791043 -139.31747726010477 -10.725118867424474
    vertex 126.13738550417557 -139.3174772147935 -10.465573422433128
  endloop
endfacet
facet normal 0.9999999999999811 -1.932223303791112e-07 -2.7705740609447773e-08
  outer loop
    vertex 132.18540855143092 -133.3170910396675 -14.513596452611132
    vertex 132.18540750417577 -139.31747740764536 -10.465573589997545
    vertex 132.1854073920221 -139.31747898991114 -14.513595589997358
  endloop
endfacet
facet normal 0.9999999999999811 -1.932223303791112e-07 -2.7705740609447773e-08
  outer loop
    vertex 132.18540750417577 -139.31747740764536 -10.465573589997545
    vertex 132.18540855143092 -133.3170910396675 -14.513596452611132
    vertex 132.18540866358455 -133.3170904249436 -10.465574452611177
  endloop
endfacet
facet normal 1.933693953244611e-07 0.9999999999999051 -3.908738174814788e-07
  outer loop
    vertex 132.1854073920221 -139.31747898991114 -14.513595589997358
    vertex 133.47572339828727 -139.31747913796926 -14.254050172711711
    vertex 133.18540739202209 -139.31747918328054 -14.513595617703096
  endloop
endfacet
facet normal 1.933693953244611e-07 0.9999999999999051 -3.908738174814788e-07
  outer loop
    vertex 133.47572339828727 -139.31747913796926 -14.254050172711711
    vertex 132.1854073920221 -139.31747898991114 -14.513595589997358
    vertex 132.18540750417577 -139.31747740764536 -10.465573589997545
  endloop
endfacet
facet normal 1.933693953244611e-07 0.9999999999999051 -3.908738174814788e-07
  outer loop
    vertex 133.47572339828727 -139.31747913796926 -14.254050172711711
    vertex 132.18540750417577 -139.31747740764536 -10.465573589997545
    vertex 133.72310323489188 -139.31747906824972 -13.953300379775811
  endloop
endfacet
facet normal 1.933693953244611e-07 0.9999999999999051 -3.908738174814788e-07
  outer loop
    vertex 133.72310323489188 -139.31747906824972 -13.953300379775811
    vertex 132.18540750417577 -139.31747740764536 -10.465573589997545
    vertex 133.9217700111593 -139.31747897575005 -13.618369441346657
  endloop
endfacet
facet normal 1.933693953244611e-07 0.9999999999999051 -3.908738174814788e-07
  outer loop
    vertex 133.9217700111593 -139.31747897575005 -13.618369441346657
    vertex 132.18540750417577 -139.31747740764536 -10.465573589997545
    vertex 134.0670843989076 -139.31747886263034 -13.257078768587373
  endloop
endfacet
facet normal 1.933693953244611e-07 0.9999999999999051 -3.908738174814788e-07
  outer loop
    vertex 134.0670843989076 -139.31747886263034 -13.257078768587373
    vertex 132.18540750417577 -139.31747740764536 -10.465573589997545
    vertex 134.15565297148044 -139.3174787315322 -12.877865333353432
  endloop
endfacet
facet normal 1.933693953244611e-07 0.9999999999999051 -3.908738174814788e-07
  outer loop
    vertex 134.15565297148044 -139.3174787315322 -12.877865333353432
    vertex 132.18540750417577 -139.31747740764536 -10.465573589997545
    vertex 134.18540744809889 -139.31747858551702 -12.489584645408906
  endloop
endfacet
facet normal 1.933693953244611e-07 0.9999999999999051 -3.908738174814788e-07
  outer loop
    vertex 134.18540744809889 -139.31747858551702 -12.489584645408906
    vertex 132.18540750417577 -139.31747740764536 -10.465573589997545
    vertex 134.15565299299573 -139.31747842799467 -12.101303955815643
  endloop
endfacet
facet normal 1.933693953244611e-07 0.9999999999999051 -3.908738174814788e-07
  outer loop
    vertex 134.15565299299573 -139.31747842799467 -12.101303955815643
    vertex 132.18540750417577 -139.31747740764536 -10.465573589997545
    vertex 134.06708444143567 -139.3174782626436 -11.722090515673992
  endloop
endfacet
facet normal 1.933693953244611e-07 0.9999999999999051 -3.908738174814788e-07
  outer loop
    vertex 134.06708444143567 -139.3174782626436 -11.722090515673992
    vertex 132.18540750417577 -139.31747740764536 -10.465573589997545
    vertex 133.92177007370708 -139.3174780933252 -11.360799834862625
  endloop
endfacet
facet normal 1.933693953244611e-07 0.9999999999999051 -3.908738174814788e-07
  outer loop
    vertex 133.92177007370708 -139.3174780933252 -11.360799834862625
    vertex 132.18540750417577 -139.31747740764536 -10.465573589997545
    vertex 133.7231033159987 -139.3174779239934 -11.025868885425057
  endloop
endfacet
facet normal 1.933693953244611e-07 0.9999999999999051 -3.908738174814788e-07
  outer loop
    vertex 133.7231033159987 -139.3174779239934 -11.025868885425057
    vertex 132.18540750417577 -139.31747740764536 -10.465573589997545
    vertex 133.4757234960591 -139.31747775860248 -10.72511907878149
  endloop
endfacet
facet normal 1.933693953244611e-07 0.9999999999999051 -3.908738174814788e-07
  outer loop
    vertex 133.4757234960591 -139.31747775860248 -10.72511907878149
    vertex 132.18540750417577 -139.31747740764536 -10.465573589997545
    vertex 133.18540750417574 -139.31747760101473 -10.465573617703283
  endloop
endfacet
facet normal 0.9970766904688901 -1.6293851323575733e-07 0.07640728580167239
  outer loop
    vertex 134.18540744809889 -139.31747858551702 -12.489584645408906
    vertex 134.15564967678546 -156.4670907052201 -12.101297252481219
    vertex 134.18540413188865 -156.4670908627421 -12.489577942074472
  endloop
endfacet
facet normal 0.9970766904688901 -1.6293851323575733e-07 0.07640728580167239
  outer loop
    vertex 134.15564967678546 -156.4670907052201 -12.101297252481219
    vertex 134.18540744809889 -139.31747858551702 -12.489584645408906
    vertex 134.15565299299573 -139.31747842799467 -12.101303955815643
  endloop
endfacet
facet normal 0.9737926505534994 -9.940228678234317e-08 0.22743762601641004
  outer loop
    vertex 134.15565299299573 -139.31747842799467 -12.101303955815643
    vertex 134.06708112522546 -156.46709053986902 -11.722083812339585
    vertex 134.15564967678546 -156.4670907052201 -12.101297252481219
  endloop
endfacet
facet normal 0.9737926505534994 -9.940228678234317e-08 0.22743762601641004
  outer loop
    vertex 134.06708112522546 -156.46709053986902 -11.722083812339585
    vertex 134.15565299299573 -139.31747842799467 -12.101303955815643
    vertex 134.06708444143567 -139.3174782626436 -11.722090515673992
  endloop
endfacet
facet normal 0.9277683026112232 -3.354478739663749e-08 0.3731567722417598
  outer loop
    vertex 134.06708444143567 -139.3174782626436 -11.722090515673992
    vertex 133.92176675749687 -156.46709037055058 -11.360793131528217
    vertex 134.06708112522546 -156.46709053986902 -11.722083812339585
  endloop
endfacet
facet normal 0.9277683026112232 -3.354478739663749e-08 0.3731567722417598
  outer loop
    vertex 133.92176675749687 -156.46709037055058 -11.360793131528217
    vertex 134.06708444143567 -139.3174782626436 -11.722090515673992
    vertex 133.92177007370708 -139.3174780933252 -11.360799834862625
  endloop
endfacet
facet normal 0.860078421491041 3.309606026539453e-08 0.5101618457759051
  outer loop
    vertex 133.92177007370708 -139.3174780933252 -11.360799834862625
    vertex 133.72309999978847 -156.46709020121878 -11.025862182090632
    vertex 133.92176675749687 -156.46709037055058 -11.360793131528217
  endloop
endfacet
facet normal 0.860078421491041 3.309606026539453e-08 0.5101618457759051
  outer loop
    vertex 133.72309999978847 -156.46709020121878 -11.025862182090632
    vertex 133.92177007370708 -139.3174780933252 -11.360799834862625
    vertex 133.7231033159987 -139.3174779239934 -11.025868885425057
  endloop
endfacet
facet normal 0.7723037222929389 9.896403860868161e-08 0.6352534616453982
  outer loop
    vertex 133.7231033159987 -139.3174779239934 -11.025868885425057
    vertex 133.47572017984885 -156.46709003582785 -10.725112375447079
    vertex 133.72309999978847 -156.46709020121878 -11.025862182090632
  endloop
endfacet
facet normal 0.7723037222929389 9.896403860868161e-08 0.6352534616453982
  outer loop
    vertex 133.47572017984885 -156.46709003582785 -10.725112375447079
    vertex 133.7231033159987 -139.3174779239934 -11.025868885425057
    vertex 133.4757234960591 -139.31747775860248 -10.72511907878149
  endloop
endfacet
facet normal 0.6664939470185514 1.6252097792823506e-07 0.745510441635532
  outer loop
    vertex 133.47572017984885 -156.46709003582785 -10.725112375447079
    vertex 133.18540750417574 -139.31747760101473 -10.465573617703283
    vertex 133.18540411227605 -156.46708987824007 -10.465566846701709
  endloop
endfacet
facet normal 0.6664939470185514 1.6252097792823506e-07 0.745510441635532
  outer loop
    vertex 133.18540750417574 -139.31747760101473 -10.465573617703283
    vertex 133.47572017984885 -156.46709003582785 -10.725112375447079
    vertex 133.4757234960591 -139.31747775860248 -10.72511907878149
  endloop
endfacet
facet normal 0.9970766862350438 -2.2266974787180623e-07 -0.07640734105107043
  outer loop
    vertex 134.15564965527037 -156.46709052498528 -12.877858630019201
    vertex 134.18540744809889 -139.31747858551702 -12.489584645408906
    vertex 134.18540413188865 -156.4670908627421 -12.489577942074472
  endloop
endfacet
facet normal 0.9970766862350438 -2.2266974787180623e-07 -0.07640734105107043
  outer loop
    vertex 134.18540744809889 -139.31747858551702 -12.489584645408906
    vertex 134.15564965527037 -156.46709052498528 -12.877858630019201
    vertex 134.15565297148044 -139.3174787315322 -12.877865333353432
  endloop
endfacet
facet normal 0.6664939057086399 -4.2028005161858274e-07 -0.745510478566912
  outer loop
    vertex 133.18540739202209 -139.31747918328054 -14.513595617703096
    vertex 133.47572008207717 -156.4670909314227 -14.254043469377473
    vertex 133.18540428702522 -156.4670909767339 -14.513588725542101
  endloop
endfacet
facet normal 0.6664939057086399 -4.2028005161858274e-07 -0.745510478566912
  outer loop
    vertex 133.47572008207717 -156.4670909314227 -14.254043469377473
    vertex 133.18540739202209 -139.31747918328054 -14.513595617703096
    vertex 133.47572339828727 -139.31747913796926 -14.254050172711711
  endloop
endfacet
facet normal 0.7723036870925329 -3.976438606426106e-07 -0.6352535044398582
  outer loop
    vertex 133.47572339828727 -139.31747913796926 -14.254050172711711
    vertex 133.72309991868184 -156.46709086170316 -13.953293676441588
    vertex 133.47572008207717 -156.4670909314227 -14.254043469377473
  endloop
endfacet
facet normal 0.7723036870925329 -3.976438606426106e-07 -0.6352535044398582
  outer loop
    vertex 133.72309991868184 -156.46709086170316 -13.953293676441588
    vertex 133.47572339828727 -139.31747913796926 -14.254050172711711
    vertex 133.72310323489188 -139.31747906824972 -13.953300379775811
  endloop
endfacet
facet normal 0.8600783932221632 -3.6572176710136033e-07 -0.5101618934340827
  outer loop
    vertex 133.72310323489188 -139.31747906824972 -13.953300379775811
    vertex 133.92176669494924 -156.46709076920345 -13.618362738012422
    vertex 133.72309991868184 -156.46709086170316 -13.953293676441588
  endloop
endfacet
facet normal 0.8600783932221632 -3.6572176710136033e-07 -0.5101618934340827
  outer loop
    vertex 133.92176669494924 -156.46709076920345 -13.618362738012422
    vertex 133.72310323489188 -139.31747906824972 -13.953300379775811
    vertex 133.9217700111593 -139.31747897575005 -13.618369441346657
  endloop
endfacet
facet normal 0.9277682819340105 -3.252592254105666e-07 -0.37315682365073877
  outer loop
    vertex 133.9217700111593 -139.31747897575005 -13.618369441346657
    vertex 134.06708108269754 -156.46709065608377 -13.257072065253146
    vertex 133.92176669494924 -156.46709076920345 -13.618362738012422
  endloop
endfacet
facet normal 0.9277682819340105 -3.252592254105666e-07 -0.37315682365073877
  outer loop
    vertex 134.06708108269754 -156.46709065608377 -13.257072065253146
    vertex 133.9217700111593 -139.31747897575005 -13.618369441346657
    vertex 134.0670843989076 -139.31747886263034 -13.257078768587373
  endloop
endfacet
facet normal 0.9737926379508189 -2.7720112942762235e-07 -0.22743767997565517
  outer loop
    vertex 134.0670843989076 -139.31747886263034 -13.257078768587373
    vertex 134.15564965527037 -156.46709052498528 -12.877858630019201
    vertex 134.06708108269754 -156.46709065608377 -13.257072065253146
  endloop
endfacet
facet normal 0.9737926379508189 -2.7720112942762235e-07 -0.22743767997565517
  outer loop
    vertex 134.15564965527037 -156.46709052498528 -12.877858630019201
    vertex 134.0670843989076 -139.31747886263034 -13.257078768587373
    vertex 134.15565297148044 -139.3174787315322 -12.877865333353432
  endloop
endfacet
facet normal -0.9970766862350426 2.2266974961975904e-07 0.07640734105108395
  outer loop
    vertex 125.16713660850725 -156.46708896711655 -12.101297003448595
    vertex 125.13738544809887 -139.31747781255697 -12.489584394727126
    vertex 125.13738213188881 -156.4670891131314 -12.489577691393075
  endloop
endfacet
facet normal -0.9970766862350426 2.2266974961975904e-07 0.07640734105108395
  outer loop
    vertex 125.13738544809887 -139.31747781255697 -12.489584394727126
    vertex 125.16713660850725 -156.46708896711655 -12.101297003448595
    vertex 125.16713992471729 -139.31747766654183 -12.101303706782634
  endloop
endfacet
facet normal -0.6664939057086119 4.202800534776378e-07 0.7455104785669371
  outer loop
    vertex 126.137382263655 -156.46708851536823 -10.465566651431939
    vertex 125.84706949791043 -139.31747726010477 -10.725118867424474
    vertex 125.84706618170038 -156.4670885606795 -10.725112164090433
  endloop
endfacet
facet normal -0.6664939057086119 4.202800534776378e-07 0.7455104785669371
  outer loop
    vertex 125.84706949791043 -139.31747726010477 -10.725118867424474
    vertex 126.137382263655 -156.46708851536823 -10.465566651431939
    vertex 126.13738550417557 -139.3174772147935 -10.465573422433128
  endloop
endfacet
facet normal -0.7723036870925206 3.976438629551052e-07 0.6352535044398732
  outer loop
    vertex 125.84706618170038 -156.4670885606795 -10.725112164090433
    vertex 125.59968966130579 -139.31747732982433 -11.02586866036034
    vertex 125.59968634509578 -156.46708863039905 -11.025861957026292
  endloop
endfacet
facet normal -0.7723036870925206 3.976438629551052e-07 0.6352535044398732
  outer loop
    vertex 125.59968966130579 -139.31747732982433 -11.02586866036034
    vertex 125.84706618170038 -156.4670885606795 -10.725112164090433
    vertex 125.84706949791043 -139.31747726010477 -10.725118867424474
  endloop
endfacet
facet normal -0.8600783932221596 3.65721769537768e-07 0.5101618934340888
  outer loop
    vertex 125.59968634509578 -156.46708863039905 -11.025861957026292
    vertex 125.40102288503842 -139.317477422324 -11.36079959878947
    vertex 125.40101956882835 -156.46708872289872 -11.360792895455452
  endloop
endfacet
facet normal -0.8600783932221596 3.65721769537768e-07 0.5101618934340888
  outer loop
    vertex 125.40102288503842 -139.317477422324 -11.36079959878947
    vertex 125.59968634509578 -156.46708863039905 -11.025861957026292
    vertex 125.59968966130579 -139.31747732982433 -11.02586866036034
  endloop
endfacet
facet normal -0.9277682819340128 3.252592282343151e-07 0.3731568236507335
  outer loop
    vertex 125.40101956882835 -156.46708872289872 -11.360792895455452
    vertex 125.25570849729012 -139.3174775354437 -11.722090271548726
    vertex 125.2557051810801 -156.4670888360184 -11.722083568214677
  endloop
endfacet
facet normal -0.9277682819340128 3.252592282343151e-07 0.3731568236507335
  outer loop
    vertex 125.25570849729012 -139.3174775354437 -11.722090271548726
    vertex 125.40101956882835 -156.46708872289872 -11.360792895455452
    vertex 125.40102288503842 -139.317477422324 -11.36079959878947
  endloop
endfacet
facet normal -0.9737926379508247 2.7720113227513753e-07 0.22743767997563
  outer loop
    vertex 125.2557051810801 -156.4670888360184 -11.722083568214677
    vertex 125.16713992471729 -139.31747766654183 -12.101303706782634
    vertex 125.16713660850725 -156.46708896711655 -12.101297003448595
  endloop
endfacet
facet normal -0.9737926379508247 2.7720113227513753e-07 0.22743767997563
  outer loop
    vertex 125.16713992471729 -139.31747766654183 -12.101303706782634
    vertex 125.2557051810801 -156.4670888360184 -11.722083568214677
    vertex 125.25570849729012 -139.3174775354437 -11.722090271548726
  endloop
endfacet
facet normal -0.6664939470184537 -1.6252097945144493e-07 -0.7455104416356194
  outer loop
    vertex 125.84706940013876 -139.31747863947155 -14.25404996135432
    vertex 126.13738186459899 -156.467089613862 -14.513588530271846
    vertex 125.84706608392885 -156.4670894562743 -14.254043258020483
  endloop
endfacet
facet normal -0.6664939470184537 -1.6252097945144493e-07 -0.7455104416356194
  outer loop
    vertex 126.13738186459899 -156.467089613862 -14.513588530271846
    vertex 125.84706940013876 -139.31747863947155 -14.25404996135432
    vertex 126.1373853920221 -139.3174787970593 -14.513595422432468
  endloop
endfacet
facet normal -0.9970766904688819 1.6293851250202815e-07 -0.07640728580178217
  outer loop
    vertex 125.13738544809887 -139.31747781255697 -12.489584394727126
    vertex 125.16713658699216 -156.4670887868818 -12.877858380986497
    vertex 125.13738213188881 -156.4670891131314 -12.489577691393075
  endloop
endfacet
facet normal -0.9970766904688819 1.6293851250202815e-07 -0.07640728580178217
  outer loop
    vertex 125.16713658699216 -156.4670887868818 -12.877858380986497
    vertex 125.13738544809887 -139.31747781255697 -12.489584394727126
    vertex 125.16713990320208 -139.3174779700793 -12.877865084320357
  endloop
endfacet
facet normal -0.9737926505534843 9.940228472712878e-08 -0.22743762601647505
  outer loop
    vertex 125.16713658699216 -156.4670887868818 -12.877858380986497
    vertex 125.25570845476211 -139.31747813543038 -13.257078524461969
    vertex 125.2557051385522 -156.46708895223315 -13.257071821128148
  endloop
endfacet
facet normal -0.9737926505534843 9.940228472712878e-08 -0.22743762601647505
  outer loop
    vertex 125.25570845476211 -139.31747813543038 -13.257078524461969
    vertex 125.16713658699216 -156.4670887868818 -12.877858380986497
    vertex 125.16713990320208 -139.3174779700793 -12.877865084320357
  endloop
endfacet
facet normal -0.9277683026111871 3.354478555752343e-08 -0.37315677224184957
  outer loop
    vertex 125.2557051385522 -156.46708895223315 -13.257071821128148
    vertex 125.40102282249075 -139.31747830474882 -13.61836920527329
    vertex 125.40101950628086 -156.4670891215516 -13.618362501939435
  endloop
endfacet
facet normal -0.9277683026111871 3.354478555752343e-08 -0.37315677224184957
  outer loop
    vertex 125.40102282249075 -139.31747830474882 -13.61836920527329
    vertex 125.2557051385522 -156.46708895223315 -13.257071821128148
    vertex 125.25570845476211 -139.31747813543038 -13.257078524461969
  endloop
endfacet
facet normal -0.8600784214909901 -3.309606218670509e-08 -0.5101618457759906
  outer loop
    vertex 125.40101950628086 -156.4670891215516 -13.618362501939435
    vertex 125.59968958019911 -139.31747847408062 -13.953300154710805
    vertex 125.59968626398921 -156.4670892908834 -13.95329345137695
  endloop
endfacet
facet normal -0.8600784214909901 -3.309606218670509e-08 -0.5101618457759906
  outer loop
    vertex 125.59968958019911 -139.31747847408062 -13.953300154710805
    vertex 125.40101950628086 -156.4670891215516 -13.618362501939435
    vertex 125.40102282249075 -139.31747830474882 -13.61836920527329
  endloop
endfacet
facet normal -0.7723037222928653 -9.896404040288051e-08 -0.6352534616454877
  outer loop
    vertex 125.59968626398921 -156.4670892908834 -13.95329345137695
    vertex 125.84706940013876 -139.31747863947155 -14.25404996135432
    vertex 125.84706608392885 -156.4670894562743 -14.254043258020483
  endloop
endfacet
facet normal -0.7723037222928653 -9.896404040288051e-08 -0.6352534616454877
  outer loop
    vertex 125.84706940013876 -139.31747863947155 -14.25404996135432
    vertex 125.59968626398921 -156.4670892908834 -13.95329345137695
    vertex 125.59968958019911 -139.31747847408062 -13.953300154710805
  endloop
endfacet
facet normal -1.953856409853613e-07 -0.9999999999999619 1.9548817655197734e-07
  outer loop
    vertex 133.06631255721666 -157.26709062638943 -13.492436687580351
    vertex 126.42596465259558 -157.26708942744085 -13.698494046457334
    vertex 132.87993734581366 -157.26709070896538 -13.713588593206673
  endloop
endfacet
facet normal -1.953856409853613e-07 -0.9999999999999619 1.9548817655197734e-07
  outer loop
    vertex 126.42596465259558 -157.26708942744085 -13.698494046457334
    vertex 133.06631255721666 -157.26709062638943 -13.492436687580351
    vertex 126.25647334160003 -157.26708929979088 -13.492436498909171
  endloop
endfacet
facet normal -1.953856409853613e-07 -0.9999999999999619 1.9548817655197734e-07
  outer loop
    vertex 126.25647334160003 -157.26708929979088 -13.492436498909171
    vertex 133.06631255721666 -157.26709062638943 -13.492436687580351
    vertex 133.20242831786786 -157.26709054816362 -13.26296007198097
  endloop
endfacet
facet normal -1.953856409853613e-07 -0.9999999999999619 1.9548817655197734e-07
  outer loop
    vertex 126.25647334160003 -157.26708929979088 -13.492436498909171
    vertex 133.20242831786786 -157.26709054816362 -13.26296007198097
    vertex 126.12035759366454 -157.26708916799203 -13.262959875767477
  endloop
endfacet
facet normal -1.953856409853613e-07 -0.9999999999999619 1.9548817655197734e-07
  outer loop
    vertex 126.12035759366454 -157.26708916799203 -13.262959875767477
    vertex 133.20242831786786 -157.26709054816362 -13.26296007198097
    vertex 133.30198989929346 -157.26709045447953 -13.01542318804526
  endloop
endfacet
facet normal -1.953856409853613e-07 -0.9999999999999619 1.9548817655197734e-07
  outer loop
    vertex 126.12035759366454 -157.26708916799203 -13.262959875767477
    vertex 133.30198989929346 -157.26709045447953 -13.01542318804526
    vertex 126.02079602595533 -157.26708903512207 -13.015422986314983
  endloop
endfacet
facet normal -1.953856409853613e-07 -0.9999999999999619 1.9548817655197734e-07
  outer loop
    vertex 126.02079602595533 -157.26708903512207 -13.015422986314983
    vertex 133.30198989929346 -157.26709045447953 -13.01542318804526
    vertex 133.3626723085616 -157.2670903856043 -12.75560659387101
  endloop
endfacet
facet normal -1.953856409853613e-07 -0.9999999999999619 1.9548817655197734e-07
  outer loop
    vertex 126.02079602595533 -157.26708903512207 -13.015422986314983
    vertex 133.3626723085616 -157.2670903856043 -12.75560659387101
    vertex 125.96011363108403 -157.26708894236322 -12.755606388778174
  endloop
endfacet
facet normal -1.953856409853613e-07 -0.9999999999999619 1.9548817655197734e-07
  outer loop
    vertex 125.96011363108403 -157.26708894236322 -12.755606388778174
    vertex 133.3626723085616 -157.2670903856043 -12.75560659387101
    vertex 133.38305847122987 -157.26709067548998 -12.489577607142834
  endloop
endfacet
facet normal -1.953856409853613e-07 -0.9999999999999619 1.9548817655197734e-07
  outer loop
    vertex 125.96011363108403 -157.26708894236322 -12.755606388778174
    vertex 133.38305847122987 -157.26709067548998 -12.489577607142834
    vertex 125.93972748315663 -157.26708922422523 -12.489577400920412
  endloop
endfacet
facet normal -1.953856409853613e-07 -0.9999999999999619 1.9548817655197734e-07
  outer loop
    vertex 125.93972748315663 -157.26708922422523 -12.489577400920412
    vertex 133.38305847122987 -157.26709067548998 -12.489577607142834
    vertex 133.36267232330303 -157.26709058781825 -12.223548619294412
  endloop
endfacet
facet normal -1.953856409853613e-07 -0.9999999999999619 1.9548817655197734e-07
  outer loop
    vertex 125.93972748315663 -157.26708922422523 -12.489577400920412
    vertex 133.36267232330303 -157.26709058781825 -12.223548619294412
    vertex 125.96011364582449 -157.26708914457714 -12.223548414201764
  endloop
endfacet
facet normal -1.953856409853613e-07 -0.9999999999999619 1.9548817655197734e-07
  outer loop
    vertex 125.96011364582449 -157.26708914457714 -12.223548414201764
    vertex 133.36267232330303 -157.26709058781825 -12.223548619294412
    vertex 133.30198992843128 -157.26709045698 -11.963732021754556
  endloop
endfacet
facet normal -1.953856409853613e-07 -0.9999999999999619 1.9548817655197734e-07
  outer loop
    vertex 125.96011364582449 -157.26708914457714 -12.223548414201764
    vertex 133.30198992843128 -157.26709045698 -11.963732021754556
    vertex 126.0207960550931 -157.26708903762253 -11.963731820024433
  endloop
endfacet
facet normal -1.953856409853613e-07 -0.9999999999999619 1.9548817655197734e-07
  outer loop
    vertex 126.0207960550931 -157.26708903762253 -11.963731820024433
    vertex 133.30198992843128 -157.26709045698 -11.963732021754556
    vertex 133.20242836072205 -157.26709032411 -11.716195132301985
  endloop
endfacet
facet normal -1.953856409853613e-07 -0.9999999999999619 1.9548817655197734e-07
  outer loop
    vertex 126.0207960550931 -157.26708903762253 -11.963731820024433
    vertex 133.20242836072205 -157.26709032411 -11.716195132301985
    vertex 126.1203576365187 -157.26708894393846 -11.716194936088787
  endloop
endfacet
facet normal -1.953856409853613e-07 -0.9999999999999619 1.9548817655197734e-07
  outer loop
    vertex 126.1203576365187 -157.26708894393846 -11.716194936088787
    vertex 133.20242836072205 -157.26709032411 -11.716195132301985
    vertex 133.06631261278656 -157.26709019231114 -11.486718509160228
  endloop
endfacet
facet normal -1.953856409853613e-07 -0.9999999999999619 1.9548817655197734e-07
  outer loop
    vertex 126.1203576365187 -157.26708894393846 -11.716194936088787
    vertex 133.06631261278656 -157.26709019231114 -11.486718509160228
    vertex 126.25647339716981 -157.26708886571265 -11.48671832048946
  endloop
endfacet
facet normal -1.953856409853613e-07 -0.9999999999999619 1.9548817655197734e-07
  outer loop
    vertex 126.25647339716981 -157.26708886571265 -11.48671832048946
    vertex 133.06631261278656 -157.26709019231114 -11.486718509160228
    vertex 132.89682130179105 -157.26709006466118 -11.280660961612066
  endloop
endfacet
facet normal -1.953856409853613e-07 -0.9999999999999619 1.9548817655197734e-07
  outer loop
    vertex 126.25647339716981 -157.26708886571265 -11.48671832048946
    vertex 132.89682130179105 -157.26709006466118 -11.280660961612066
    vertex 126.44284860857283 -157.26708878313667 -11.265566414863148
  endloop
endfacet
facet normal -0.7050398093322051 -0.7071066386986449 0.054028407019936706
  outer loop
    vertex 125.93972748315663 -157.26708922422523 -12.489577400920412
    vertex 125.16713660850725 -156.46708896711655 -12.101297003448595
    vertex 125.13738213188881 -156.4670891131314 -12.489577691393075
  endloop
endfacet
facet normal -0.7050398093322051 -0.7071066386986449 0.054028407019936706
  outer loop
    vertex 125.16713660850725 -156.46708896711655 -12.101297003448595
    vertex 125.93972748315663 -157.26708922422523 -12.489577400920412
    vertex 125.96011364582449 -157.26708914457714 -12.223548414201764
  endloop
endfacet
facet normal -0.7050397563278643 -0.7071066646738062 -0.054028758740428014
  outer loop
    vertex 125.96011363108403 -157.26708894236322 -12.755606388778174
    vertex 125.13738213188881 -156.4670891131314 -12.489577691393075
    vertex 125.16713658699216 -156.4670887868818 -12.877858380986497
  endloop
endfacet
facet normal -0.7050397563278643 -0.7071066646738062 -0.054028758740428014
  outer loop
    vertex 125.13738213188881 -156.4670891131314 -12.489577691393075
    vertex 125.96011363108403 -157.26708894236322 -12.755606388778174
    vertex 125.93972748315663 -157.26708922422523 -12.489577400920412
  endloop
endfacet
facet normal -0.6885755365250068 -0.707106693369503 -0.16082243217706496
  outer loop
    vertex 126.02079602595533 -157.26708903512207 -13.015422986314983
    vertex 125.16713658699216 -156.4670887868818 -12.877858380986497
    vertex 125.2557051385522 -156.46708895223315 -13.257071821128148
  endloop
endfacet
facet normal -0.6885755365250068 -0.707106693369503 -0.16082243217706496
  outer loop
    vertex 125.16713658699216 -156.4670887868818 -12.877858380986497
    vertex 126.02079602595533 -157.26708903512207 -13.015422986314983
    vertex 125.96011363108403 -157.26708894236322 -12.755606388778174
  endloop
endfacet
facet normal -0.6560314157169984 -0.7071067407485581 -0.2638614007017747
  outer loop
    vertex 126.12035759366454 -157.26708916799203 -13.262959875767477
    vertex 125.2557051385522 -156.46708895223315 -13.257071821128148
    vertex 125.40101950628086 -156.4670891215516 -13.618362501939435
  endloop
endfacet
facet normal -0.6560314157169984 -0.7071067407485581 -0.2638614007017747
  outer loop
    vertex 125.2557051385522 -156.46708895223315 -13.257071821128148
    vertex 126.12035759366454 -157.26708916799203 -13.262959875767477
    vertex 126.02079602595533 -157.26708903512207 -13.015422986314983
  endloop
endfacet
facet normal -0.6081674483209292 -0.70710678065739 -0.3607386249781853
  outer loop
    vertex 126.25647334160003 -157.26708929979088 -13.492436498909171
    vertex 125.40101950628086 -156.4670891215516 -13.618362501939435
    vertex 125.59968626398921 -156.4670892908834 -13.95329345137695
  endloop
endfacet
facet normal -0.6081674483209292 -0.70710678065739 -0.3607386249781853
  outer loop
    vertex 125.40101950628086 -156.4670891215516 -13.618362501939435
    vertex 126.25647334160003 -157.26708929979088 -13.492436498909171
    vertex 126.12035759366454 -157.26708916799203 -13.262959875767477
  endloop
endfacet
facet normal -0.5461013672322294 -0.7071068205785795 -0.44919176417020634
  outer loop
    vertex 126.42596465259558 -157.26708942744085 -13.698494046457334
    vertex 125.59968626398921 -156.4670892908834 -13.95329345137695
    vertex 125.84706608392885 -156.4670894562743 -14.254043258020483
  endloop
endfacet
facet normal -0.5461013672322294 -0.7071068205785795 -0.44919176417020634
  outer loop
    vertex 125.59968626398921 -156.4670892908834 -13.95329345137695
    vertex 126.42596465259558 -157.26708942744085 -13.698494046457334
    vertex 126.25647334160003 -157.26708929979088 -13.492436498909171
  endloop
endfacet
facet normal -0.4712825487856741 -0.7071068623529502 -0.5271552374997756
  outer loop
    vertex 126.42596465259558 -157.26708942744085 -13.698494046457334
    vertex 125.84706608392885 -156.4670894562743 -14.254043258020483
    vertex 126.13738186459899 -156.467089613862 -14.513588530271846
  endloop
endfacet
facet normal -0.0007508273821705269 -0.7104481692949061 -0.7037491278884533
  outer loop
    vertex 132.87993734581366 -157.26709070896538 -13.713588593206673
    vertex 126.13738186459899 -156.467089613862 -14.513588530271846
    vertex 133.18540428702522 -156.4670909767339 -14.513588725542101
  endloop
endfacet
facet normal -0.0007508273821705269 -0.7104481692949061 -0.7037491278884533
  outer loop
    vertex 126.13738186459899 -156.467089613862 -14.513588530271846
    vertex 132.87993734581366 -157.26709070896538 -13.713588593206673
    vertex 126.42596465259558 -157.26708942744085 -13.698494046457334
  endloop
endfacet
facet normal 0.4712822542461645 -0.7071070324081405 -0.5271552727153609
  outer loop
    vertex 132.87993734581366 -157.26709070896538 -13.713588593206673
    vertex 133.18540428702522 -156.4670909767339 -14.513588725542101
    vertex 133.47572008207717 -156.4670909314227 -14.254043469377473
  endloop
endfacet
facet normal 0.5436216015070823 -0.7078463285265842 -0.45103118469381936
  outer loop
    vertex 133.72309991868184 -156.46709086170316 -13.953293676441588
    vertex 132.87993734581366 -157.26709070896538 -13.713588593206673
    vertex 133.47572008207717 -156.4670909314227 -14.254043469377473
  endloop
endfacet
facet normal 0.5436216015070823 -0.7078463285265842 -0.45103118469381936
  outer loop
    vertex 132.87993734581366 -157.26709070896538 -13.713588593206673
    vertex 133.72309991868184 -156.46709086170316 -13.953293676441588
    vertex 133.06631255721666 -157.26709062638943 -13.492436687580351
  endloop
endfacet
facet normal 0.6081671583597594 -0.7071070113294816 -0.3607386616670075
  outer loop
    vertex 133.92176669494924 -156.46709076920345 -13.618362738012422
    vertex 133.06631255721666 -157.26709062638943 -13.492436687580351
    vertex 133.72309991868184 -156.46709086170316 -13.953293676441588
  endloop
endfacet
facet normal 0.6081671583597594 -0.7071070113294816 -0.3607386616670075
  outer loop
    vertex 133.06631255721666 -157.26709062638943 -13.492436687580351
    vertex 133.92176669494924 -156.46709076920345 -13.618362738012422
    vertex 133.20242831786786 -157.26709054816362 -13.26296007198097
  endloop
endfacet
facet normal 0.6560311319484484 -0.7071069895749971 -0.2638614394120952
  outer loop
    vertex 134.06708108269754 -156.46709065608377 -13.257072065253146
    vertex 133.20242831786786 -157.26709054816362 -13.26296007198097
    vertex 133.92176669494924 -156.46709076920345 -13.618362738012422
  endloop
endfacet
facet normal 0.6560311319484484 -0.7071069895749971 -0.2638614394120952
  outer loop
    vertex 133.20242831786786 -157.26709054816362 -13.26296007198097
    vertex 134.06708108269754 -156.46709065608377 -13.257072065253146
    vertex 133.30198989929346 -157.26709045447953 -13.01542318804526
  endloop
endfacet
facet normal 0.6885752590622799 -0.7071069545396187 -0.16082247184090853
  outer loop
    vertex 134.15564965527037 -156.46709052498528 -12.877858630019201
    vertex 133.30198989929346 -157.26709045447953 -13.01542318804526
    vertex 134.06708108269754 -156.46709065608377 -13.257072065253146
  endloop
endfacet
facet normal 0.6885752590622799 -0.7071069545396187 -0.16082247184090853
  outer loop
    vertex 133.30198989929346 -157.26709045447953 -13.01542318804526
    vertex 134.15564965527037 -156.46709052498528 -12.877858630019201
    vertex 133.3626723085616 -157.2670903856043 -12.75560659387101
  endloop
endfacet
facet normal 0.7050394850953946 -0.7071069320886453 -0.054028798326494536
  outer loop
    vertex 134.18540413188865 -156.4670908627421 -12.489577942074472
    vertex 133.3626723085616 -157.2670903856043 -12.75560659387101
    vertex 134.15564965527037 -156.46709052498528 -12.877858630019201
  endloop
endfacet
facet normal 0.7050394850953946 -0.7071069320886453 -0.054028798326494536
  outer loop
    vertex 133.3626723085616 -157.2670903856043 -12.75560659387101
    vertex 134.18540413188865 -156.4670908627421 -12.489577942074472
    vertex 133.38305847122987 -157.26709067548998 -12.489577607142834
  endloop
endfacet
facet normal 0.7050395440873239 -0.7071069061135113 0.054028368471726124
  outer loop
    vertex 134.15564967678546 -156.4670907052201 -12.101297252481219
    vertex 133.38305847122987 -157.26709067548998 -12.489577607142834
    vertex 134.18540413188865 -156.4670908627421 -12.489577942074472
  endloop
endfacet
facet normal 0.7050395440873239 -0.7071069061135113 0.054028368471726124
  outer loop
    vertex 133.38305847122987 -157.26709067548998 -12.489577607142834
    vertex 134.15564967678546 -156.4670907052201 -12.101297252481219
    vertex 133.36267232330303 -157.26709058781825 -12.223548619294412
  endloop
endfacet
facet normal 0.6885752376884844 -0.7071068605889026 0.16082297643792617
  outer loop
    vertex 134.15564967678546 -156.4670907052201 -12.101297252481219
    vertex 133.30198992843128 -157.26709045698 -11.963732021754556
    vertex 133.36267232330303 -157.26709058781825 -12.223548619294412
  endloop
endfacet
facet normal 0.6885752376884844 -0.7071068605889026 0.16082297643792617
  outer loop
    vertex 133.30198992843128 -157.26709045698 -11.963732021754556
    vertex 134.15564967678546 -156.4670907052201 -12.101297252481219
    vertex 134.06708112522546 -156.46709053986902 -11.722083812339585
  endloop
endfacet
facet normal 0.6560311005756272 -0.7071068216243888 0.26386196749396523
  outer loop
    vertex 134.06708112522546 -156.46709053986902 -11.722083812339585
    vertex 133.20242836072205 -157.26709032411 -11.716195132301985
    vertex 133.30198992843128 -157.26709045698 -11.963732021754556
  endloop
endfacet
facet normal 0.6560311005756272 -0.7071068216243888 0.26386196749396523
  outer loop
    vertex 133.20242836072205 -157.26709032411 -11.716195132301985
    vertex 134.06708112522546 -156.46709053986902 -11.722083812339585
    vertex 133.92176675749687 -156.46709037055058 -11.360793131528217
  endloop
endfacet
facet normal 0.6081671200560976 -0.7071067817155599 0.3607391763234702
  outer loop
    vertex 133.92176675749687 -156.46709037055058 -11.360793131528217
    vertex 133.06631261278656 -157.26709019231114 -11.486718509160228
    vertex 133.20242836072205 -157.26709032411 -11.716195132301985
  endloop
endfacet
facet normal 0.6081671200560976 -0.7071067817155599 0.3607391763234702
  outer loop
    vertex 133.06631261278656 -157.26709019231114 -11.486718509160228
    vertex 133.92176675749687 -156.46709037055058 -11.360793131528217
    vertex 133.72309999978847 -156.46709020121878 -11.025862182090632
  endloop
endfacet
facet normal 0.5461010311055879 -0.707106741794375 0.44919229683327944
  outer loop
    vertex 133.72309999978847 -156.46709020121878 -11.025862182090632
    vertex 132.89682130179105 -157.26709006466118 -11.280660961612066
    vertex 133.06631261278656 -157.26709019231114 -11.486718509160228
  endloop
endfacet
facet normal 0.5461010311055879 -0.707106741794375 0.44919229683327944
  outer loop
    vertex 132.89682130179105 -157.26709006466118 -11.280660961612066
    vertex 133.72309999978847 -156.46709020121878 -11.025862182090632
    vertex 133.47572017984885 -156.46709003582785 -10.725112375447079
  endloop
endfacet
facet normal 0.47128223032748434 -0.7071067000200212 0.5271557399520069
  outer loop
    vertex 133.18540411227605 -156.46708987824007 -10.465566846701709
    vertex 132.89682130179105 -157.26709006466118 -11.280660961612066
    vertex 133.47572017984885 -156.46709003582785 -10.725112375447079
  endloop
endfacet
facet normal 0.0007505497118444763 -0.7104478103907251 0.7037494905050763
  outer loop
    vertex 133.18540411227605 -156.46708987824007 -10.465566846701709
    vertex 126.44284860857283 -157.26708878313667 -11.265566414863148
    vertex 132.89682130179105 -157.26709006466118 -11.280660961612066
  endloop
endfacet
facet normal 0.0007505497118444763 -0.7104478103907251 0.7037494905050763
  outer loop
    vertex 126.44284860857283 -157.26708878313667 -11.265566414863148
    vertex 133.18540411227605 -156.46708987824007 -10.465566846701709
    vertex 126.137382263655 -156.46708851536823 -10.465566651431939
  endloop
endfacet
facet normal -0.4712824664459989 -0.7071065299648654 0.5271557569652663
  outer loop
    vertex 126.137382263655 -156.46708851536823 -10.465566651431939
    vertex 125.84706618170038 -156.4670885606795 -10.725112164090433
    vertex 126.44284860857283 -157.26708878313667 -11.265566414863148
  endloop
endfacet
facet normal -0.5436217800109873 -0.7078458428472811 0.4510317317678526
  outer loop
    vertex 126.44284860857283 -157.26708878313667 -11.265566414863148
    vertex 125.59968634509578 -156.46708863039905 -11.025861957026292
    vertex 126.25647339716981 -157.26708886571265 -11.48671832048946
  endloop
endfacet
facet normal -0.5436217800109873 -0.7078458428472811 0.4510317317678526
  outer loop
    vertex 125.59968634509578 -156.46708863039905 -11.025861957026292
    vertex 126.44284860857283 -157.26708878313667 -11.265566414863148
    vertex 125.84706618170038 -156.4670885606795 -10.725112164090433
  endloop
endfacet
facet normal -0.608167370039093 -0.707106551043492 0.36073920703343365
  outer loop
    vertex 126.25647339716981 -157.26708886571265 -11.48671832048946
    vertex 125.40101956882835 -156.46708872289872 -11.360792895455452
    vertex 126.1203576365187 -157.26708894393846 -11.716194936088787
  endloop
endfacet
facet normal -0.608167370039093 -0.707106551043492 0.36073920703343365
  outer loop
    vertex 125.40101956882835 -156.46708872289872 -11.360792895455452
    vertex 126.25647339716981 -157.26708886571265 -11.48671832048946
    vertex 125.59968634509578 -156.46708863039905 -11.025861957026292
  endloop
endfacet
facet normal -0.6560313551022239 -0.7071065727979673 0.2638620014868628
  outer loop
    vertex 126.1203576365187 -157.26708894393846 -11.716194936088787
    vertex 125.2557051810801 -156.4670888360184 -11.722083568214677
    vertex 126.0207960550931 -157.26708903762253 -11.963731820024433
  endloop
endfacet
facet normal -0.6560313551022239 -0.7071065727979673 0.2638620014868628
  outer loop
    vertex 125.2557051810801 -156.4670888360184 -11.722083568214677
    vertex 126.1203576365187 -157.26708894393846 -11.716194936088787
    vertex 125.40101956882835 -156.46708872289872 -11.360792895455452
  endloop
endfacet
facet normal -0.6885754973283688 -0.7071065994187925 0.16082301308389074
  outer loop
    vertex 126.0207960550931 -157.26708903762253 -11.963731820024433
    vertex 125.16713660850725 -156.46708896711655 -12.101297003448595
    vertex 125.96011364582449 -157.26708914457714 -12.223548414201764
  endloop
endfacet
facet normal -0.6885754973283688 -0.7071065994187925 0.16082301308389074
  outer loop
    vertex 125.16713660850725 -156.46708896711655 -12.101297003448595
    vertex 126.0207960550931 -157.26708903762253 -11.963731820024433
    vertex 125.2557051810801 -156.4670888360184 -11.722083568214677
  endloop
endfacet
endsolid 海豹與北極熊-3
