solid 海豹與北極熊-3
facet normal 0.5471369340451878 -0.3806182673908675 0.7455004426102013
  outer loop
    vertex -3.4938619330772007 -158.61286973874803 -22.417340727129336
    vertex -4.662619177408286 -157.04406312802556 -20.75860702467665
    vertex -5.129830811317973 -157.90640718556526 -20.855984780609038
  endloop
endfacet
facet normal 7.069822886070566e-14 -1.0 2.2546156535663455e-14
  outer loop
    vertex -2.248645380738237 -156.16590906815483 -19.806228614367242
    vertex -4.5977855303618735 -156.16590906815503 -20.834742418617196
    vertex -3.077619643352051 -156.16590906815503 -22.61990234612986
  endloop
endfacet
facet normal 7.069822886070566e-14 -1.0 2.2546156535663455e-14
  outer loop
    vertex -4.5977855303618735 -156.16590906815503 -20.834742418617196
    vertex -2.248645380738237 -156.16590906815483 -19.806228614367242
    vertex -3.8053045352047 -156.16590906815503 -19.246458280707007
  endloop
endfacet
facet normal -0.4161459537470124 -0.8956466497112519 0.15697013741791666
  outer loop
    vertex -5.129830811317973 -157.90640718556526 -20.855984780609038
    vertex -6.862869872715991 -157.1644865833804 -21.217190372451796
    vertex -6.516225379468361 -157.52538121057975 -22.357403176239334
  endloop
endfacet
facet normal 0.713456960460232 -0.18348806125833053 0.676247955225379
  outer loop
    vertex -2.5332332821756487 -158.1731176758254 -23.31150674903129
    vertex -4.662619177408286 -157.04406312802556 -20.75860702467665
    vertex -3.4938619330772007 -158.61286973874803 -22.417340727129336
  endloop
endfacet
facet normal 0.713456960460232 -0.18348806125833053 0.676247955225379
  outer loop
    vertex -4.662619177408286 -157.04406312802556 -20.75860702467665
    vertex -2.5332332821756487 -158.1731176758254 -23.31150674903129
    vertex -2.488678896704129 -157.99987677821227 -23.31150674903129
  endloop
endfacet
facet normal -0.3364063886847256 -0.9389332245903472 0.07235427708487002
  outer loop
    vertex -5.129830811317973 -157.90640718556526 -20.855984780609038
    vertex -6.516225379468361 -157.52538121057975 -22.357403176239334
    vertex -3.4938619330772007 -158.61286973874803 -22.417340727129336
  endloop
endfacet
facet normal -0.8697496085733796 -0.4805567665596328 -0.1122533407084338
  outer loop
    vertex -6.862869872715991 -157.1644865833804 -21.217190372451796
    vertex -6.958800415186034 -156.5019694733614 -23.311506749031267
    vertex -6.516225379468361 -157.52538121057975 -22.357403176239334
  endloop
endfacet
facet normal -0.8697496085733796 -0.4805567665596328 -0.1122533407084338
  outer loop
    vertex -6.958800415186034 -156.5019694733614 -23.311506749031267
    vertex -6.862869872715991 -157.1644865833804 -21.217190372451796
    vertex -7.034566082784677 -156.36353185140382 -23.311577876477664
  endloop
endfacet
facet normal -0.8770734959557731 -0.46829692010256263 -0.10695829708055636
  outer loop
    vertex -7.9034582248405805 -155.16590906815497 -21.434073153668873
    vertex -7.034566082784677 -156.36353185140382 -23.311577876477664
    vertex -6.862869872715991 -157.1644865833804 -21.217190372451796
  endloop
endfacet
facet normal -0.8770734959557731 -0.46829692010256263 -0.10695829708055636
  outer loop
    vertex -7.034566082784677 -156.36353185140382 -23.311577876477664
    vertex -7.9034582248405805 -155.16590906815497 -21.434073153668873
    vertex -7.133586566647447 -156.17946820264984 -23.31150674903127
  endloop
endfacet
facet normal 0.3383839283314267 8.283998109129861e-15 0.9410081386720265
  outer loop
    vertex -2.248645380738237 -156.16590906815483 -19.806228614367242
    vertex -3.805304535204655 -154.16590906815497 -19.246458280707042
    vertex -3.8053045352047 -156.16590906815503 -19.246458280707007
  endloop
endfacet
facet normal 0.3383839283314267 8.283998109129861e-15 0.9410081386720265
  outer loop
    vertex -3.805304535204655 -154.16590906815497 -19.246458280707042
    vertex -2.248645380738237 -156.16590906815483 -19.806228614367242
    vertex -2.248645380738192 -154.1659090681552 -19.806228614367278
  endloop
endfacet
facet normal 0.5471369340451882 0.380618267390867 0.7455004426102013
  outer loop
    vertex -3.4938619330771554 -151.71894839756203 -22.41734072712937
    vertex -5.129830811317928 -152.42541095074478 -20.855984780609074
    vertex -4.66261917740824 -153.28775500828448 -20.758607024676685
  endloop
endfacet
facet normal 7.623698264555489e-14 1.0 1.3108334701974186e-14
  outer loop
    vertex -4.597785530361828 -154.16590906815503 -20.834742418617243
    vertex -2.248645380738192 -154.1659090681552 -19.806228614367278
    vertex -3.0776196433520284 -154.16590906815503 -22.61990234612989
  endloop
endfacet
facet normal 7.623698264555489e-14 1.0 1.3108334701974186e-14
  outer loop
    vertex -2.248645380738192 -154.1659090681552 -19.806228614367278
    vertex -4.597785530361828 -154.16590906815503 -20.834742418617243
    vertex -3.805304535204655 -154.16590906815497 -19.246458280707042
  endloop
endfacet
facet normal -0.27054809741241126 0.7164707271572082 -0.6430189920316087
  outer loop
    vertex -6.958800415185972 -153.82984866294865 -23.311506749031313
    vertex -3.4938619330771554 -151.71894839756203 -22.41734072712937
    vertex -2.533233282175597 -152.15870046048468 -23.31150674903134
  endloop
endfacet
facet normal -0.27054809741241126 0.7164707271572082 -0.6430189920316087
  outer loop
    vertex -3.4938619330771554 -151.71894839756203 -22.41734072712937
    vertex -6.958800415185972 -153.82984866294865 -23.311506749031313
    vertex -6.516225379468316 -152.8064369257303 -22.35740317623937
  endloop
endfacet
facet normal -0.925230474592892 2.0939895422518555e-14 -0.37940554672357124
  outer loop
    vertex -7.133586566647385 -154.1523499336602 -23.31150674903131
    vertex -7.133586566647447 -156.17946820264984 -23.31150674903127
    vertex -7.9034582248405805 -155.16590906815497 -21.434073153668873
  endloop
endfacet
facet normal -0.41614595374698415 0.8956466497112704 0.1569701374178859
  outer loop
    vertex -5.129830811317928 -152.42541095074478 -20.855984780609074
    vertex -6.516225379468316 -152.8064369257303 -22.35740317623937
    vertex -6.862869872715969 -153.1673315529296 -21.21719037245182
  endloop
endfacet
facet normal -0.2040385942405439 8.27860145812729e-15 0.9789628450867494
  outer loop
    vertex -6.862869872715991 -157.1644865833804 -21.217190372451796
    vertex -6.862869872715969 -153.1673315529296 -21.21719037245182
    vertex -7.9034582248405805 -155.16590906815497 -21.434073153668873
  endloop
endfacet
facet normal -0.2040385942405439 8.27860145812729e-15 0.9789628450867494
  outer loop
    vertex -6.862869872715969 -153.1673315529296 -21.21719037245182
    vertex -6.862869872715991 -157.1644865833804 -21.217190372451796
    vertex -5.129830811317973 -157.90640718556526 -20.855984780609038
  endloop
endfacet
facet normal -0.2040385942405439 8.27860145812729e-15 0.9789628450867494
  outer loop
    vertex -6.862869872715969 -153.1673315529296 -21.21719037245182
    vertex -5.129830811317973 -157.90640718556526 -20.855984780609038
    vertex -5.129830811317928 -152.42541095074478 -20.855984780609074
  endloop
endfacet
facet normal -0.2040385942405439 8.27860145812729e-15 0.9789628450867494
  outer loop
    vertex -5.129830811317928 -152.42541095074478 -20.855984780609074
    vertex -5.129830811317973 -157.90640718556526 -20.855984780609038
    vertex -4.662619177408286 -157.04406312802556 -20.75860702467665
  endloop
endfacet
facet normal -0.2040385942405439 8.27860145812729e-15 0.9789628450867494
  outer loop
    vertex -5.129830811317928 -152.42541095074478 -20.855984780609074
    vertex -4.662619177408286 -157.04406312802556 -20.75860702467665
    vertex -4.66261917740824 -153.28775500828448 -20.758607024676685
  endloop
endfacet
facet normal 0.7134569604602385 0.18348806125832126 0.6762479552253747
  outer loop
    vertex -2.4886788967040854 -152.33194135809782 -23.311506749031334
    vertex -3.4938619330771554 -151.71894839756203 -22.41734072712937
    vertex -4.66261917740824 -153.28775500828448 -20.758607024676685
  endloop
endfacet
facet normal 0.7134569604602385 0.18348806125832126 0.6762479552253747
  outer loop
    vertex -3.4938619330771554 -151.71894839756203 -22.41734072712937
    vertex -2.4886788967040854 -152.33194135809782 -23.311506749031334
    vertex -2.533233282175597 -152.15870046048468 -23.31150674903134
  endloop
endfacet
facet normal -0.33640638868472555 0.9389332245903472 0.07235427708486998
  outer loop
    vertex -5.129830811317928 -152.42541095074478 -20.855984780609074
    vertex -3.4938619330771554 -151.71894839756203 -22.41734072712937
    vertex -6.516225379468316 -152.8064369257303 -22.35740317623937
  endloop
endfacet
facet normal -0.8948012013462496 2.898469107321144e-14 0.4464647915225885
  outer loop
    vertex -3.805304535204655 -154.16590906815497 -19.246458280707042
    vertex -4.5977855303618735 -156.16590906815503 -20.834742418617196
    vertex -3.8053045352047 -156.16590906815503 -19.246458280707007
  endloop
endfacet
facet normal -0.8948012013462496 2.898469107321144e-14 0.4464647915225885
  outer loop
    vertex -4.5977855303618735 -156.16590906815503 -20.834742418617196
    vertex -3.805304535204655 -154.16590906815497 -19.246458280707042
    vertex -4.597785530361828 -154.16590906815503 -20.834742418617243
  endloop
endfacet
facet normal 0.9592340581310245 -2.102137559655036e-14 -0.2826128477643694
  outer loop
    vertex -3.0776196433520284 -154.16590906815503 -22.61990234612989
    vertex -2.248645380738237 -156.16590906815483 -19.806228614367242
    vertex -3.077619643352051 -156.16590906815503 -22.61990234612986
  endloop
endfacet
facet normal 0.9592340581310245 -2.102137559655036e-14 -0.2826128477643694
  outer loop
    vertex -2.248645380738237 -156.16590906815483 -19.806228614367242
    vertex -3.0776196433520284 -154.16590906815503 -22.61990234612989
    vertex -2.248645380738192 -154.1659090681552 -19.806228614367278
  endloop
endfacet
facet normal -0.8770734959557605 0.468296920102579 -0.10695829708059017
  outer loop
    vertex -6.862869872715969 -153.1673315529296 -21.21719037245182
    vertex -7.133586566647385 -154.1523499336602 -23.31150674903131
    vertex -7.9034582248405805 -155.16590906815497 -21.434073153668873
  endloop
endfacet
facet normal -0.8770734959557605 0.468296920102579 -0.10695829708059017
  outer loop
    vertex -7.133586566647385 -154.1523499336602 -23.31150674903131
    vertex -6.862869872715969 -153.1673315529296 -21.21719037245182
    vertex -7.034566082784612 -153.9682862849062 -23.311577876477706
  endloop
endfacet
facet normal -0.8697496085733711 0.48055676655964097 -0.11225334070846327
  outer loop
    vertex -6.862869872715969 -153.1673315529296 -21.21719037245182
    vertex -6.958800415185972 -153.82984866294865 -23.311506749031313
    vertex -7.034566082784612 -153.9682862849062 -23.311577876477706
  endloop
endfacet
facet normal -0.8697496085733711 0.48055676655964097 -0.11225334070846327
  outer loop
    vertex -6.958800415185972 -153.82984866294865 -23.311506749031313
    vertex -6.862869872715969 -153.1673315529296 -21.21719037245182
    vertex -6.516225379468316 -152.8064369257303 -22.35740317623937
  endloop
endfacet
facet normal 0.7613539394104611 -1.456878305010382e-15 0.6483364704720627
  outer loop
    vertex -2.488678896704129 -157.99987677821227 -23.31150674903129
    vertex -3.077619643352051 -156.16590906815503 -22.61990234612986
    vertex -4.662619177408286 -157.04406312802556 -20.75860702467665
  endloop
endfacet
facet normal 0.7613539394104611 -1.456878305010382e-15 0.6483364704720627
  outer loop
    vertex -3.077619643352051 -156.16590906815503 -22.61990234612986
    vertex -2.488678896704129 -157.99987677821227 -23.31150674903129
    vertex -2.4886788967040854 -152.33194135809782 -23.311506749031334
  endloop
endfacet
facet normal 0.7613539394104611 -1.456878305010382e-15 0.6483364704720627
  outer loop
    vertex -3.077619643352051 -156.16590906815503 -22.61990234612986
    vertex -2.4886788967040854 -152.33194135809782 -23.311506749031334
    vertex -3.0776196433520284 -154.16590906815503 -22.61990234612989
  endloop
endfacet
facet normal 0.7613539394104611 -1.456878305010382e-15 0.6483364704720627
  outer loop
    vertex -3.0776196433520284 -154.16590906815503 -22.61990234612989
    vertex -2.4886788967040854 -152.33194135809782 -23.311506749031334
    vertex -4.597785530361828 -154.16590906815503 -20.834742418617243
  endloop
endfacet
facet normal 0.7613539394104611 -1.456878305010382e-15 0.6483364704720627
  outer loop
    vertex -4.597785530361828 -154.16590906815503 -20.834742418617243
    vertex -2.4886788967040854 -152.33194135809782 -23.311506749031334
    vertex -4.66261917740824 -153.28775500828448 -20.758607024676685
  endloop
endfacet
facet normal 0.7613539394104611 -1.456878305010382e-15 0.6483364704720627
  outer loop
    vertex -4.662619177408286 -157.04406312802556 -20.75860702467665
    vertex -4.5977855303618735 -156.16590906815503 -20.834742418617196
    vertex -4.66261917740824 -153.28775500828448 -20.758607024676685
  endloop
endfacet
facet normal 0.7613539394104611 -1.456878305010382e-15 0.6483364704720627
  outer loop
    vertex -4.5977855303618735 -156.16590906815503 -20.834742418617196
    vertex -4.662619177408286 -157.04406312802556 -20.75860702467665
    vertex -3.077619643352051 -156.16590906815503 -22.61990234612986
  endloop
endfacet
facet normal 0.7613539394104611 -1.456878305010382e-15 0.6483364704720627
  outer loop
    vertex -4.66261917740824 -153.28775500828448 -20.758607024676685
    vertex -4.5977855303618735 -156.16590906815503 -20.834742418617196
    vertex -4.597785530361828 -154.16590906815503 -20.834742418617243
  endloop
endfacet
facet normal -0.27054809741241653 -0.7164707271572116 -0.6430189920316024
  outer loop
    vertex -3.4938619330772007 -158.61286973874803 -22.417340727129336
    vertex -6.958800415186034 -156.5019694733614 -23.311506749031267
    vertex -2.5332332821756487 -158.1731176758254 -23.31150674903129
  endloop
endfacet
facet normal -0.27054809741241653 -0.7164707271572116 -0.6430189920316024
  outer loop
    vertex -6.958800415186034 -156.5019694733614 -23.311506749031267
    vertex -3.4938619330772007 -158.61286973874803 -22.417340727129336
    vertex -6.516225379468361 -157.52538121057975 -22.357403176239334
  endloop
endfacet
facet normal -4.639897616229367e-15 -9.396293893266343e-15 -1.0
  outer loop
    vertex -6.8354110126416625 -154.24189764013218 -23.51150674903131
    vertex -2.581057358632161 -157.6964163978021 -23.51150674903129
    vertex -6.835411012641719 -156.08992049617783 -23.51150674903127
  endloop
endfacet
facet normal -4.639897616229367e-15 -9.396293893266343e-15 -1.0
  outer loop
    vertex -2.581057358632161 -157.6964163978021 -23.51150674903129
    vertex -6.8354110126416625 -154.24189764013218 -23.51150674903131
    vertex -2.5810573586321217 -152.63540173850797 -23.51150674903133
  endloop
endfacet
facet normal -0.48210098576743254 -0.2611669112859174 -0.8362837341306141
  outer loop
    vertex -6.835411012641719 -156.08992049617783 -23.51150674903127
    vertex -7.034566082784677 -156.36353185140382 -23.311577876477664
    vertex -7.133586566647447 -156.17946820264984 -23.31150674903127
  endloop
endfacet
facet normal -0.48210098576743254 -0.2611669112859174 -0.8362837341306141
  outer loop
    vertex -7.034566082784677 -156.36353185140382 -23.311577876477664
    vertex -6.835411012641719 -156.08992049617783 -23.51150674903127
    vertex -6.958800415186034 -156.5019694733614 -23.311506749031267
  endloop
endfacet
facet normal 0.7469675185247742 -0.19210636295232844 -0.6365019022612342
  outer loop
    vertex -2.581057358632161 -157.6964163978021 -23.51150674903129
    vertex -2.488678896704129 -157.99987677821227 -23.31150674903129
    vertex -2.5332332821756487 -158.1731176758254 -23.31150674903129
  endloop
endfacet
facet normal 0.9078371193314494 -1.0285180772055048e-14 -0.4193229838250893
  outer loop
    vertex -2.581057358632161 -157.6964163978021 -23.51150674903129
    vertex -2.4886788967040854 -152.33194135809782 -23.311506749031334
    vertex -2.488678896704129 -157.99987677821227 -23.31150674903129
  endloop
endfacet
facet normal 0.9078371193314494 -1.0285180772055048e-14 -0.4193229838250893
  outer loop
    vertex -2.4886788967040854 -152.33194135809782 -23.311506749031334
    vertex -2.581057358632161 -157.6964163978021 -23.51150674903129
    vertex -2.5810573586321217 -152.63540173850797 -23.51150674903133
  endloop
endfacet
facet normal -0.4821009857674552 0.26116691128591557 -0.8362837341306015
  outer loop
    vertex -7.034566082784612 -153.9682862849062 -23.311577876477706
    vertex -6.8354110126416625 -154.24189764013218 -23.51150674903131
    vertex -7.133586566647385 -154.1523499336602 -23.31150674903131
  endloop
endfacet
facet normal -0.4821009857674552 0.26116691128591557 -0.8362837341306015
  outer loop
    vertex -6.8354110126416625 -154.24189764013218 -23.51150674903131
    vertex -7.034566082784612 -153.9682862849062 -23.311577876477706
    vertex -6.958800415185972 -153.82984866294865 -23.311506749031313
  endloop
endfacet
facet normal 0.7469675185248162 0.1921063629522838 -0.6365019022611981
  outer loop
    vertex -2.533233282175597 -152.15870046048468 -23.31150674903134
    vertex -2.4886788967040854 -152.33194135809782 -23.311506749031334
    vertex -2.5810573586321217 -152.63540173850797 -23.51150674903133
  endloop
endfacet
facet normal -0.14924788813349882 0.39524115660175635 -0.9063716103319857
  outer loop
    vertex -2.533233282175597 -152.15870046048468 -23.31150674903134
    vertex -6.8354110126416625 -154.24189764013218 -23.51150674903131
    vertex -6.958800415185972 -153.82984866294865 -23.311506749031313
  endloop
endfacet
facet normal -0.14924788813349882 0.39524115660175635 -0.9063716103319857
  outer loop
    vertex -6.8354110126416625 -154.24189764013218 -23.51150674903131
    vertex -2.533233282175597 -152.15870046048468 -23.31150674903134
    vertex -2.5810573586321217 -152.63540173850797 -23.51150674903133
  endloop
endfacet
facet normal -0.5570432897344798 1.4004062119172605e-16 -0.8304834576087523
  outer loop
    vertex -7.133586566647385 -154.1523499336602 -23.31150674903131
    vertex -6.835411012641719 -156.08992049617783 -23.51150674903127
    vertex -7.133586566647447 -156.17946820264984 -23.31150674903127
  endloop
endfacet
facet normal -0.5570432897344798 1.4004062119172605e-16 -0.8304834576087523
  outer loop
    vertex -6.835411012641719 -156.08992049617783 -23.51150674903127
    vertex -7.133586566647385 -154.1523499336602 -23.31150674903131
    vertex -6.8354110126416625 -154.24189764013218 -23.51150674903131
  endloop
endfacet
facet normal -0.14924788813349962 -0.3952411566017505 -0.906371610331988
  outer loop
    vertex -6.835411012641719 -156.08992049617783 -23.51150674903127
    vertex -2.5332332821756487 -158.1731176758254 -23.31150674903129
    vertex -6.958800415186034 -156.5019694733614 -23.311506749031267
  endloop
endfacet
facet normal -0.14924788813349962 -0.3952411566017505 -0.906371610331988
  outer loop
    vertex -2.5332332821756487 -158.1731176758254 -23.31150674903129
    vertex -6.835411012641719 -156.08992049617783 -23.51150674903127
    vertex -2.581057358632161 -157.6964163978021 -23.51150674903129
  endloop
endfacet
endsolid 海豹與北極熊-3
