solid OpenSCAD_Model
  facet normal 0 0 1
    outer loop
      vertex 17.3205 -30 32
      vertex 7.37349 -34.1569 32
      vertex 19.7205 -34.1569 32
    endloop
  endfacet
  facet normal 0 0 1
    outer loop
      vertex 7.37349 -34.1569 32
      vertex 5.77351 -34.1569 32
      vertex 7.37349 -35.7569 32
    endloop
  endfacet
  facet normal 0 0 1
    outer loop
      vertex 17.3205 -30 32
      vertex 5.77351 -34.1569 32
      vertex 7.37349 -34.1569 32
    endloop
  endfacet
  facet normal 0 0 1
    outer loop
      vertex 17.3205 -30 32
      vertex -5.77351 -34.1569 32
      vertex 5.77351 -34.1569 32
    endloop
  endfacet
  facet normal 0 0 1
    outer loop
      vertex -5.77351 -34.1569 32
      vertex -7.37349 -34.1569 32
      vertex -5.77351 -35.7569 32
    endloop
  endfacet
  facet normal -0 0 1
    outer loop
      vertex -17.3205 -30 32
      vertex -5.77351 -34.1569 32
      vertex 17.3205 -30 32
    endloop
  endfacet
  facet normal 0 0 1
    outer loop
      vertex -5.77351 -34.1569 32
      vertex -17.3205 -30 32
      vertex -7.37349 -34.1569 32
    endloop
  endfacet
  facet normal 0 0 1
    outer loop
      vertex -17.3205 -30 32
      vertex -19.7205 -34.1569 32
      vertex -7.37349 -34.1569 32
    endloop
  endfacet
  facet normal -0 0 1
    outer loop
      vertex 7.37349 -35.7569 32
      vertex 8.5735 -37.3569 32
      vertex 8.5735 -35.7569 32
    endloop
  endfacet
  facet normal 0 0 1
    outer loop
      vertex 5.77351 -35.7569 32
      vertex 7.37349 -35.7569 32
      vertex 5.77351 -34.1569 32
    endloop
  endfacet
  facet normal 0 0 1
    outer loop
      vertex 7.37349 -35.7569 32
      vertex 5.77351 -35.7569 32
      vertex 8.5735 -37.3569 32
    endloop
  endfacet
  facet normal 0 0 1
    outer loop
      vertex 4.5735 -37.3569 32
      vertex 5.77351 -35.7569 32
      vertex 4.5735 -35.7569 32
    endloop
  endfacet
  facet normal 0 0 1
    outer loop
      vertex 5.77351 -35.7569 32
      vertex 4.5735 -37.3569 32
      vertex 8.5735 -37.3569 32
    endloop
  endfacet
  facet normal -0 0 1
    outer loop
      vertex -5.77351 -35.7569 32
      vertex -4.5735 -37.3569 32
      vertex -4.5735 -35.7569 32
    endloop
  endfacet
  facet normal 0 0 1
    outer loop
      vertex -7.37349 -35.7569 32
      vertex -5.77351 -35.7569 32
      vertex -7.37349 -34.1569 32
    endloop
  endfacet
  facet normal 0 0 1
    outer loop
      vertex -5.77351 -35.7569 32
      vertex -7.37349 -35.7569 32
      vertex -4.5735 -37.3569 32
    endloop
  endfacet
  facet normal 0 0 1
    outer loop
      vertex -8.5735 -37.3569 32
      vertex -7.37349 -35.7569 32
      vertex -8.5735 -35.7569 32
    endloop
  endfacet
  facet normal 0 0 1
    outer loop
      vertex -7.37349 -35.7569 32
      vertex -8.5735 -37.3569 32
      vertex -4.5735 -37.3569 32
    endloop
  endfacet
  facet normal 0 0 -1
    outer loop
      vertex -4.5735 -37.3569 0
      vertex -5.77351 -35.7569 0
      vertex -4.5735 -35.7569 0
    endloop
  endfacet
  facet normal 0 0 -1
    outer loop
      vertex -5.77351 -35.7569 0
      vertex -7.37349 -35.7569 0
      vertex -5.77351 -34.1569 0
    endloop
  endfacet
  facet normal 0 0 -1
    outer loop
      vertex -4.5735 -37.3569 0
      vertex -7.37349 -35.7569 0
      vertex -5.77351 -35.7569 0
    endloop
  endfacet
  facet normal 0 0 -1
    outer loop
      vertex -8.5735 -37.3569 0
      vertex -7.37349 -35.7569 0
      vertex -4.5735 -37.3569 0
    endloop
  endfacet
  facet normal -0 0 -1
    outer loop
      vertex -7.37349 -35.7569 0
      vertex -8.5735 -37.3569 0
      vertex -8.5735 -35.7569 0
    endloop
  endfacet
  facet normal 0 0 -1
    outer loop
      vertex 8.5735 -37.3569 0
      vertex 7.37349 -35.7569 0
      vertex 8.5735 -35.7569 0
    endloop
  endfacet
  facet normal 0 0 -1
    outer loop
      vertex 7.37349 -35.7569 0
      vertex 5.77351 -35.7569 0
      vertex 7.37349 -34.1569 0
    endloop
  endfacet
  facet normal 0 0 -1
    outer loop
      vertex 8.5735 -37.3569 0
      vertex 5.77351 -35.7569 0
      vertex 7.37349 -35.7569 0
    endloop
  endfacet
  facet normal 0 0 -1
    outer loop
      vertex 4.5735 -37.3569 0
      vertex 5.77351 -35.7569 0
      vertex 8.5735 -37.3569 0
    endloop
  endfacet
  facet normal -0 0 -1
    outer loop
      vertex 5.77351 -35.7569 0
      vertex 4.5735 -37.3569 0
      vertex 4.5735 -35.7569 0
    endloop
  endfacet
  facet normal 0 0 -1
    outer loop
      vertex 7.37349 -34.1569 0
      vertex 17.3205 -30 0
      vertex 19.7205 -34.1569 0
    endloop
  endfacet
  facet normal 0 0 -1
    outer loop
      vertex 5.77351 -34.1569 0
      vertex 7.37349 -34.1569 0
      vertex 5.77351 -35.7569 0
    endloop
  endfacet
  facet normal 0 0 -1
    outer loop
      vertex 5.77351 -34.1569 0
      vertex 17.3205 -30 0
      vertex 7.37349 -34.1569 0
    endloop
  endfacet
  facet normal 0 0 -1
    outer loop
      vertex -5.77351 -34.1569 0
      vertex 17.3205 -30 0
      vertex 5.77351 -34.1569 0
    endloop
  endfacet
  facet normal 0 0 -1
    outer loop
      vertex -7.37349 -34.1569 0
      vertex -5.77351 -34.1569 0
      vertex -7.37349 -35.7569 0
    endloop
  endfacet
  facet normal 0 0 -1
    outer loop
      vertex -17.3205 -30 0
      vertex -5.77351 -34.1569 0
      vertex -7.37349 -34.1569 0
    endloop
  endfacet
  facet normal 0 0 -1
    outer loop
      vertex -5.77351 -34.1569 0
      vertex -17.3205 -30 0
      vertex 17.3205 -30 0
    endloop
  endfacet
  facet normal 0 0 -1
    outer loop
      vertex -19.7205 -34.1569 0
      vertex -17.3205 -30 0
      vertex -7.37349 -34.1569 0
    endloop
  endfacet
  facet normal 0 -1 0
    outer loop
      vertex 7.37349 -34.1569 0
      vertex 19.7205 -34.1569 32
      vertex 7.37349 -34.1569 32
    endloop
  endfacet
  facet normal 0 -1 -0
    outer loop
      vertex 19.7205 -34.1569 32
      vertex 7.37349 -34.1569 0
      vertex 19.7205 -34.1569 0
    endloop
  endfacet
  facet normal 0 -1 0
    outer loop
      vertex -19.7205 -34.1569 0
      vertex -7.37349 -34.1569 32
      vertex -19.7205 -34.1569 32
    endloop
  endfacet
  facet normal 0 -1 -0
    outer loop
      vertex -7.37349 -34.1569 32
      vertex -19.7205 -34.1569 0
      vertex -7.37349 -34.1569 0
    endloop
  endfacet
  facet normal 0 -1 0
    outer loop
      vertex -5.77351 -34.1569 0
      vertex 5.77351 -34.1569 32
      vertex -5.77351 -34.1569 32
    endloop
  endfacet
  facet normal 0 -1 -0
    outer loop
      vertex 5.77351 -34.1569 32
      vertex -5.77351 -34.1569 0
      vertex 5.77351 -34.1569 0
    endloop
  endfacet
  facet normal 0 1 -0
    outer loop
      vertex 17.3205 -30 0
      vertex -17.3205 -30 32
      vertex 17.3205 -30 32
    endloop
  endfacet
  facet normal 0 1 0
    outer loop
      vertex -17.3205 -30 32
      vertex 17.3205 -30 0
      vertex -17.3205 -30 0
    endloop
  endfacet
  facet normal 0 1 -0
    outer loop
      vertex -4.5735 -35.7569 0
      vertex -5.77351 -35.7569 32
      vertex -4.5735 -35.7569 32
    endloop
  endfacet
  facet normal 0 1 0
    outer loop
      vertex -5.77351 -35.7569 32
      vertex -4.5735 -35.7569 0
      vertex -5.77351 -35.7569 0
    endloop
  endfacet
  facet normal 1 -0 0
    outer loop
      vertex -5.77351 -35.7569 32
      vertex -5.77351 -34.1569 0
      vertex -5.77351 -34.1569 32
    endloop
  endfacet
  facet normal 1 0 0
    outer loop
      vertex -5.77351 -34.1569 0
      vertex -5.77351 -35.7569 32
      vertex -5.77351 -35.7569 0
    endloop
  endfacet
  facet normal -1 0 0
    outer loop
      vertex -7.37349 -35.7569 0
      vertex -7.37349 -34.1569 32
      vertex -7.37349 -34.1569 0
    endloop
  endfacet
  facet normal -1 -0 0
    outer loop
      vertex -7.37349 -34.1569 32
      vertex -7.37349 -35.7569 0
      vertex -7.37349 -35.7569 32
    endloop
  endfacet
  facet normal 0 1 -0
    outer loop
      vertex -7.37349 -35.7569 0
      vertex -8.5735 -35.7569 32
      vertex -7.37349 -35.7569 32
    endloop
  endfacet
  facet normal 0 1 0
    outer loop
      vertex -8.5735 -35.7569 32
      vertex -7.37349 -35.7569 0
      vertex -8.5735 -35.7569 0
    endloop
  endfacet
  facet normal -1 0 0
    outer loop
      vertex -8.5735 -37.3569 0
      vertex -8.5735 -35.7569 32
      vertex -8.5735 -35.7569 0
    endloop
  endfacet
  facet normal -1 -0 0
    outer loop
      vertex -8.5735 -35.7569 32
      vertex -8.5735 -37.3569 0
      vertex -8.5735 -37.3569 32
    endloop
  endfacet
  facet normal 0 -1 0
    outer loop
      vertex -8.5735 -37.3569 0
      vertex -4.5735 -37.3569 32
      vertex -8.5735 -37.3569 32
    endloop
  endfacet
  facet normal 0 -1 -0
    outer loop
      vertex -4.5735 -37.3569 32
      vertex -8.5735 -37.3569 0
      vertex -4.5735 -37.3569 0
    endloop
  endfacet
  facet normal 1 -0 0
    outer loop
      vertex -4.5735 -37.3569 32
      vertex -4.5735 -35.7569 0
      vertex -4.5735 -35.7569 32
    endloop
  endfacet
  facet normal 1 0 0
    outer loop
      vertex -4.5735 -35.7569 0
      vertex -4.5735 -37.3569 32
      vertex -4.5735 -37.3569 0
    endloop
  endfacet
  facet normal 0 1 -0
    outer loop
      vertex 8.5735 -35.7569 0
      vertex 7.37349 -35.7569 32
      vertex 8.5735 -35.7569 32
    endloop
  endfacet
  facet normal 0 1 0
    outer loop
      vertex 7.37349 -35.7569 32
      vertex 8.5735 -35.7569 0
      vertex 7.37349 -35.7569 0
    endloop
  endfacet
  facet normal 1 -0 0
    outer loop
      vertex 7.37349 -35.7569 32
      vertex 7.37349 -34.1569 0
      vertex 7.37349 -34.1569 32
    endloop
  endfacet
  facet normal 1 0 0
    outer loop
      vertex 7.37349 -34.1569 0
      vertex 7.37349 -35.7569 32
      vertex 7.37349 -35.7569 0
    endloop
  endfacet
  facet normal -1 0 0
    outer loop
      vertex 5.77351 -35.7569 0
      vertex 5.77351 -34.1569 32
      vertex 5.77351 -34.1569 0
    endloop
  endfacet
  facet normal -1 -0 0
    outer loop
      vertex 5.77351 -34.1569 32
      vertex 5.77351 -35.7569 0
      vertex 5.77351 -35.7569 32
    endloop
  endfacet
  facet normal 0 1 -0
    outer loop
      vertex 5.77351 -35.7569 0
      vertex 4.5735 -35.7569 32
      vertex 5.77351 -35.7569 32
    endloop
  endfacet
  facet normal 0 1 0
    outer loop
      vertex 4.5735 -35.7569 32
      vertex 5.77351 -35.7569 0
      vertex 4.5735 -35.7569 0
    endloop
  endfacet
  facet normal -1 0 0
    outer loop
      vertex 4.5735 -37.3569 0
      vertex 4.5735 -35.7569 32
      vertex 4.5735 -35.7569 0
    endloop
  endfacet
  facet normal -1 -0 0
    outer loop
      vertex 4.5735 -35.7569 32
      vertex 4.5735 -37.3569 0
      vertex 4.5735 -37.3569 32
    endloop
  endfacet
  facet normal 0 -1 0
    outer loop
      vertex 4.5735 -37.3569 0
      vertex 8.5735 -37.3569 32
      vertex 4.5735 -37.3569 32
    endloop
  endfacet
  facet normal 0 -1 -0
    outer loop
      vertex 8.5735 -37.3569 32
      vertex 4.5735 -37.3569 0
      vertex 8.5735 -37.3569 0
    endloop
  endfacet
  facet normal 1 -0 0
    outer loop
      vertex 8.5735 -37.3569 32
      vertex 8.5735 -35.7569 0
      vertex 8.5735 -35.7569 32
    endloop
  endfacet
  facet normal 1 0 0
    outer loop
      vertex 8.5735 -35.7569 0
      vertex 8.5735 -37.3569 32
      vertex 8.5735 -37.3569 0
    endloop
  endfacet
  facet normal 0.866024 0.500002 0
    outer loop
      vertex 19.7205 -34.1569 32
      vertex 17.3205 -30 0
      vertex 17.3205 -30 32
    endloop
  endfacet
  facet normal 0.866024 0.500002 0
    outer loop
      vertex 17.3205 -30 0
      vertex 19.7205 -34.1569 32
      vertex 19.7205 -34.1569 0
    endloop
  endfacet
  facet normal -0.866024 0.500002 0
    outer loop
      vertex -19.7205 -34.1569 0
      vertex -17.3205 -30 32
      vertex -17.3205 -30 0
    endloop
  endfacet
  facet normal -0.866024 0.500002 0
    outer loop
      vertex -17.3205 -30 32
      vertex -19.7205 -34.1569 0
      vertex -19.7205 -34.1569 32
    endloop
  endfacet
endsolid OpenSCAD_Model
